WixMadeforText-SemiBoldItalic.ufo
<glyph name="exclam" format="1">
  <advance width="251"/>
  <unicode hex="0021"/>
  <outline>
    <contour>
      <point x="154" y="219" type="line"/>
      <point x="170" y="270"/>
      <point x="234" y="491"/>
      <point x="265" y="600" type="curve" smooth="yes"/>
      <point x="280" y="647"/>
      <point x="284" y="664"/>
      <point x="284" y="675" type="curve" smooth="yes"/>
      <point x="284" y="711"/>
      <point x="262" y="731"/>
      <point x="226" y="731" type="curve" smooth="yes"/>
      <point x="205" y="731"/>
      <point x="186" y="724"/>
      <point x="174" y="712" type="curve" smooth="yes"/>
      <point x="158" y="696"/>
      <point x="150" y="675"/>
      <point x="145" y="632" type="curve" smooth="yes"/>
      <point x="137" y="562"/>
      <point x="94" y="263"/>
      <point x="89" y="219" type="curve"/>
    </contour>
    <contour>
      <point x="13" y="51" type="curve" smooth="yes"/>
      <point x="13" y="14"/>
      <point x="41" y="-12"/>
      <point x="78" y="-12" type="curve" smooth="yes"/>
      <point x="130" y="-12"/>
      <point x="167" y="24"/>
      <point x="167" y="76" type="curve" smooth="yes"/>
      <point x="167" y="113"/>
      <point x="139" y="141"/>
      <point x="103" y="141" type="curve" smooth="yes"/>
      <point x="51" y="141"/>
      <point x="13" y="103"/>
    </contour>
  </outline>
</glyph>
<glyph name="numbersign" format="2">
	<unicode hex="0023"/>
	<advance width="628"/>
	<outline>
		<contour>
			<point x="261" y="0" type="line"/>
			<point x="363" y="0" type="line"/>
			<point x="650" y="715" type="line"/>
			<point x="548" y="715" type="line"/>
		</contour>
		<contour>
			<point x="15" y="175" type="line"/>
			<point x="510" y="175" type="line"/>
			<point x="547" y="266" type="line"/>
			<point x="52" y="266" type="line"/>
		</contour>
		<contour>
			<point x="23" y="0" type="line"/>
			<point x="125" y="0" type="line"/>
			<point x="412" y="715" type="line"/>
			<point x="310" y="715" type="line"/>
		</contour>
		<contour>
			<point x="126" y="449" type="line"/>
			<point x="621" y="449" type="line"/>
			<point x="658" y="540" type="line"/>
			<point x="163" y="540" type="line"/>
		</contour>
	</outline>
</glyph>
<glyph name="dollar" format="1">
  <advance width="659"/>
  <unicode hex="0024"/>
  <outline>
    <contour>
      <point x="219" y="-116" type="line"/>
      <point x="283" y="-116" type="line"/>
      <point x="385" y="363" type="line"/>
      <point x="321" y="363" type="line"/>
    </contour>
    <contour>
      <point x="326" y="376" type="line"/>
      <point x="390" y="376" type="line"/>
      <point x="487" y="831" type="line"/>
      <point x="423" y="831" type="line"/>
    </contour>
    <contour>
      <point x="29" y="130" type="line"/>
      <point x="84" y="45"/>
      <point x="197" y="-6"/>
      <point x="313" y="-6" type="curve" smooth="yes"/>
      <point x="469" y="-6"/>
      <point x="585" y="86"/>
      <point x="585" y="226" type="curve" smooth="yes"/>
      <point x="585" y="321"/>
      <point x="515" y="386"/>
      <point x="376" y="419" type="curve" smooth="yes"/>
      <point x="276" y="443"/>
      <point x="241" y="467"/>
      <point x="241" y="516" type="curve" smooth="yes"/>
      <point x="241" y="582"/>
      <point x="299" y="623"/>
      <point x="387" y="623" type="curve" smooth="yes"/>
      <point x="473" y="623"/>
      <point x="531" y="586"/>
      <point x="577" y="521" type="curve"/>
      <point x="656" y="589" type="line"/>
      <point x="604" y="670"/>
      <point x="509" y="721"/>
      <point x="393" y="721" type="curve" smooth="yes"/>
      <point x="241" y="721"/>
      <point x="126" y="628"/>
      <point x="126" y="498" type="curve" smooth="yes"/>
      <point x="126" y="406"/>
      <point x="192" y="348"/>
      <point x="331" y="315" type="curve" smooth="yes"/>
      <point x="435" y="289"/>
      <point x="469" y="263"/>
      <point x="469" y="207" type="curve" smooth="yes"/>
      <point x="469" y="136"/>
      <point x="413" y="91"/>
      <point x="319" y="91" type="curve" smooth="yes"/>
      <point x="230" y="91"/>
      <point x="154" y="133"/>
      <point x="109" y="201" type="curve"/>
    </contour>
  </outline>
</glyph>
<glyph name="ampersand" format="2">
	<unicode hex="0026"/>
	<advance width="665"/>
	<outline>
		<contour>
			<point x="431" y="185" type="line" smooth="yes"/>
			<point x="372" y="117"/>
			<point x="323" y="79"/>
			<point x="254" y="79" type="curve" smooth="yes"/>
			<point x="190" y="79"/>
			<point x="149" y="121"/>
			<point x="149" y="183" type="curve" smooth="yes"/>
			<point x="149" y="262"/>
			<point x="221" y="318"/>
			<point x="308" y="343" type="curve"/>
			<point x="300" y="418" type="line"/>
			<point x="137" y="370"/>
			<point x="27" y="289"/>
			<point x="27" y="166" type="curve" smooth="yes"/>
			<point x="27" y="59"/>
			<point x="117" y="-16"/>
			<point x="242" y="-16" type="curve" smooth="yes"/>
			<point x="345" y="-16"/>
			<point x="424" y="36"/>
			<point x="520" y="144" type="curve" smooth="yes"/>
			<point x="650" y="289" type="line"/>
			<point x="578" y="351" type="line"/>
		</contour>
		<contour>
			<point x="538" y="-16" type="line"/>
			<point x="619" y="54" type="line"/>
			<point x="357" y="381" type="line"/>
			<point x="341" y="400" type="line" smooth="yes"/>
			<point x="292" y="459"/>
			<point x="277" y="497"/>
			<point x="277" y="534" type="curve" smooth="yes"/>
			<point x="277" y="594"/>
			<point x="321" y="640"/>
			<point x="375" y="640" type="curve" smooth="yes"/>
			<point x="422" y="640"/>
			<point x="451" y="607"/>
			<point x="451" y="561" type="curve" smooth="yes"/>
			<point x="451" y="492"/>
			<point x="382" y="445"/>
			<point x="310" y="424" type="curve"/>
			<point x="314" y="348" type="line"/>
			<point x="447" y="384"/>
			<point x="558" y="464"/>
			<point x="558" y="574" type="curve" smooth="yes"/>
			<point x="558" y="673"/>
			<point x="473" y="731"/>
			<point x="377" y="731" type="curve" smooth="yes"/>
			<point x="257" y="731"/>
			<point x="167" y="639"/>
			<point x="167" y="529" type="curve" smooth="yes"/>
			<point x="167" y="472"/>
			<point x="192" y="423"/>
			<point x="245" y="360" type="curve"/>
			<point x="256" y="343" type="line"/>
		</contour>
	</outline>
</glyph>
<glyph name="quotesingle" format="1">
  <advance width="262"/>
  <unicode hex="0027"/>
  <outline>
    <contour>
      <point x="197" y="461" type="line"/>
      <point x="246" y="571"/>
      <point x="281" y="668"/>
      <point x="281" y="698" type="curve" smooth="yes"/>
      <point x="281" y="726"/>
      <point x="261" y="744"/>
      <point x="234" y="744" type="curve" smooth="yes"/>
      <point x="200" y="744"/>
      <point x="175" y="722"/>
      <point x="167" y="684" type="curve" smooth="yes"/>
      <point x="160" y="653"/>
      <point x="155" y="557"/>
      <point x="154" y="461" type="curve"/>
    </contour>
  </outline>
</glyph>
<glyph name="parenleft" format="1">
  <advance width="347"/>
  <unicode hex="0028"/>
  <outline>
    <contour>
      <point x="230" y="-129" type="line"/>
      <point x="191" y="-36"/>
      <point x="172" y="57"/>
      <point x="172" y="154" type="curve" smooth="yes"/>
      <point x="172" y="368"/>
      <point x="266" y="573"/>
      <point x="415" y="731" type="curve"/>
      <point x="297" y="731" type="line"/>
      <point x="148" y="579"/>
      <point x="55" y="369"/>
      <point x="55" y="154" type="curve" smooth="yes"/>
      <point x="55" y="57"/>
      <point x="74" y="-38"/>
      <point x="117" y="-129" type="curve"/>
    </contour>
  </outline>
</glyph>
<glyph name="parenright" format="1">
  <advance width="346"/>
  <unicode hex="0029"/>
  <outline>
    <contour>
      <point x="72" y="-129" type="line"/>
      <point x="220" y="22"/>
      <point x="313" y="229"/>
      <point x="313" y="451" type="curve" smooth="yes"/>
      <point x="313" y="540"/>
      <point x="294" y="644"/>
      <point x="252" y="731" type="curve"/>
      <point x="138" y="731" type="line"/>
      <point x="178" y="639"/>
      <point x="197" y="540"/>
      <point x="197" y="449" type="curve" smooth="yes"/>
      <point x="197" y="231"/>
      <point x="101" y="28"/>
      <point x="-46" y="-129" type="curve"/>
    </contour>
  </outline>
</glyph>
<glyph name="asterisk" format="2">
	<unicode hex="002A"/>
	<advance width="415"/>
	<outline>
		<contour>
			<point x="230" y="513" type="curve"/>
			<point x="178" y="477"/>
			<point x="137" y="444"/>
			<point x="120" y="427" type="curve" smooth="yes"/>
			<point x="108" y="414"/>
			<point x="101" y="399"/>
			<point x="101" y="382" type="curve" smooth="yes"/>
			<point x="101" y="362"/>
			<point x="118" y="346"/>
			<point x="140" y="346" type="curve" smooth="yes"/>
			<point x="157" y="346"/>
			<point x="174" y="353"/>
			<point x="185" y="368" type="curve" smooth="yes"/>
			<point x="201" y="386"/>
			<point x="231" y="436"/>
			<point x="258" y="486" type="curve"/>
			<point x="265" y="437"/>
			<point x="277" y="386"/>
			<point x="285" y="368" type="curve" smooth="yes"/>
			<point x="292" y="352"/>
			<point x="302" y="346"/>
			<point x="317" y="346" type="curve" smooth="yes"/>
			<point x="346" y="346"/>
			<point x="373" y="373"/>
			<point x="373" y="401" type="curve" smooth="yes"/>
			<point x="373" y="411"/>
			<point x="371" y="418"/>
			<point x="363" y="430" type="curve" smooth="yes"/>
			<point x="352" y="449"/>
			<point x="324" y="483"/>
			<point x="296" y="512" type="curve"/>
			<point x="350" y="515"/>
			<point x="396" y="520"/>
			<point x="415" y="527" type="curve" smooth="yes"/>
			<point x="443" y="534"/>
			<point x="461" y="557"/>
			<point x="461" y="584" type="curve" smooth="yes"/>
			<point x="461" y="606"/>
			<point x="448" y="619"/>
			<point x="427" y="619" type="curve" smooth="yes"/>
			<point x="417" y="619"/>
			<point x="406" y="617"/>
			<point x="388" y="609" type="curve" smooth="yes"/>
			<point x="366" y="599"/>
			<point x="334" y="579"/>
			<point x="292" y="553" type="curve"/>
			<point x="326" y="624"/>
			<point x="346" y="676"/>
			<point x="346" y="696" type="curve" smooth="yes"/>
			<point x="346" y="718"/>
			<point x="333" y="731"/>
			<point x="310" y="731" type="curve" smooth="yes"/>
			<point x="282" y="731"/>
			<point x="261" y="712"/>
			<point x="254" y="682" type="curve" smooth="yes"/>
			<point x="252" y="672"/>
			<point x="250" y="654"/>
			<point x="250" y="632" type="curve" smooth="yes"/>
			<point x="249" y="609"/>
			<point x="250" y="582"/>
			<point x="251" y="553" type="curve"/>
			<point x="223" y="578"/>
			<point x="197" y="598"/>
			<point x="179" y="609" type="curve" smooth="yes"/>
			<point x="168" y="615"/>
			<point x="159" y="619"/>
			<point x="145" y="619" type="curve" smooth="yes"/>
			<point x="116" y="619"/>
			<point x="91" y="589"/>
			<point x="91" y="561" type="curve" smooth="yes"/>
			<point x="91" y="545"/>
			<point x="100" y="532"/>
			<point x="117" y="527" type="curve" smooth="yes"/>
			<point x="134" y="520"/>
			<point x="176" y="515"/>
		</contour>
	</outline>
</glyph>
<glyph name="plus" format="1">
  <advance width="632"/>
  <unicode hex="002B"/>
  <outline>
    <contour>
      <point x="244" y="151" type="line"/>
      <point x="338" y="151" type="line"/>
      <point x="371" y="310" type="line"/>
      <point x="523" y="310" type="line"/>
      <point x="543" y="405" type="line"/>
      <point x="391" y="405" type="line"/>
      <point x="424" y="564" type="line"/>
      <point x="331" y="564" type="line"/>
      <point x="298" y="405" type="line"/>
      <point x="146" y="405" type="line"/>
      <point x="126" y="310" type="line"/>
      <point x="278" y="310" type="line"/>
    </contour>
  </outline>
</glyph>
<glyph name="comma" format="2">
	<unicode hex="002C"/>
	<advance width="253"/>
	<outline>
		<contour>
			<point x="31" y="-149" type="line"/>
			<point x="108" y="-83"/>
			<point x="165" y="9"/>
			<point x="165" y="72" type="curve" smooth="yes"/>
			<point x="165" y="114"/>
			<point x="137" y="141"/>
			<point x="97" y="141" type="curve" smooth="yes"/>
			<point x="49" y="141"/>
			<point x="12" y="103"/>
			<point x="12" y="54" type="curve" smooth="yes"/>
			<point x="12" y="16"/>
			<point x="39" y="-12"/>
			<point x="78" y="-12" type="curve"/>
			<point x="70" y="29" type="line"/>
			<point x="58" y="-29"/>
			<point x="17" y="-88"/>
			<point x="-40" y="-149" type="curve"/>
		</contour>
	</outline>
</glyph>
<glyph name="hyphen" format="2">
	<unicode hex="002D"/>
	<advance width="323"/>
	<outline>
		<contour>
			<point x="26" y="225" type="line"/>
			<point x="287" y="225" type="line"/>
			<point x="308" y="326" type="line"/>
			<point x="47" y="326" type="line"/>
		</contour>
	</outline>
</glyph>
<glyph name="period" format="2">
	<unicode hex="002E"/>
	<advance width="253"/>
	<outline>
		<contour>
			<point x="12" y="53" type="curve" smooth="yes"/>
			<point x="12" y="14"/>
			<point x="40" y="-12"/>
			<point x="79" y="-12" type="curve" smooth="yes"/>
			<point x="129" y="-12"/>
			<point x="166" y="24"/>
			<point x="166" y="74" type="curve" smooth="yes"/>
			<point x="166" y="114"/>
			<point x="138" y="141"/>
			<point x="98" y="141" type="curve" smooth="yes"/>
			<point x="49" y="141"/>
			<point x="12" y="102"/>
		</contour>
	</outline>
</glyph>
<glyph name="slash" format="1">
  <advance width="491"/>
  <unicode hex="002F"/>
  <outline>
    <contour>
      <point x="0" y="0" type="line"/>
      <point x="114" y="0" type="line"/>
      <point x="542" y="731" type="line"/>
      <point x="426" y="731" type="line"/>
    </contour>
  </outline>
</glyph>
<glyph name="zero" format="2">
	<unicode hex="0030"/>
	<advance width="622"/>
	<outline>
		<contour>
			<point x="272" y="-16" type="curve" smooth="yes"/>
			<point x="459" y="-16"/>
			<point x="607" y="207"/>
			<point x="607" y="485" type="curve" smooth="yes"/>
			<point x="607" y="641"/>
			<point x="530" y="731"/>
			<point x="397" y="731" type="curve" smooth="yes"/>
			<point x="210" y="731"/>
			<point x="61" y="508"/>
			<point x="61" y="230" type="curve" smooth="yes"/>
			<point x="61" y="74"/>
			<point x="138" y="-16"/>
		</contour>
		<contour>
			<point x="281" y="82" type="curve" smooth="yes"/>
			<point x="216" y="82"/>
			<point x="182" y="132"/>
			<point x="182" y="225" type="curve" smooth="yes"/>
			<point x="182" y="440"/>
			<point x="279" y="633"/>
			<point x="387" y="633" type="curve" smooth="yes"/>
			<point x="452" y="633"/>
			<point x="487" y="583"/>
			<point x="487" y="490" type="curve" smooth="yes"/>
			<point x="487" y="275"/>
			<point x="389" y="82"/>
		</contour>
	</outline>
</glyph>
<glyph name="one" format="2">
	<unicode hex="0031"/>
	<advance width="497"/>
	<outline>
		<contour>
			<point x="197" y="0" type="line"/>
			<point x="316" y="0" type="line"/>
			<point x="468" y="715" type="line"/>
			<point x="365" y="715" type="line"/>
			<point x="155" y="582" type="line"/>
			<point x="128" y="455" type="line"/>
			<point x="320" y="580" type="line"/>
		</contour>
	</outline>
</glyph>
<glyph name="two" format="1">
  <advance width="540"/>
  <unicode hex="0032"/>
  <outline>
    <contour>
      <point x="-3" y="0" type="line"/>
      <point x="460" y="0" type="line"/>
      <point x="480" y="97" type="line"/>
      <point x="146" y="97" type="line"/>
      <point x="150" y="76" type="line"/>
      <point x="339" y="231" type="line" smooth="yes"/>
      <point x="491" y="355"/>
      <point x="565" y="437"/>
      <point x="565" y="553" type="curve" smooth="yes"/>
      <point x="565" y="658"/>
      <point x="480" y="731"/>
      <point x="358" y="731" type="curve" smooth="yes"/>
      <point x="260" y="731"/>
      <point x="175" y="687"/>
      <point x="102" y="599" type="curve"/>
      <point x="170" y="522" type="line"/>
      <point x="222" y="592"/>
      <point x="285" y="630"/>
      <point x="345" y="630" type="curve" smooth="yes"/>
      <point x="411" y="630"/>
      <point x="450" y="596"/>
      <point x="450" y="541" type="curve" smooth="yes"/>
      <point x="450" y="468"/>
      <point x="400" y="410"/>
      <point x="300" y="327" type="curve" smooth="yes"/>
      <point x="17" y="97" type="line"/>
    </contour>
  </outline>
</glyph>
<glyph name="three" format="2">
	<unicode hex="0033"/>
	<advance width="578"/>
	<outline>
		<contour>
			<point x="4" y="121" type="line"/>
			<point x="52" y="32"/>
			<point x="151" y="-16"/>
			<point x="252" y="-16" type="curve" smooth="yes"/>
			<point x="404" y="-16"/>
			<point x="525" y="83"/>
			<point x="525" y="219" type="curve" smooth="yes"/>
			<point x="525" y="327"/>
			<point x="443" y="396"/>
			<point x="302" y="396" type="curve" smooth="yes"/>
			<point x="281" y="396" type="line"/>
			<point x="272" y="357" type="line"/>
			<point x="325" y="357" type="line" smooth="yes"/>
			<point x="453" y="357"/>
			<point x="568" y="435"/>
			<point x="568" y="554" type="curve" smooth="yes"/>
			<point x="568" y="668"/>
			<point x="471" y="731"/>
			<point x="356" y="731" type="curve" smooth="yes"/>
			<point x="266" y="731"/>
			<point x="181" y="695"/>
			<point x="117" y="624" type="curve"/>
			<point x="179" y="540" type="line"/>
			<point x="228" y="600"/>
			<point x="283" y="630"/>
			<point x="342" y="630" type="curve" smooth="yes"/>
			<point x="405" y="630"/>
			<point x="446" y="596"/>
			<point x="446" y="538" type="curve" smooth="yes"/>
			<point x="446" y="467"/>
			<point x="376" y="420"/>
			<point x="298" y="420" type="curve" smooth="yes"/>
			<point x="241" y="420" type="line"/>
			<point x="220" y="321" type="line"/>
			<point x="279" y="321" type="line" smooth="yes"/>
			<point x="357" y="321"/>
			<point x="403" y="278"/>
			<point x="403" y="214" type="curve" smooth="yes"/>
			<point x="403" y="136"/>
			<point x="338" y="83"/>
			<point x="260" y="83" type="curve" smooth="yes"/>
			<point x="182" y="83"/>
			<point x="126" y="125"/>
			<point x="92" y="193" type="curve"/>
		</contour>
	</outline>
</glyph>
<glyph name="four" format="1">
  <advance width="646"/>
  <unicode hex="0034"/>
  <outline>
    <contour>
      <point x="24" y="153" type="line"/>
      <point x="582" y="153" type="line"/>
      <point x="603" y="250" type="line"/>
      <point x="105" y="250" type="line"/>
      <point x="111" y="196" type="line"/>
      <point x="509" y="610" type="line"/>
      <point x="470" y="610" type="line"/>
      <point x="340" y="0" type="line"/>
      <point x="457" y="0" type="line"/>
      <point x="608" y="715" type="line"/>
      <point x="492" y="715" type="line"/>
      <point x="45" y="250" type="line"/>
    </contour>
  </outline>
</glyph>
<glyph name="five" format="2">
	<unicode hex="0035"/>
	<advance width="570"/>
	<outline>
		<contour>
			<point x="8" y="121" type="line"/>
			<point x="51" y="37"/>
			<point x="143" y="-16"/>
			<point x="247" y="-16" type="curve" smooth="yes"/>
			<point x="413" y="-16"/>
			<point x="540" y="109"/>
			<point x="540" y="272" type="curve" smooth="yes"/>
			<point x="540" y="396"/>
			<point x="458" y="482"/>
			<point x="342" y="482" type="curve" smooth="yes"/>
			<point x="266" y="482"/>
			<point x="208" y="447"/>
			<point x="166" y="374" type="curve"/>
			<point x="192" y="374" type="line"/>
			<point x="289" y="672" type="line"/>
			<point x="223" y="618" type="line"/>
			<point x="569" y="618" type="line"/>
			<point x="590" y="715" type="line"/>
			<point x="200" y="715" type="line"/>
			<point x="68" y="306" type="line"/>
			<point x="170" y="306" type="line"/>
			<point x="208" y="358"/>
			<point x="253" y="385"/>
			<point x="306" y="385" type="curve" smooth="yes"/>
			<point x="378" y="385"/>
			<point x="422" y="338"/>
			<point x="422" y="261" type="curve" smooth="yes"/>
			<point x="422" y="161"/>
			<point x="346" y="83"/>
			<point x="250" y="83" type="curve" smooth="yes"/>
			<point x="186" y="83"/>
			<point x="128" y="124"/>
			<point x="96" y="193" type="curve"/>
		</contour>
	</outline>
</glyph>
<glyph name="six" format="2">
	<unicode hex="0036"/>
	<advance width="624"/>
	<outline>
		<contour>
			<point x="372" y="476" type="curve" smooth="yes"/>
			<point x="303" y="476"/>
			<point x="246" y="446"/>
			<point x="211" y="391" type="curve"/>
			<point x="217" y="383" type="line"/>
			<point x="279" y="485"/>
			<point x="388" y="582"/>
			<point x="590" y="715" type="curve"/>
			<point x="418" y="715" type="line"/>
			<point x="170" y="547"/>
			<point x="49" y="380"/>
			<point x="49" y="205" type="curve" smooth="yes"/>
			<point x="49" y="74"/>
			<point x="141" y="-16"/>
			<point x="273" y="-16" type="curve" smooth="yes"/>
			<point x="439" y="-16"/>
			<point x="569" y="114"/>
			<point x="569" y="277" type="curve" smooth="yes"/>
			<point x="569" y="392"/>
			<point x="486" y="476"/>
		</contour>
		<contour>
			<point x="331" y="382" type="curve" smooth="yes"/>
			<point x="403" y="382"/>
			<point x="451" y="332"/>
			<point x="451" y="259" type="curve" smooth="yes"/>
			<point x="451" y="162"/>
			<point x="375" y="82"/>
			<point x="284" y="82" type="curve" smooth="yes"/>
			<point x="212" y="82"/>
			<point x="164" y="133"/>
			<point x="164" y="206" type="curve" smooth="yes"/>
			<point x="164" y="303"/>
			<point x="239" y="382"/>
		</contour>
	</outline>
</glyph>
<glyph name="seven" format="1">
  <advance width="592"/>
  <unicode hex="0037"/>
  <outline>
    <contour>
      <point x="32" y="0" type="line"/>
      <point x="169" y="0" type="line"/>
      <point x="615" y="618" type="line"/>
      <point x="636" y="715" type="line"/>
      <point x="154" y="715" type="line"/>
      <point x="133" y="618" type="line"/>
      <point x="529" y="618" type="line"/>
      <point x="528" y="677" type="line"/>
    </contour>
  </outline>
</glyph>
<glyph name="eight" format="2">
	<unicode hex="0038"/>
	<advance width="607"/>
	<outline>
		<contour>
			<point x="386" y="731" type="curve" smooth="yes"/>
			<point x="244" y="731"/>
			<point x="128" y="635"/>
			<point x="128" y="517" type="curve" smooth="yes"/>
			<point x="128" y="439"/>
			<point x="183" y="378"/>
			<point x="269" y="360" type="curve"/>
			<point x="269" y="398" type="line"/>
			<point x="131" y="378"/>
			<point x="34" y="287"/>
			<point x="34" y="176" type="curve" smooth="yes"/>
			<point x="34" y="59"/>
			<point x="125" y="-16"/>
			<point x="267" y="-16" type="curve" smooth="yes"/>
			<point x="429" y="-16"/>
			<point x="553" y="86"/>
			<point x="553" y="220" type="curve" smooth="yes"/>
			<point x="553" y="310"/>
			<point x="491" y="376"/>
			<point x="385" y="398" type="curve"/>
			<point x="386" y="362" type="line"/>
			<point x="505" y="372"/>
			<point x="596" y="459"/>
			<point x="596" y="563" type="curve" smooth="yes"/>
			<point x="596" y="662"/>
			<point x="509" y="731"/>
		</contour>
		<contour>
			<point x="310" y="322" type="curve" smooth="yes"/>
			<point x="385" y="322"/>
			<point x="432" y="283"/>
			<point x="432" y="219" type="curve" smooth="yes"/>
			<point x="432" y="142"/>
			<point x="364" y="82"/>
			<point x="277" y="82" type="curve" smooth="yes"/>
			<point x="202" y="82"/>
			<point x="155" y="122"/>
			<point x="155" y="185" type="curve" smooth="yes"/>
			<point x="155" y="263"/>
			<point x="222" y="322"/>
		</contour>
		<contour>
			<point x="378" y="635" type="curve" smooth="yes"/>
			<point x="440" y="635"/>
			<point x="479" y="599"/>
			<point x="479" y="543" type="curve" smooth="yes"/>
			<point x="479" y="474"/>
			<point x="421" y="419"/>
			<point x="347" y="419" type="curve" smooth="yes"/>
			<point x="284" y="419"/>
			<point x="245" y="455"/>
			<point x="245" y="510" type="curve" smooth="yes"/>
			<point x="245" y="580"/>
			<point x="303" y="635"/>
		</contour>
	</outline>
</glyph>
<glyph name="nine" format="1">
  <advance width="619"/>
  <unicode hex="0039"/>
  <outline>
    <contour>
      <point x="398" y="731" type="curve" smooth="yes"/>
      <point x="234" y="731"/>
      <point x="102" y="602"/>
      <point x="102" y="438" type="curve" smooth="yes"/>
      <point x="102" y="323"/>
      <point x="185" y="239"/>
      <point x="300" y="239" type="curve" smooth="yes"/>
      <point x="368" y="239"/>
      <point x="424" y="268"/>
      <point x="460" y="323" type="curve"/>
      <point x="453" y="331" type="line"/>
      <point x="392" y="231"/>
      <point x="285" y="135"/>
      <point x="81" y="0" type="curve"/>
      <point x="254" y="0" type="line"/>
      <point x="503" y="169"/>
      <point x="623" y="335"/>
      <point x="623" y="510" type="curve" smooth="yes"/>
      <point x="623" y="641"/>
      <point x="531" y="731"/>
    </contour>
    <contour>
      <point x="388" y="633" type="curve" smooth="yes"/>
      <point x="460" y="633"/>
      <point x="508" y="582"/>
      <point x="508" y="509" type="curve" smooth="yes"/>
      <point x="508" y="412"/>
      <point x="433" y="333"/>
      <point x="340" y="333" type="curve" smooth="yes"/>
      <point x="269" y="333"/>
      <point x="221" y="383"/>
      <point x="221" y="456" type="curve" smooth="yes"/>
      <point x="221" y="553"/>
      <point x="296" y="633"/>
    </contour>
  </outline>
</glyph>
<glyph name="less" format="1">
  <advance width="632"/>
  <unicode hex="003C"/>
  <outline>
    <contour>
      <point x="124" y="296" type="line"/>
      <point x="482" y="120" type="line"/>
      <point x="504" y="224" type="line"/>
      <point x="224" y="356" type="line"/>
      <point x="560" y="486" type="line"/>
      <point x="582" y="598" type="line"/>
      <point x="150" y="423" type="line"/>
    </contour>
  </outline>
</glyph>
<glyph name="equal" format="2">
	<unicode hex="003D"/>
	<advance width="632"/>
	<outline>
		<contour>
			<point x="112" y="201" type="line"/>
			<point x="498" y="201" type="line"/>
			<point x="518" y="297" type="line"/>
			<point x="133" y="297" type="line"/>
		</contour>
		<contour>
			<point x="158" y="417" type="line"/>
			<point x="544" y="417" type="line"/>
			<point x="564" y="513" type="line"/>
			<point x="178" y="513" type="line"/>
		</contour>
	</outline>
</glyph>
<glyph name="greater" format="1">
  <advance width="632"/>
  <unicode hex="003E"/>
  <outline>
    <contour>
      <point x="549" y="422" type="line"/>
      <point x="191" y="598" type="line"/>
      <point x="168" y="494" type="line"/>
      <point x="449" y="363" type="line"/>
      <point x="112" y="232" type="line"/>
      <point x="91" y="120" type="line"/>
      <point x="522" y="295" type="line"/>
    </contour>
  </outline>
</glyph>
<glyph name="question" format="1">
  <advance width="574"/>
  <unicode hex="003F"/>
  <outline>
    <contour>
      <point x="304" y="219" type="line"/>
      <point x="316" y="282"/>
      <point x="341" y="313"/>
      <point x="408" y="350" type="curve" smooth="yes"/>
      <point x="521" y="411"/>
      <point x="572" y="475"/>
      <point x="572" y="562" type="curve" smooth="yes"/>
      <point x="572" y="654"/>
      <point x="492" y="731"/>
      <point x="373" y="731" type="curve" smooth="yes"/>
      <point x="274" y="731"/>
      <point x="189" y="688"/>
      <point x="114" y="599" type="curve"/>
      <point x="183" y="522" type="line"/>
      <point x="237" y="592"/>
      <point x="299" y="630"/>
      <point x="360" y="630" type="curve" smooth="yes"/>
      <point x="420" y="630"/>
      <point x="456" y="595"/>
      <point x="456" y="545" type="curve" smooth="yes"/>
      <point x="456" y="499"/>
      <point x="427" y="461"/>
      <point x="364" y="427" type="curve" smooth="yes"/>
      <point x="261" y="370"/>
      <point x="230" y="325"/>
      <point x="218" y="219" type="curve"/>
    </contour>
    <contour>
      <point x="158" y="51" type="curve" smooth="yes"/>
      <point x="158" y="14"/>
      <point x="186" y="-12"/>
      <point x="223" y="-12" type="curve" smooth="yes"/>
      <point x="275" y="-12"/>
      <point x="312" y="24"/>
      <point x="312" y="76" type="curve" smooth="yes"/>
      <point x="312" y="113"/>
      <point x="285" y="141"/>
      <point x="248" y="141" type="curve" smooth="yes"/>
      <point x="196" y="141"/>
      <point x="158" y="103"/>
    </contour>
  </outline>
</glyph>
<glyph name="at" format="2">
	<unicode hex="0040"/>
	<advance width="1002"/>
	<outline>
		<contour>
			<point x="644" y="-25" type="line"/>
			<point x="583" y="-74"/>
			<point x="505" y="-99"/>
			<point x="428" y="-99" type="curve" smooth="yes"/>
			<point x="270" y="-99"/>
			<point x="167" y="11"/>
			<point x="167" y="188" type="curve" smooth="yes"/>
			<point x="167" y="433"/>
			<point x="346" y="636"/>
			<point x="573" y="636" type="curve" smooth="yes"/>
			<point x="739" y="636"/>
			<point x="842" y="537"/>
			<point x="842" y="369" type="curve" smooth="yes"/>
			<point x="842" y="236"/>
			<point x="794" y="134"/>
			<point x="728" y="134" type="curve" smooth="yes"/>
			<point x="695" y="134"/>
			<point x="679" y="156"/>
			<point x="679" y="188" type="curve" smooth="yes"/>
			<point x="679" y="203"/>
			<point x="681" y="216"/>
			<point x="684" y="229" type="curve" smooth="yes"/>
			<point x="733" y="464" type="line"/>
			<point x="642" y="464" type="line"/>
			<point x="619" y="351" type="line"/>
			<point x="638" y="350" type="line"/>
			<point x="634" y="429"/>
			<point x="584" y="478"/>
			<point x="506" y="478" type="curve" smooth="yes"/>
			<point x="384" y="478"/>
			<point x="281" y="361"/>
			<point x="281" y="222" type="curve" smooth="yes"/>
			<point x="281" y="113"/>
			<point x="343" y="44"/>
			<point x="442" y="44" type="curve" smooth="yes"/>
			<point x="527" y="44"/>
			<point x="595" y="109"/>
			<point x="631" y="230" type="curve"/>
			<point x="600" y="266" type="line"/>
			<point x="569" y="172"/>
			<point x="518" y="126"/>
			<point x="465" y="126" type="curve" smooth="yes"/>
			<point x="411" y="126"/>
			<point x="380" y="164"/>
			<point x="380" y="228" type="curve" smooth="yes"/>
			<point x="380" y="324"/>
			<point x="442" y="396"/>
			<point x="513" y="396" type="curve" smooth="yes"/>
			<point x="567" y="396"/>
			<point x="598" y="360"/>
			<point x="598" y="290" type="curve" smooth="yes"/>
			<point x="598" y="265"/>
			<point x="595" y="236"/>
			<point x="590" y="215" type="curve" smooth="yes"/>
			<point x="587" y="197"/>
			<point x="586" y="181"/>
			<point x="586" y="167" type="curve" smooth="yes"/>
			<point x="586" y="94"/>
			<point x="635" y="44"/>
			<point x="718" y="44" type="curve" smooth="yes"/>
			<point x="851" y="44"/>
			<point x="946" y="182"/>
			<point x="946" y="368" type="curve" smooth="yes"/>
			<point x="946" y="587"/>
			<point x="797" y="731"/>
			<point x="579" y="731" type="curve" smooth="yes"/>
			<point x="288" y="731"/>
			<point x="64" y="481"/>
			<point x="64" y="174" type="curve" smooth="yes"/>
			<point x="64" y="-47"/>
			<point x="211" y="-194"/>
			<point x="412" y="-194" type="curve" smooth="yes"/>
			<point x="522" y="-194"/>
			<point x="623" y="-159"/>
			<point x="693" y="-106" type="curve"/>
		</contour>
	</outline>
</glyph>
<glyph name="A" format="2">
	<unicode hex="0041"/>
	<advance width="725"/>
	<outline>
		<contour>
			<point x="150" y="168" type="line"/>
			<point x="542" y="168" type="line"/>
			<point x="564" y="270" type="line"/>
			<point x="172" y="270" type="line"/>
		</contour>
		<contour>
			<point x="-23" y="0" type="line"/>
			<point x="106" y="0" type="line"/>
			<point x="469" y="632" type="line"/>
			<point x="432" y="632" type="line"/>
			<point x="527" y="0" type="line"/>
			<point x="648" y="0" type="line"/>
			<point x="530" y="715" type="line"/>
			<point x="398" y="715" type="line"/>
		</contour>
	</outline>
	<anchor name="ogonek.UC" x="523" y="-30"/>
	<anchor name="top.UC" x="460" y="750"/>
</glyph>
<glyph name="B" format="1">
  <advance width="666"/>
  <unicode hex="0042"/>
  <outline>
    <contour>
      <point x="41" y="0" type="line"/>
      <point x="318" y="0" type="line" smooth="yes"/>
      <point x="488" y="0"/>
      <point x="603" y="90"/>
      <point x="603" y="225" type="curve" smooth="yes"/>
      <point x="603" y="329"/>
      <point x="515" y="399"/>
      <point x="384" y="399" type="curve" smooth="yes"/>
      <point x="253" y="399" type="line"/>
      <point x="243" y="349" type="line"/>
      <point x="384" y="349" type="line" smooth="yes"/>
      <point x="530" y="349"/>
      <point x="634" y="432"/>
      <point x="634" y="548" type="curve" smooth="yes"/>
      <point x="634" y="649"/>
      <point x="559" y="715"/>
      <point x="444" y="715" type="curve" smooth="yes"/>
      <point x="192" y="715" type="line"/>
    </contour>
    <contour>
      <point x="181" y="101" type="line"/>
      <point x="290" y="614" type="line"/>
      <point x="420" y="614" type="line" smooth="yes"/>
      <point x="478" y="614"/>
      <point x="513" y="581"/>
      <point x="513" y="528" type="curve" smooth="yes"/>
      <point x="513" y="462"/>
      <point x="458" y="417"/>
      <point x="379" y="417" type="curve" smooth="yes"/>
      <point x="238" y="417" type="line"/>
      <point x="217" y="317" type="line"/>
      <point x="382" y="317" type="line" smooth="yes"/>
      <point x="449" y="317"/>
      <point x="484" y="284"/>
      <point x="484" y="222" type="curve" smooth="yes"/>
      <point x="484" y="149"/>
      <point x="425" y="101"/>
      <point x="336" y="101" type="curve" smooth="yes"/>
    </contour>
  </outline>
</glyph>
<glyph name="C" format="2">
	<unicode hex="0043"/>
	<advance width="708"/>
	<outline>
		<contour>
			<point x="595" y="203" type="line"/>
			<point x="538" y="130"/>
			<point x="465" y="90"/>
			<point x="386" y="90" type="curve" smooth="yes"/>
			<point x="272" y="90"/>
			<point x="195" y="175"/>
			<point x="195" y="300" type="curve" smooth="yes"/>
			<point x="195" y="479"/>
			<point x="319" y="625"/>
			<point x="471" y="625" type="curve" smooth="yes"/>
			<point x="550" y="625"/>
			<point x="605" y="593"/>
			<point x="648" y="522" type="curve"/>
			<point x="738" y="596" type="line"/>
			<point x="681" y="683"/>
			<point x="589" y="731"/>
			<point x="475" y="731" type="curve" smooth="yes"/>
			<point x="254" y="731"/>
			<point x="70" y="536"/>
			<point x="70" y="300" type="curve" smooth="yes"/>
			<point x="70" y="107"/>
			<point x="193" y="-16"/>
			<point x="386" y="-16" type="curve" smooth="yes"/>
			<point x="490" y="-16"/>
			<point x="589" y="31"/>
			<point x="662" y="116" type="curve"/>
		</contour>
	</outline>
	<anchor name="bottom.UC" x="366" y="-50"/>
	<anchor name="top.UC" x="476" y="750"/>
</glyph>
<glyph name="D" format="2">
	<unicode hex="0044"/>
	<advance width="748"/>
	<outline>
		<contour>
			<point x="41" y="0" type="line"/>
			<point x="284" y="0" type="line" smooth="yes"/>
			<point x="542" y="0"/>
			<point x="723" y="176"/>
			<point x="723" y="427" type="curve" smooth="yes"/>
			<point x="723" y="603"/>
			<point x="607" y="715"/>
			<point x="423" y="715" type="curve" smooth="yes"/>
			<point x="192" y="715" type="line"/>
		</contour>
		<contour>
			<point x="181" y="103" type="line"/>
			<point x="290" y="612" type="line"/>
			<point x="407" y="612" type="line" smooth="yes"/>
			<point x="526" y="612"/>
			<point x="598" y="538"/>
			<point x="598" y="416" type="curve" smooth="yes"/>
			<point x="598" y="233"/>
			<point x="473" y="103"/>
			<point x="296" y="103" type="curve" smooth="yes"/>
		</contour>
	</outline>
	<anchor name="top.UC" x="424" y="750"/>
</glyph>
<glyph name="E" format="1">
  <advance width="599"/>
  <unicode hex="0045"/>
  <outline>
    <contour>
      <point x="41" y="0" type="line"/>
      <point x="513" y="0" type="line"/>
      <point x="535" y="102" type="line"/>
      <point x="182" y="102" type="line"/>
      <point x="290" y="613" type="line"/>
      <point x="629" y="613" type="line"/>
      <point x="650" y="715" type="line"/>
      <point x="192" y="715" type="line"/>
    </contour>
    <contour>
      <point x="216" y="312" type="line"/>
      <point x="547" y="312" type="line"/>
      <point x="569" y="414" type="line"/>
      <point x="238" y="414" type="line"/>
    </contour>
    <contour>
      <point x="402" y="-30" type="move" name="ogonek.UC"/>
    </contour>
    <contour>
      <point x="428" y="750" type="move" name="top.UC"/>
    </contour>
  </outline>
</glyph>
<glyph name="F" format="2">
	<unicode hex="0046"/>
	<advance width="572"/>
	<outline>
		<contour>
			<point x="41" y="0" type="line"/>
			<point x="160" y="0" type="line"/>
			<point x="290" y="613" type="line"/>
			<point x="615" y="613" type="line"/>
			<point x="637" y="715" type="line"/>
			<point x="192" y="715" type="line"/>
		</contour>
		<contour>
			<point x="215" y="309" type="line"/>
			<point x="532" y="309" type="line"/>
			<point x="554" y="411" type="line"/>
			<point x="237" y="411" type="line"/>
		</contour>
	</outline>
</glyph>
<glyph name="G" format="2">
	<unicode hex="0047"/>
	<advance width="762"/>
	<outline>
		<contour>
			<point x="547" y="0" type="line"/>
			<point x="658" y="0" type="line"/>
			<point x="740" y="386" type="line"/>
			<point x="431" y="386" type="line"/>
			<point x="410" y="288" type="line"/>
			<point x="650" y="288" type="line"/>
			<point x="615" y="326" type="line"/>
			<point x="575" y="138" type="line"/>
			<point x="611" y="225" type="line"/>
			<point x="563" y="141"/>
			<point x="480" y="90"/>
			<point x="386" y="90" type="curve" smooth="yes"/>
			<point x="272" y="90"/>
			<point x="195" y="175"/>
			<point x="195" y="300" type="curve" smooth="yes"/>
			<point x="195" y="480"/>
			<point x="320" y="625"/>
			<point x="475" y="625" type="curve" smooth="yes"/>
			<point x="554" y="625"/>
			<point x="612" y="592"/>
			<point x="656" y="522" type="curve"/>
			<point x="744" y="594" type="line"/>
			<point x="687" y="682"/>
			<point x="593" y="731"/>
			<point x="479" y="731" type="curve" smooth="yes"/>
			<point x="254" y="731"/>
			<point x="70" y="537"/>
			<point x="70" y="300" type="curve" smooth="yes"/>
			<point x="70" y="111"/>
			<point x="188" y="-16"/>
			<point x="366" y="-16" type="curve" smooth="yes"/>
			<point x="458" y="-16"/>
			<point x="535" y="24"/>
			<point x="592" y="102" type="curve"/>
			<point x="568" y="100" type="line"/>
		</contour>
	</outline>
	<anchor name="bottom.UC" x="369" y="-50"/>
	<anchor name="top.UC" x="480" y="750"/>
</glyph>
<glyph name="H" format="1">
  <advance width="744"/>
  <unicode hex="0048"/>
  <outline>
    <contour>
      <point x="479" y="0" type="line"/>
      <point x="598" y="0" type="line"/>
      <point x="749" y="715" type="line"/>
      <point x="630" y="715" type="line"/>
    </contour>
    <contour>
      <point x="41" y="0" type="line"/>
      <point x="160" y="0" type="line"/>
      <point x="311" y="715" type="line"/>
      <point x="192" y="715" type="line"/>
    </contour>
    <contour>
      <point x="217" y="317" type="line"/>
      <point x="555" y="317" type="line"/>
      <point x="577" y="420" type="line"/>
      <point x="239" y="420" type="line"/>
    </contour>
    <contour>
      <point x="317" y="-50" type="move" name="bottom.UC"/>
    </contour>
    <contour>
      <point x="475" y="750" type="move" name="top.UC"/>
    </contour>
  </outline>
</glyph>
<glyph name="I" format="2">
	<unicode hex="0049"/>
	<advance width="306"/>
	<outline>
		<contour>
			<point x="41" y="0" type="line"/>
			<point x="160" y="0" type="line"/>
			<point x="311" y="715" type="line"/>
			<point x="192" y="715" type="line"/>
		</contour>
	</outline>
	<anchor name="ogonek.UC" x="49" y="-30"/>
	<anchor name="top.UC" x="260" y="750"/>
</glyph>
<glyph name="J" format="2">
	<unicode hex="004A"/>
	<advance width="643"/>
	<outline>
		<contour>
			<point x="35" y="239" type="line"/>
			<point x="33" y="221"/>
			<point x="32" y="208"/>
			<point x="32" y="192" type="curve" smooth="yes"/>
			<point x="32" y="60"/>
			<point x="132" y="-16"/>
			<point x="255" y="-16" type="curve" smooth="yes"/>
			<point x="433" y="-16"/>
			<point x="528" y="87"/>
			<point x="565" y="263" type="curve" smooth="yes"/>
			<point x="661" y="715" type="line"/>
			<point x="542" y="715" type="line"/>
			<point x="449" y="278" type="line" smooth="yes"/>
			<point x="423" y="153"/>
			<point x="365" y="91"/>
			<point x="270" y="91" type="curve" smooth="yes"/>
			<point x="192" y="91"/>
			<point x="150" y="134"/>
			<point x="150" y="215" type="curve" smooth="yes"/>
			<point x="150" y="227"/>
			<point x="150" y="242"/>
			<point x="152" y="253" type="curve"/>
		</contour>
	</outline>
	<anchor name="top.UC" x="606" y="750"/>
</glyph>
<glyph name="K" format="2">
	<unicode hex="004B"/>
	<advance width="706"/>
	<outline>
		<contour>
			<point x="41" y="0" type="line"/>
			<point x="160" y="0" type="line"/>
			<point x="311" y="715" type="line"/>
			<point x="192" y="715" type="line"/>
		</contour>
		<contour>
			<point x="484" y="0" type="line"/>
			<point x="627" y="0" type="line"/>
			<point x="343" y="393" type="line"/>
			<point x="340" y="352" type="line"/>
			<point x="745" y="715" type="line"/>
			<point x="599" y="715" type="line"/>
			<point x="229" y="380" type="line"/>
			<point x="217" y="380" type="line"/>
		</contour>
	</outline>
	<anchor name="bottom.UC" x="308" y="-50"/>
	<anchor name="top.UC" x="438" y="750"/>
</glyph>
<glyph name="L" format="2">
	<unicode hex="004C"/>
	<advance width="571"/>
	<outline>
		<contour>
			<point x="41" y="0" type="line"/>
			<point x="485" y="0" type="line"/>
			<point x="507" y="105" type="line"/>
			<point x="182" y="105" type="line"/>
			<point x="311" y="715" type="line"/>
			<point x="192" y="715" type="line"/>
		</contour>
	</outline>
	<anchor name="bottom.UC" x="270" y="-50"/>
	<anchor name="top.UC" x="261" y="750"/>
	<anchor name="top_right" x="435" y="540"/>
</glyph>
<glyph name="M" format="2">
	<unicode hex="004D"/>
	<advance width="906"/>
	<outline>
		<contour>
			<point x="40" y="0" type="line"/>
			<point x="155" y="0" type="line"/>
			<point x="296" y="662" type="line"/>
			<point x="239" y="662" type="line"/>
			<point x="371" y="73" type="line"/>
			<point x="456" y="73" type="line"/>
			<point x="847" y="662" type="line"/>
			<point x="784" y="662" type="line"/>
			<point x="644" y="0" type="line"/>
			<point x="760" y="0" type="line"/>
			<point x="911" y="715" type="line"/>
			<point x="772" y="715" type="line"/>
			<point x="401" y="152" type="line"/>
			<point x="453" y="152" type="line"/>
			<point x="331" y="715" type="line"/>
			<point x="192" y="715" type="line"/>
		</contour>
	</outline>
</glyph>
<glyph name="N" format="1">
  <advance width="755"/>
  <unicode hex="004E"/>
  <outline>
    <contour>
      <point x="41" y="0" type="line"/>
      <point x="157" y="0" type="line"/>
      <point x="283" y="596" type="line"/>
      <point x="246" y="596" type="line"/>
      <point x="484" y="0" type="line"/>
      <point x="608" y="0" type="line"/>
      <point x="760" y="715" type="line"/>
      <point x="644" y="715" type="line"/>
      <point x="517" y="117" type="line"/>
      <point x="555" y="117" type="line"/>
      <point x="317" y="715" type="line"/>
      <point x="192" y="715" type="line"/>
    </contour>
    <contour>
      <point x="315" y="-50" type="move" name="bottom.UC"/>
    </contour>
    <contour>
      <point x="467" y="750" type="move" name="top.UC"/>
    </contour>
  </outline>
</glyph>
<glyph name="O" format="1">
  <advance width="815"/>
  <unicode hex="004F"/>
  <outline>
    <contour>
      <point x="481" y="731" type="curve"/>
      <point x="244" y="731"/>
      <point x="71" y="520"/>
      <point x="71" y="292" type="curve" smooth="yes"/>
      <point x="71" y="108"/>
      <point x="190" y="-16"/>
      <point x="379" y="-16" type="curve"/>
      <point x="615" y="-16"/>
      <point x="788" y="195"/>
      <point x="788" y="423" type="curve" smooth="yes"/>
      <point x="788" y="607"/>
      <point x="669" y="731"/>
    </contour>
    <contour>
      <point x="473" y="624" type="curve"/>
      <point x="590" y="624"/>
      <point x="665" y="541"/>
      <point x="665" y="416" type="curve" smooth="yes"/>
      <point x="665" y="249"/>
      <point x="545" y="91"/>
      <point x="386" y="91" type="curve"/>
      <point x="270" y="91"/>
      <point x="194" y="174"/>
      <point x="194" y="299" type="curve" smooth="yes"/>
      <point x="194" y="466"/>
      <point x="315" y="624"/>
    </contour>
    <contour>
      <point x="486" y="750" type="move" name="top.UC"/>
    </contour>
  </outline>
</glyph>
<glyph name="P" format="2">
	<unicode hex="0050"/>
	<advance width="634"/>
	<outline>
		<contour>
			<point x="41" y="0" type="line"/>
			<point x="160" y="0" type="line"/>
			<point x="289" y="613" type="line"/>
			<point x="420" y="613" type="line" smooth="yes"/>
			<point x="489" y="613"/>
			<point x="525" y="579"/>
			<point x="525" y="524" type="curve" smooth="yes"/>
			<point x="525" y="444"/>
			<point x="471" y="390"/>
			<point x="374" y="390" type="curve" smooth="yes"/>
			<point x="232" y="390" type="line"/>
			<point x="210" y="288" type="line"/>
			<point x="357" y="288" type="line" smooth="yes"/>
			<point x="535" y="288"/>
			<point x="646" y="389"/>
			<point x="646" y="530" type="curve" smooth="yes"/>
			<point x="646" y="640"/>
			<point x="574" y="715"/>
			<point x="440" y="715" type="curve" smooth="yes"/>
			<point x="192" y="715" type="line"/>
		</contour>
	</outline>
</glyph>
<glyph name="Q" format="2">
	<unicode hex="0051"/>
	<advance width="815"/>
	<outline>
		<contour>
			<point x="503" y="298" type="line"/>
			<point x="423" y="240" type="line"/>
			<point x="632" y="-53" type="line"/>
			<point x="713" y="5" type="line"/>
		</contour>
		<contour>
			<point x="481" y="731" type="curve" smooth="yes"/>
			<point x="256" y="731"/>
			<point x="71" y="533"/>
			<point x="71" y="292" type="curve" smooth="yes"/>
			<point x="71" y="106"/>
			<point x="192" y="-16"/>
			<point x="379" y="-16" type="curve" smooth="yes"/>
			<point x="603" y="-16"/>
			<point x="788" y="182"/>
			<point x="788" y="423" type="curve" smooth="yes"/>
			<point x="788" y="609"/>
			<point x="668" y="731"/>
		</contour>
		<contour>
			<point x="473" y="624" type="curve" smooth="yes"/>
			<point x="589" y="624"/>
			<point x="665" y="542"/>
			<point x="665" y="416" type="curve" smooth="yes"/>
			<point x="665" y="240"/>
			<point x="537" y="91"/>
			<point x="386" y="91" type="curve" smooth="yes"/>
			<point x="270" y="91"/>
			<point x="194" y="173"/>
			<point x="194" y="299" type="curve" smooth="yes"/>
			<point x="194" y="475"/>
			<point x="322" y="624"/>
		</contour>
	</outline>
</glyph>
<glyph name="R" format="2">
	<unicode hex="0052"/>
	<advance width="692"/>
	<outline>
		<contour>
			<point x="469" y="0" type="line"/>
			<point x="606" y="0" type="line"/>
			<point x="425" y="333" type="line"/>
			<point x="298" y="333" type="line"/>
		</contour>
		<contour>
			<point x="41" y="0" type="line"/>
			<point x="160" y="0" type="line"/>
			<point x="289" y="613" type="line"/>
			<point x="421" y="613" type="line" smooth="yes"/>
			<point x="487" y="613"/>
			<point x="525" y="580"/>
			<point x="525" y="522" type="curve" smooth="yes"/>
			<point x="525" y="441"/>
			<point x="466" y="390"/>
			<point x="374" y="390" type="curve" smooth="yes"/>
			<point x="232" y="390" type="line"/>
			<point x="210" y="288" type="line"/>
			<point x="359" y="288" type="line" smooth="yes"/>
			<point x="529" y="288"/>
			<point x="645" y="385"/>
			<point x="645" y="529" type="curve" smooth="yes"/>
			<point x="645" y="646"/>
			<point x="568" y="715"/>
			<point x="436" y="715" type="curve" smooth="yes"/>
			<point x="192" y="715" type="line"/>
		</contour>
	</outline>
	<anchor name="top.UC" x="383" y="750"/>
</glyph>
<glyph name="S" format="1">
  <advance width="650"/>
  <unicode hex="0053"/>
  <outline>
    <contour>
      <point x="13" y="123" type="line"/>
      <point x="68" y="39"/>
      <point x="187" y="-16"/>
      <point x="312" y="-16" type="curve" smooth="yes"/>
      <point x="479" y="-16"/>
      <point x="597" y="81"/>
      <point x="597" y="220" type="curve" smooth="yes"/>
      <point x="597" y="322"/>
      <point x="529" y="384"/>
      <point x="378" y="421" type="curve" smooth="yes"/>
      <point x="273" y="446"/>
      <point x="238" y="473"/>
      <point x="238" y="521" type="curve" smooth="yes"/>
      <point x="238" y="583"/>
      <point x="300" y="627"/>
      <point x="385" y="627" type="curve" smooth="yes"/>
      <point x="468" y="627"/>
      <point x="533" y="593"/>
      <point x="582" y="524" type="curve"/>
      <point x="667" y="595" type="line"/>
      <point x="612" y="681"/>
      <point x="510" y="731"/>
      <point x="391" y="731" type="curve" smooth="yes"/>
      <point x="232" y="731"/>
      <point x="116" y="634"/>
      <point x="116" y="503" type="curve" smooth="yes"/>
      <point x="116" y="406"/>
      <point x="180" y="350"/>
      <point x="331" y="313" type="curve" smooth="yes"/>
      <point x="436" y="287"/>
      <point x="473" y="259"/>
      <point x="473" y="204" type="curve" smooth="yes"/>
      <point x="473" y="134"/>
      <point x="411" y="88"/>
      <point x="317" y="88" type="curve" smooth="yes"/>
      <point x="230" y="88"/>
      <point x="151" y="127"/>
      <point x="100" y="196" type="curve"/>
    </contour>
    <contour>
      <point x="303" y="-50" type="move" name="bottom.UC"/>
    </contour>
    <contour>
      <point x="399" y="750" type="move" name="top.UC"/>
    </contour>
  </outline>
</glyph>
<glyph name="T" format="2">
	<unicode hex="0054"/>
	<advance width="601"/>
	<outline>
		<contour>
			<point x="189" y="0" type="line"/>
			<point x="308" y="0" type="line"/>
			<point x="439" y="621" type="line"/>
			<point x="320" y="621" type="line"/>
		</contour>
		<contour>
			<point x="111" y="611" type="line"/>
			<point x="644" y="611" type="line"/>
			<point x="666" y="715" type="line"/>
			<point x="133" y="715" type="line"/>
		</contour>
	</outline>
	<anchor name="bottom.UC" x="232" y="-50"/>
	<anchor name="top.UC" x="398" y="750"/>
</glyph>
<glyph name="U" format="2">
	<unicode hex="0055"/>
	<advance width="720"/>
	<outline>
		<contour>
			<point x="88" y="282" type="line" smooth="yes"/>
			<point x="82" y="254"/>
			<point x="79" y="227"/>
			<point x="79" y="202" type="curve" smooth="yes"/>
			<point x="79" y="63"/>
			<point x="166" y="-16"/>
			<point x="323" y="-16" type="curve" smooth="yes"/>
			<point x="500" y="-16"/>
			<point x="605" y="90"/>
			<point x="646" y="284" type="curve" smooth="yes"/>
			<point x="738" y="715" type="line"/>
			<point x="620" y="715" type="line"/>
			<point x="528" y="282" type="line" smooth="yes"/>
			<point x="503" y="163"/>
			<point x="438" y="91"/>
			<point x="334" y="91" type="curve" smooth="yes"/>
			<point x="242" y="91"/>
			<point x="199" y="137"/>
			<point x="199" y="217" type="curve" smooth="yes"/>
			<point x="199" y="235"/>
			<point x="202" y="260"/>
			<point x="207" y="282" type="curve" smooth="yes"/>
			<point x="298" y="715" type="line"/>
			<point x="179" y="715" type="line"/>
		</contour>
	</outline>
	<anchor name="ogonek.UC.round" x="336" y="-30"/>
	<anchor name="top.UC" x="468" y="750"/>
</glyph>
<glyph name="V" format="2">
	<unicode hex="0056"/>
	<advance width="713"/>
	<outline>
		<contour>
			<point x="243" y="0" type="line"/>
			<point x="364" y="0" type="line"/>
			<point x="774" y="715" type="line"/>
			<point x="647" y="715" type="line"/>
			<point x="303" y="89" type="line"/>
			<point x="338" y="89" type="line"/>
			<point x="262" y="715" type="line"/>
			<point x="137" y="715" type="line"/>
		</contour>
	</outline>
</glyph>
<glyph name="W" format="1">
  <advance width="998"/>
  <unicode hex="0057"/>
  <outline>
    <contour>
      <point x="181" y="0" type="line"/>
      <point x="308" y="0" type="line"/>
      <point x="579" y="567" type="line"/>
      <point x="562" y="567" type="line"/>
      <point x="586" y="0" type="line"/>
      <point x="715" y="0" type="line"/>
      <point x="1057" y="715" type="line"/>
      <point x="928" y="715" type="line"/>
      <point x="649" y="97" type="line"/>
      <point x="681" y="97" type="line"/>
      <point x="654" y="715" type="line"/>
      <point x="544" y="715" type="line"/>
      <point x="249" y="97" type="line"/>
      <point x="281" y="97" type="line"/>
      <point x="261" y="715" type="line"/>
      <point x="139" y="715" type="line"/>
    </contour>
    <contour>
      <point x="602" y="750" type="move" name="top.UC"/>
    </contour>
  </outline>
</glyph>
<glyph name="X" format="1">
  <advance width="709"/>
  <unicode hex="0058"/>
  <outline>
    <contour>
      <point x="-18" y="0" type="line"/>
      <point x="130" y="0" type="line"/>
      <point x="390" y="312" type="line"/>
      <point x="351" y="312" type="line"/>
      <point x="488" y="0" type="line"/>
      <point x="621" y="0" type="line"/>
      <point x="440" y="390" type="line"/>
      <point x="438" y="348" type="line"/>
      <point x="749" y="715" type="line"/>
      <point x="607" y="715" type="line"/>
      <point x="374" y="426" type="line"/>
      <point x="410" y="426" type="line"/>
      <point x="290" y="715" type="line"/>
      <point x="158" y="715" type="line"/>
      <point x="323" y="348" type="line"/>
      <point x="321" y="390" type="line"/>
    </contour>
  </outline>
</glyph>
<glyph name="Y" format="2">
	<unicode hex="0059"/>
	<advance width="686"/>
	<outline>
		<contour>
			<point x="231" y="0" type="line"/>
			<point x="350" y="0" type="line"/>
			<point x="412" y="296" type="line"/>
			<point x="752" y="715" type="line"/>
			<point x="616" y="715" type="line"/>
			<point x="355" y="380" type="line"/>
			<point x="383" y="380" type="line"/>
			<point x="260" y="715" type="line"/>
			<point x="133" y="715" type="line"/>
			<point x="294" y="297" type="line"/>
		</contour>
	</outline>
	<anchor name="top.UC" x="444" y="750"/>
</glyph>
<glyph name="Z" format="1">
  <advance width="595"/>
  <unicode hex="005A"/>
  <outline>
    <contour>
      <point x="-10" y="0" type="line"/>
      <point x="496" y="0" type="line"/>
      <point x="517" y="103" type="line"/>
      <point x="158" y="103" type="line"/>
      <point x="613" y="612" type="line"/>
      <point x="635" y="715" type="line"/>
      <point x="146" y="715" type="line"/>
      <point x="123" y="612" type="line"/>
      <point x="468" y="612" type="line"/>
      <point x="13" y="103" type="line"/>
    </contour>
    <contour>
      <point x="391" y="750" type="move" name="top.UC"/>
    </contour>
  </outline>
</glyph>
<glyph name="bracketleft" format="1">
  <advance width="318"/>
  <unicode hex="005B"/>
  <outline>
    <contour>
      <point x="-5" y="-129" type="line"/>
      <point x="209" y="-129" type="line"/>
      <point x="228" y="-36" type="line"/>
      <point x="128" y="-36" type="line"/>
      <point x="270" y="638" type="line"/>
      <point x="371" y="638" type="line"/>
      <point x="391" y="731" type="line"/>
      <point x="177" y="731" type="line"/>
    </contour>
  </outline>
</glyph>
<glyph name="backslash" format="1">
  <advance width="489"/>
  <unicode hex="005C"/>
  <outline>
    <contour>
      <point x="384" y="0" type="line"/>
      <point x="266" y="731" type="line"/>
      <point x="154" y="731" type="line"/>
      <point x="272" y="0" type="line"/>
    </contour>
  </outline>
</glyph>
<glyph name="bracketright" format="1">
  <advance width="318"/>
  <unicode hex="005D"/>
  <outline>
    <contour>
      <point x="-50" y="-129" type="line"/>
      <point x="163" y="-129" type="line"/>
      <point x="345" y="731" type="line"/>
      <point x="132" y="731" type="line"/>
      <point x="113" y="638" type="line"/>
      <point x="212" y="638" type="line"/>
      <point x="70" y="-36" type="line"/>
      <point x="-31" y="-36" type="line"/>
    </contour>
  </outline>
</glyph>
<glyph name="asciicircum" format="1">
  <advance width="632"/>
  <unicode hex="005E"/>
  <outline>
    <contour>
      <point x="105" y="354" type="line"/>
      <point x="220" y="354" type="line"/>
      <point x="454" y="715" type="line"/>
      <point x="346" y="715" type="line"/>
    </contour>
    <contour>
      <point x="453" y="354" type="line"/>
      <point x="562" y="354" type="line"/>
      <point x="472" y="715" type="line"/>
      <point x="372" y="715" type="line"/>
    </contour>
  </outline>
</glyph>
<glyph name="underscore" format="2">
	<unicode hex="005F"/>
	<advance width="450"/>
	<outline>
		<contour>
			<point x="-86" y="-144" type="line"/>
			<point x="368" y="-144" type="line"/>
			<point x="389" y="-50" type="line"/>
			<point x="-66" y="-50" type="line"/>
		</contour>
	</outline>
</glyph>
<glyph name="a" format="1">
  <advance width="550"/>
  <unicode hex="0061"/>
  <outline>
    <contour>
      <point x="330" y="0" type="line"/>
      <point x="433" y="0" type="line"/>
      <point x="493" y="282" type="line" smooth="yes"/>
      <point x="497" y="303"/>
      <point x="500" y="327"/>
      <point x="500" y="346" type="curve" smooth="yes"/>
      <point x="500" y="452"/>
      <point x="432" y="516"/>
      <point x="308" y="516" type="curve" smooth="yes"/>
      <point x="224" y="516"/>
      <point x="139" y="486"/>
      <point x="84" y="430" type="curve"/>
      <point x="143" y="356" type="line"/>
      <point x="185" y="402"/>
      <point x="242" y="424"/>
      <point x="296" y="424" type="curve" smooth="yes"/>
      <point x="375" y="424"/>
      <point x="404" y="377"/>
      <point x="386" y="292" type="curve" smooth="yes"/>
      <point x="349" y="114" type="line"/>
      <point x="352" y="102" type="line"/>
    </contour>
    <contour>
      <point x="273" y="310" type="line" smooth="yes"/>
      <point x="112" y="310"/>
      <point x="14" y="242"/>
      <point x="14" y="135" type="curve" smooth="yes"/>
      <point x="14" y="45"/>
      <point x="83" y="-16"/>
      <point x="178" y="-16" type="curve" smooth="yes"/>
      <point x="293" y="-16"/>
      <point x="377" y="74"/>
      <point x="412" y="229" type="curve"/>
      <point x="387" y="247" type="line"/>
      <point x="355" y="139"/>
      <point x="288" y="72"/>
      <point x="213" y="72" type="curve" smooth="yes"/>
      <point x="162" y="72"/>
      <point x="131" y="101"/>
      <point x="131" y="143" type="curve" smooth="yes"/>
      <point x="131" y="199"/>
      <point x="182" y="232"/>
      <point x="271" y="232" type="curve" smooth="yes"/>
      <point x="385" y="232" type="line"/>
      <point x="400" y="310" type="line"/>
    </contour>
    <contour>
      <point x="335" y="-30" type="move" name="ogonek.LC"/>
    </contour>
    <contour>
      <point x="317" y="544" type="move" name="top.LC"/>
    </contour>
  </outline>
</glyph>
<glyph name="b" format="1">
  <advance width="628"/>
  <unicode hex="0062"/>
  <outline>
    <contour>
      <point x="22" y="0" type="line"/>
      <point x="138" y="0" type="line"/>
      <point x="175" y="172" type="line" smooth="yes"/>
      <point x="209" y="333"/>
      <point x="272" y="418"/>
      <point x="359" y="418" type="curve" smooth="yes"/>
      <point x="427" y="418"/>
      <point x="467" y="370"/>
      <point x="467" y="290" type="curve" smooth="yes"/>
      <point x="467" y="174"/>
      <point x="393" y="82"/>
      <point x="300" y="82" type="curve" smooth="yes"/>
      <point x="231" y="82"/>
      <point x="171" y="133"/>
      <point x="165" y="195" type="curve"/>
      <point x="129" y="150" type="line"/>
      <point x="135" y="51"/>
      <point x="210" y="-16"/>
      <point x="315" y="-16" type="curve" smooth="yes"/>
      <point x="465" y="-16"/>
      <point x="588" y="125"/>
      <point x="588" y="301" type="curve" smooth="yes"/>
      <point x="588" y="431"/>
      <point x="517" y="516"/>
      <point x="404" y="516" type="curve" smooth="yes"/>
      <point x="312" y="516"/>
      <point x="235" y="456"/>
      <point x="196" y="351" type="curve"/>
      <point x="212" y="353" type="line"/>
      <point x="290" y="720" type="line"/>
      <point x="174" y="720" type="line"/>
    </contour>
  </outline>
</glyph>
<glyph name="c" format="2">
	<unicode hex="0063"/>
	<advance width="536"/>
	<outline>
		<contour>
			<point x="414" y="158" type="line"/>
			<point x="378" y="109"/>
			<point x="331" y="83"/>
			<point x="279" y="83" type="curve" smooth="yes"/>
			<point x="206" y="83"/>
			<point x="162" y="134"/>
			<point x="162" y="211" type="curve" smooth="yes"/>
			<point x="162" y="325"/>
			<point x="234" y="417"/>
			<point x="330" y="417" type="curve" smooth="yes"/>
			<point x="382" y="417"/>
			<point x="421" y="393"/>
			<point x="447" y="341" type="curve"/>
			<point x="533" y="404" type="line"/>
			<point x="493" y="476"/>
			<point x="420" y="516"/>
			<point x="332" y="516" type="curve" smooth="yes"/>
			<point x="169" y="516"/>
			<point x="41" y="377"/>
			<point x="41" y="204" type="curve" smooth="yes"/>
			<point x="41" y="74"/>
			<point x="134" y="-16"/>
			<point x="264" y="-16" type="curve" smooth="yes"/>
			<point x="345" y="-16"/>
			<point x="416" y="16"/>
			<point x="475" y="78" type="curve"/>
		</contour>
	</outline>
	<anchor name="bottom.LC" x="259" y="-50"/>
	<anchor name="top.LC" x="342" y="544"/>
</glyph>
<glyph name="d" format="2">
	<unicode hex="0064"/>
	<advance width="622"/>
	<outline>
		<contour>
			<point x="386" y="0" type="line"/>
			<point x="500" y="0" type="line"/>
			<point x="653" y="720" type="line"/>
			<point x="537" y="720" type="line"/>
			<point x="459" y="355" type="line"/>
			<point x="483" y="360" type="line"/>
			<point x="477" y="458"/>
			<point x="418" y="516"/>
			<point x="319" y="516" type="curve" smooth="yes"/>
			<point x="163" y="516"/>
			<point x="41" y="372"/>
			<point x="41" y="198" type="curve" smooth="yes"/>
			<point x="41" y="67"/>
			<point x="110" y="-16"/>
			<point x="228" y="-16" type="curve" smooth="yes"/>
			<point x="341" y="-16"/>
			<point x="415" y="66"/>
			<point x="458" y="211" type="curve"/>
			<point x="438" y="255" type="line"/>
			<point x="404" y="149"/>
			<point x="343" y="82"/>
			<point x="270" y="82" type="curve" smooth="yes"/>
			<point x="202" y="82"/>
			<point x="162" y="129"/>
			<point x="162" y="209" type="curve" smooth="yes"/>
			<point x="162" y="323"/>
			<point x="236" y="418"/>
			<point x="330" y="418" type="curve" smooth="yes"/>
			<point x="396" y="418"/>
			<point x="437" y="369"/>
			<point x="437" y="286" type="curve" smooth="yes"/>
			<point x="437" y="259"/>
			<point x="433" y="228"/>
			<point x="425" y="190" type="curve" smooth="yes"/>
		</contour>
	</outline>
	<anchor name="top_right" x="734" y="540"/>
</glyph>
<glyph name="e" format="1">
  <advance width="568"/>
  <unicode hex="0065"/>
  <outline>
    <contour>
      <point x="121" y="214" type="line"/>
      <point x="329" y="214" type="line" smooth="yes"/>
      <point x="457" y="214"/>
      <point x="532" y="268"/>
      <point x="532" y="359" type="curve" smooth="yes"/>
      <point x="532" y="452"/>
      <point x="452" y="516"/>
      <point x="335" y="516" type="curve" smooth="yes"/>
      <point x="169" y="516"/>
      <point x="41" y="382"/>
      <point x="41" y="208" type="curve" smooth="yes"/>
      <point x="41" y="72"/>
      <point x="135" y="-16"/>
      <point x="279" y="-16" type="curve" smooth="yes"/>
      <point x="367" y="-16"/>
      <point x="439" y="15"/>
      <point x="496" y="77" type="curve"/>
      <point x="437" y="154" type="line"/>
      <point x="397" y="105"/>
      <point x="346" y="78"/>
      <point x="290" y="78" type="curve" smooth="yes"/>
      <point x="210" y="78"/>
      <point x="161" y="128"/>
      <point x="161" y="207" type="curve" smooth="yes"/>
      <point x="161" y="333"/>
      <point x="233" y="423"/>
      <point x="335" y="423" type="curve" smooth="yes"/>
      <point x="384" y="423"/>
      <point x="418" y="396"/>
      <point x="418" y="357" type="curve" smooth="yes"/>
      <point x="418" y="316"/>
      <point x="383" y="292"/>
      <point x="321" y="292" type="curve" smooth="yes"/>
      <point x="121" y="292" type="line"/>
    </contour>
    <contour>
      <point x="336" y="-30" type="move" name="ogonek.LC.round"/>
    </contour>
    <contour>
      <point x="350" y="544" type="move" name="top.LC"/>
    </contour>
  </outline>
</glyph>
<glyph name="f" format="1">
  <advance width="372"/>
  <unicode hex="0066"/>
  <outline>
    <contour>
      <point x="60" y="0" type="line"/>
      <point x="176" y="0" type="line"/>
      <point x="297" y="571" type="line" smooth="yes"/>
      <point x="305" y="611"/>
      <point x="323" y="627"/>
      <point x="357" y="627" type="curve" smooth="yes"/>
      <point x="424" y="627" type="line"/>
      <point x="444" y="720" type="line"/>
      <point x="339" y="720" type="line" smooth="yes"/>
      <point x="253" y="720"/>
      <point x="203" y="676"/>
      <point x="184" y="583" type="curve" smooth="yes"/>
    </contour>
    <contour>
      <point x="66" y="405" type="line"/>
      <point x="377" y="405" type="line"/>
      <point x="397" y="500" type="line"/>
      <point x="86" y="500" type="line"/>
    </contour>
  </outline>
</glyph>
<glyph name="g" format="2">
	<unicode hex="0067"/>
	<advance width="617"/>
	<outline>
		<contour>
			<point x="-1" y="-115" type="line"/>
			<point x="51" y="-178"/>
			<point x="126" y="-210"/>
			<point x="219" y="-210" type="curve" smooth="yes"/>
			<point x="376" y="-210"/>
			<point x="469" y="-128"/>
			<point x="504" y="41" type="curve" smooth="yes"/>
			<point x="601" y="500" type="line"/>
			<point x="486" y="500" type="line"/>
			<point x="456" y="355" type="line"/>
			<point x="480" y="360" type="line"/>
			<point x="473" y="458"/>
			<point x="414" y="516"/>
			<point x="316" y="516" type="curve" smooth="yes"/>
			<point x="161" y="516"/>
			<point x="36" y="377"/>
			<point x="36" y="204" type="curve" smooth="yes"/>
			<point x="36" y="76"/>
			<point x="112" y="-3"/>
			<point x="224" y="-3" type="curve" smooth="yes"/>
			<point x="334" y="-3"/>
			<point x="407" y="76"/>
			<point x="458" y="223" type="curve"/>
			<point x="435" y="268" type="line"/>
			<point x="400" y="157"/>
			<point x="335" y="95"/>
			<point x="263" y="95" type="curve" smooth="yes"/>
			<point x="196" y="95"/>
			<point x="157" y="138"/>
			<point x="157" y="215" type="curve" smooth="yes"/>
			<point x="157" y="325"/>
			<point x="231" y="418"/>
			<point x="324" y="418" type="curve" smooth="yes"/>
			<point x="393" y="418"/>
			<point x="432" y="372"/>
			<point x="432" y="286" type="curve" smooth="yes"/>
			<point x="432" y="262"/>
			<point x="429" y="232"/>
			<point x="423" y="205" type="curve" smooth="yes"/>
			<point x="389" y="43" type="line" smooth="yes"/>
			<point x="367" y="-59"/>
			<point x="308" y="-112"/>
			<point x="219" y="-112" type="curve" smooth="yes"/>
			<point x="158" y="-112"/>
			<point x="109" y="-88"/>
			<point x="69" y="-39" type="curve"/>
		</contour>
	</outline>
	<anchor name="top.LC" x="328" y="544"/>
</glyph>
<glyph name="i" format="2">
	<unicode hex="0069"/>
	<advance width="255"/>
	<outline>
		<contour>
			<point x="20" y="0" type="line"/>
			<point x="136" y="0" type="line"/>
			<point x="242" y="500" type="line"/>
			<point x="126" y="500" type="line"/>
		</contour>
		<contour>
			<point x="144" y="659" type="curve" smooth="yes"/>
			<point x="144" y="623"/>
			<point x="170" y="599"/>
			<point x="208" y="599" type="curve" smooth="yes"/>
			<point x="257" y="599"/>
			<point x="294" y="635"/>
			<point x="294" y="682" type="curve" smooth="yes"/>
			<point x="294" y="718"/>
			<point x="268" y="743"/>
			<point x="230" y="743" type="curve" smooth="yes"/>
			<point x="182" y="743"/>
			<point x="144" y="706"/>
		</contour>
	</outline>
	<anchor name="ogonek.LC" x="34" y="-30"/>
</glyph>
<glyph name="j" format="2">
	<unicode hex="006A"/>
	<advance width="255"/>
	<outline>
		<contour>
			<point x="-101" y="-194" type="line"/>
			<point x="-34" y="-194" type="line" smooth="yes"/>
			<point x="56" y="-194"/>
			<point x="104" y="-153"/>
			<point x="124" y="-58" type="curve" smooth="yes"/>
			<point x="242" y="500" type="line"/>
			<point x="126" y="500" type="line"/>
			<point x="12" y="-40" type="line" smooth="yes"/>
			<point x="3" y="-80"/>
			<point x="-13" y="-98"/>
			<point x="-49" y="-98" type="curve" smooth="yes"/>
			<point x="-81" y="-98" type="line"/>
		</contour>
		<contour>
			<point x="144" y="659" type="curve" smooth="yes"/>
			<point x="144" y="623"/>
			<point x="170" y="599"/>
			<point x="208" y="599" type="curve" smooth="yes"/>
			<point x="256" y="599"/>
			<point x="293" y="635"/>
			<point x="293" y="682" type="curve" smooth="yes"/>
			<point x="293" y="718"/>
			<point x="268" y="743"/>
			<point x="230" y="743" type="curve" smooth="yes"/>
			<point x="181" y="743"/>
			<point x="144" y="706"/>
		</contour>
	</outline>
</glyph>
<glyph name="k" format="1">
  <advance width="559"/>
  <unicode hex="006B"/>
  <outline>
    <contour>
      <point x="22" y="0" type="line"/>
      <point x="138" y="0" type="line"/>
      <point x="291" y="720" type="line"/>
      <point x="175" y="720" type="line"/>
    </contour>
    <contour>
      <point x="360" y="0" type="line"/>
      <point x="503" y="0" type="line"/>
      <point x="297" y="269" type="line"/>
      <point x="295" y="247" type="line"/>
      <point x="584" y="500" type="line"/>
      <point x="442" y="500" type="line"/>
      <point x="173" y="260" type="line"/>
      <point x="167" y="260" type="line"/>
    </contour>
    <contour>
      <point x="236" y="-50" type="move" name="bottom.LC"/>
    </contour>
  </outline>
</glyph>
<glyph name="l" format="2">
	<unicode hex="006C"/>
	<advance width="300"/>
	<outline>
		<contour>
			<point x="56" y="160" type="line" smooth="yes"/>
			<point x="51" y="135"/>
			<point x="48" y="116"/>
			<point x="48" y="101" type="curve" smooth="yes"/>
			<point x="48" y="31"/>
			<point x="86" y="0"/>
			<point x="166" y="0" type="curve" smooth="yes"/>
			<point x="232" y="0" type="line"/>
			<point x="252" y="97" type="line"/>
			<point x="202" y="97" type="line" smooth="yes"/>
			<point x="178" y="97"/>
			<point x="168" y="108"/>
			<point x="168" y="129" type="curve" smooth="yes"/>
			<point x="168" y="139"/>
			<point x="170" y="147"/>
			<point x="173" y="163" type="curve" smooth="yes"/>
			<point x="291" y="720" type="line"/>
			<point x="175" y="720" type="line"/>
		</contour>
	</outline>
	<anchor name="bottom.LC" x="132" y="-50"/>
	<anchor name="top.LC" x="241" y="766"/>
	<anchor name="top_right" x="374" y="540"/>
</glyph>
<glyph name="m" format="1">
  <advance width="875"/>
  <unicode hex="006D"/>
  <outline>
    <contour>
      <point x="22" y="0" type="line"/>
      <point x="138" y="0" type="line"/>
      <point x="179" y="192" type="line" smooth="yes"/>
      <point x="211" y="341"/>
      <point x="262" y="418"/>
      <point x="338" y="418" type="curve" smooth="yes"/>
      <point x="376" y="418"/>
      <point x="399" y="390"/>
      <point x="399" y="346" type="curve" smooth="yes"/>
      <point x="399" y="333"/>
      <point x="397" y="315"/>
      <point x="393" y="295" type="curve" smooth="yes"/>
      <point x="331" y="0" type="line"/>
      <point x="447" y="0" type="line"/>
      <point x="488" y="192" type="line" smooth="yes"/>
      <point x="519" y="341"/>
      <point x="571" y="418"/>
      <point x="647" y="418" type="curve" smooth="yes"/>
      <point x="685" y="418"/>
      <point x="708" y="390"/>
      <point x="708" y="346" type="curve" smooth="yes"/>
      <point x="708" y="333"/>
      <point x="706" y="315"/>
      <point x="702" y="295" type="curve" smooth="yes"/>
      <point x="640" y="0" type="line"/>
      <point x="756" y="0" type="line"/>
      <point x="818" y="292" type="line" smooth="yes"/>
      <point x="824" y="322"/>
      <point x="826" y="346"/>
      <point x="826" y="366" type="curve" smooth="yes"/>
      <point x="826" y="461"/>
      <point x="776" y="516"/>
      <point x="693" y="516" type="curve" smooth="yes"/>
      <point x="611" y="516"/>
      <point x="539" y="463"/>
      <point x="496" y="371" type="curve"/>
      <point x="507" y="368" type="line"/>
      <point x="510" y="462"/>
      <point x="465" y="516"/>
      <point x="386" y="516" type="curve" smooth="yes"/>
      <point x="317" y="516"/>
      <point x="248" y="471"/>
      <point x="210" y="390" type="curve"/>
      <point x="219" y="388" type="line"/>
      <point x="243" y="500" type="line"/>
      <point x="128" y="500" type="line"/>
    </contour>
  </outline>
</glyph>
<glyph name="n" format="2">
	<unicode hex="006E"/>
	<advance width="587"/>
	<outline>
		<contour>
			<point x="22" y="0" type="line"/>
			<point x="138" y="0" type="line"/>
			<point x="176" y="177" type="line" smooth="yes"/>
			<point x="210" y="336"/>
			<point x="266" y="418"/>
			<point x="349" y="418" type="curve" smooth="yes"/>
			<point x="393" y="418"/>
			<point x="419" y="390"/>
			<point x="419" y="344" type="curve" smooth="yes"/>
			<point x="419" y="329"/>
			<point x="416" y="304"/>
			<point x="411" y="278" type="curve" smooth="yes"/>
			<point x="352" y="0" type="line"/>
			<point x="468" y="0" type="line"/>
			<point x="527" y="278" type="line" smooth="yes"/>
			<point x="535" y="315"/>
			<point x="538" y="341"/>
			<point x="538" y="364" type="curve" smooth="yes"/>
			<point x="538" y="458"/>
			<point x="482" y="516"/>
			<point x="398" y="516" type="curve" smooth="yes"/>
			<point x="299" y="516"/>
			<point x="213" y="436"/>
			<point x="181" y="307" type="curve"/>
			<point x="210" y="345" type="line"/>
			<point x="243" y="500" type="line"/>
			<point x="128" y="500" type="line"/>
		</contour>
	</outline>
	<anchor name="bottom.LC" x="248" y="-50"/>
	<anchor name="top.LC" x="371" y="544"/>
</glyph>
<glyph name="o" format="1">
  <advance width="598"/>
  <unicode hex="006F"/>
  <outline>
    <contour>
      <point x="41" y="208" type="curve" smooth="yes"/>
      <point x="41" y="71"/>
      <point x="130" y="-16"/>
      <point x="273" y="-16" type="curve" smooth="yes"/>
      <point x="429" y="-16"/>
      <point x="558" y="123"/>
      <point x="558" y="292" type="curve" smooth="yes"/>
      <point x="558" y="429"/>
      <point x="468" y="516"/>
      <point x="325" y="516" type="curve" smooth="yes"/>
      <point x="169" y="516"/>
      <point x="41" y="378"/>
    </contour>
    <contour>
      <point x="273" y="82" type="curve" smooth="yes"/>
      <point x="205" y="82"/>
      <point x="161" y="132"/>
      <point x="161" y="208" type="curve" smooth="yes"/>
      <point x="161" y="324"/>
      <point x="234" y="418"/>
      <point x="325" y="418" type="curve" smooth="yes"/>
      <point x="394" y="418"/>
      <point x="437" y="368"/>
      <point x="437" y="292" type="curve" smooth="yes"/>
      <point x="437" y="176"/>
      <point x="364" y="82"/>
    </contour>
    <contour>
      <point x="347" y="544" type="move" name="top.LC"/>
    </contour>
  </outline>
</glyph>
<glyph name="p" format="2">
	<unicode hex="0070"/>
	<advance width="629"/>
	<outline>
		<contour>
			<point x="-18" y="-194" type="line"/>
			<point x="98" y="-194" type="line"/>
			<point x="176" y="175" type="line" smooth="yes"/>
			<point x="210" y="336"/>
			<point x="275" y="418"/>
			<point x="359" y="418" type="curve" smooth="yes"/>
			<point x="429" y="418"/>
			<point x="468" y="368"/>
			<point x="468" y="290" type="curve" smooth="yes"/>
			<point x="468" y="173"/>
			<point x="392" y="82"/>
			<point x="300" y="82" type="curve" smooth="yes"/>
			<point x="232" y="82"/>
			<point x="171" y="132"/>
			<point x="166" y="195" type="curve"/>
			<point x="129" y="150" type="line"/>
			<point x="136" y="50"/>
			<point x="211" y="-16"/>
			<point x="316" y="-16" type="curve" smooth="yes"/>
			<point x="466" y="-16"/>
			<point x="588" y="125"/>
			<point x="588" y="302" type="curve" smooth="yes"/>
			<point x="588" y="430"/>
			<point x="518" y="516"/>
			<point x="404" y="516" type="curve" smooth="yes"/>
			<point x="314" y="516"/>
			<point x="237" y="458"/>
			<point x="196" y="351" type="curve"/>
			<point x="213" y="353" type="line"/>
			<point x="244" y="500" type="line"/>
			<point x="128" y="500" type="line"/>
		</contour>
	</outline>
</glyph>
<glyph name="q" format="2">
	<unicode hex="0071"/>
	<advance width="627"/>
	<outline>
		<contour>
			<point x="345" y="-194" type="line"/>
			<point x="458" y="-194" type="line"/>
			<point x="605" y="500" type="line"/>
			<point x="491" y="500" type="line"/>
			<point x="460" y="355" type="line"/>
			<point x="483" y="360" type="line"/>
			<point x="477" y="457"/>
			<point x="417" y="516"/>
			<point x="320" y="516" type="curve" smooth="yes"/>
			<point x="165" y="516"/>
			<point x="41" y="373"/>
			<point x="41" y="201" type="curve" smooth="yes"/>
			<point x="41" y="64"/>
			<point x="113" y="-16"/>
			<point x="228" y="-16" type="curve" smooth="yes"/>
			<point x="341" y="-16"/>
			<point x="415" y="66"/>
			<point x="458" y="211" type="curve"/>
			<point x="438" y="255" type="line"/>
			<point x="404" y="149"/>
			<point x="343" y="82"/>
			<point x="268" y="82" type="curve" smooth="yes"/>
			<point x="201" y="82"/>
			<point x="162" y="130"/>
			<point x="162" y="210" type="curve" smooth="yes"/>
			<point x="162" y="323"/>
			<point x="236" y="418"/>
			<point x="329" y="418" type="curve" smooth="yes"/>
			<point x="396" y="418"/>
			<point x="437" y="370"/>
			<point x="437" y="286" type="curve" smooth="yes"/>
			<point x="437" y="257"/>
			<point x="431" y="220"/>
			<point x="423" y="178" type="curve" smooth="yes"/>
		</contour>
	</outline>
</glyph>
<glyph name="r" format="1">
  <advance width="390"/>
  <unicode hex="0072"/>
  <outline>
    <contour>
      <point x="22" y="0" type="line"/>
      <point x="138" y="0" type="line"/>
      <point x="183" y="212" type="line" smooth="yes"/>
      <point x="210" y="342"/>
      <point x="276" y="400"/>
      <point x="369" y="400" type="curve" smooth="yes"/>
      <point x="392" y="400" type="line"/>
      <point x="415" y="509" type="line"/>
      <point x="397" y="509" type="line" smooth="yes"/>
      <point x="303" y="509"/>
      <point x="226" y="443"/>
      <point x="189" y="325" type="curve"/>
      <point x="206" y="325" type="line"/>
      <point x="243" y="500" type="line"/>
      <point x="128" y="500" type="line"/>
    </contour>
    <contour>
      <point x="286" y="544" type="move" name="top.LC"/>
    </contour>
  </outline>
</glyph>
<glyph name="s" format="1">
  <advance width="491"/>
  <unicode hex="0073"/>
  <outline>
    <contour>
      <point x="-9" y="86" type="line"/>
      <point x="38" y="18"/>
      <point x="129" y="-16"/>
      <point x="218" y="-16" type="curve" smooth="yes"/>
      <point x="340" y="-16"/>
      <point x="439" y="49"/>
      <point x="439" y="156" type="curve" smooth="yes"/>
      <point x="439" y="231"/>
      <point x="386" y="277"/>
      <point x="268" y="305" type="curve" smooth="yes"/>
      <point x="200" y="321"/>
      <point x="177" y="337"/>
      <point x="177" y="364" type="curve" smooth="yes"/>
      <point x="177" y="403"/>
      <point x="214" y="427"/>
      <point x="273" y="427" type="curve" smooth="yes"/>
      <point x="332" y="427"/>
      <point x="378" y="400"/>
      <point x="408" y="355" type="curve"/>
      <point x="483" y="418" type="line"/>
      <point x="439" y="480"/>
      <point x="364" y="516"/>
      <point x="277" y="516" type="curve" smooth="yes"/>
      <point x="155" y="516"/>
      <point x="65" y="447"/>
      <point x="65" y="353" type="curve" smooth="yes"/>
      <point x="65" y="282"/>
      <point x="117" y="233"/>
      <point x="228" y="208" type="curve" smooth="yes"/>
      <point x="298" y="192"/>
      <point x="326" y="175"/>
      <point x="326" y="143" type="curve" smooth="yes"/>
      <point x="326" y="96"/>
      <point x="276" y="73"/>
      <point x="223" y="73" type="curve" smooth="yes"/>
      <point x="154" y="73"/>
      <point x="95" y="105"/>
      <point x="65" y="152" type="curve"/>
    </contour>
    <contour>
      <point x="193" y="-50" type="move" name="bottom.LC"/>
    </contour>
    <contour>
      <point x="293" y="544" type="move" name="top.LC"/>
    </contour>
  </outline>
</glyph>
<glyph name="t" format="1">
  <advance width="377"/>
  <unicode hex="0074"/>
  <outline>
    <contour>
      <point x="92" y="168" type="line" smooth="yes"/>
      <point x="86" y="143"/>
      <point x="83" y="122"/>
      <point x="83" y="105" type="curve" smooth="yes"/>
      <point x="83" y="34"/>
      <point x="124" y="0"/>
      <point x="214" y="0" type="curve" smooth="yes"/>
      <point x="293" y="0" type="line"/>
      <point x="314" y="97" type="line"/>
      <point x="247" y="97" type="line" smooth="yes"/>
      <point x="215" y="97"/>
      <point x="204" y="107"/>
      <point x="204" y="133" type="curve" smooth="yes"/>
      <point x="204" y="142"/>
      <point x="205" y="153"/>
      <point x="208" y="168" type="curve" smooth="yes"/>
      <point x="308" y="636" type="line"/>
      <point x="192" y="636" type="line"/>
    </contour>
    <contour>
      <point x="61" y="405" type="line"/>
      <point x="369" y="405" type="line"/>
      <point x="389" y="500" type="line"/>
      <point x="81" y="500" type="line"/>
    </contour>
    <contour>
      <point x="187" y="-50" type="move" name="bottom.LC"/>
    </contour>
    <contour>
      <point x="388" y="540" type="move" name="top_right.LC.short"/>
    </contour>
  </outline>
</glyph>
<glyph name="u" format="1">
  <advance width="585"/>
  <unicode hex="0075"/>
  <outline>
    <contour>
      <point x="453" y="0" type="line"/>
      <point x="559" y="500" type="line"/>
      <point x="443" y="500" type="line"/>
      <point x="405" y="323" type="line" smooth="yes"/>
      <point x="371" y="162"/>
      <point x="315" y="82"/>
      <point x="232" y="82" type="curve" smooth="yes"/>
      <point x="191" y="82"/>
      <point x="167" y="110"/>
      <point x="167" y="156" type="curve" smooth="yes"/>
      <point x="167" y="170"/>
      <point x="170" y="194"/>
      <point x="176" y="222" type="curve" smooth="yes"/>
      <point x="234" y="500" type="line"/>
      <point x="118" y="500" type="line"/>
      <point x="60" y="222" type="line" smooth="yes"/>
      <point x="52" y="185"/>
      <point x="49" y="155"/>
      <point x="49" y="130" type="curve" smooth="yes"/>
      <point x="49" y="41"/>
      <point x="100" y="-16"/>
      <point x="188" y="-16" type="curve" smooth="yes"/>
      <point x="280" y="-16"/>
      <point x="368" y="61"/>
      <point x="401" y="193" type="curve"/>
      <point x="371" y="155" type="line"/>
      <point x="338" y="0" type="line"/>
    </contour>
    <contour>
      <point x="350" y="-30" type="move" name="ogonek.LC"/>
    </contour>
    <contour>
      <point x="345" y="544" type="move" name="top.LC"/>
    </contour>
  </outline>
</glyph>
<glyph name="v" format="2">
	<unicode hex="0076"/>
	<advance width="550"/>
	<outline>
		<contour>
			<point x="160" y="0" type="line"/>
			<point x="276" y="0" type="line"/>
			<point x="576" y="500" type="line"/>
			<point x="457" y="500" type="line"/>
			<point x="219" y="78" type="line"/>
			<point x="249" y="78" type="line"/>
			<point x="188" y="500" type="line"/>
			<point x="69" y="500" type="line"/>
		</contour>
	</outline>
</glyph>
<glyph name="w" format="1">
  <advance width="766"/>
  <unicode hex="0077"/>
  <outline>
    <contour>
      <point x="112" y="0" type="line"/>
      <point x="228" y="0" type="line"/>
      <point x="427" y="396" type="line"/>
      <point x="394" y="396" type="line"/>
      <point x="427" y="0" type="line"/>
      <point x="544" y="0" type="line"/>
      <point x="792" y="500" type="line"/>
      <point x="679" y="500" type="line"/>
      <point x="481" y="69" type="line"/>
      <point x="512" y="69" type="line"/>
      <point x="482" y="500" type="line"/>
      <point x="385" y="500" type="line"/>
      <point x="173" y="69" type="line"/>
      <point x="207" y="69" type="line"/>
      <point x="190" y="500" type="line"/>
      <point x="77" y="500" type="line"/>
    </contour>
    <contour>
      <point x="432" y="544" type="move" name="top.LC"/>
    </contour>
  </outline>
</glyph>
<glyph name="x" format="1">
  <advance width="511"/>
  <unicode hex="0078"/>
  <outline>
    <contour>
      <point x="-48" y="0" type="line"/>
      <point x="89" y="0" type="line"/>
      <point x="275" y="221" type="line"/>
      <point x="222" y="221" type="line"/>
      <point x="324" y="0" type="line"/>
      <point x="451" y="0" type="line"/>
      <point x="295" y="301" type="line"/>
      <point x="297" y="225" type="line"/>
      <point x="544" y="500" type="line"/>
      <point x="408" y="500" type="line"/>
      <point x="246" y="308" type="line"/>
      <point x="282" y="308" type="line"/>
      <point x="196" y="500" type="line"/>
      <point x="69" y="500" type="line"/>
      <point x="213" y="219" type="line"/>
      <point x="222" y="299" type="line"/>
    </contour>
  </outline>
</glyph>
<glyph name="y" format="1">
  <advance width="551"/>
  <unicode hex="0079"/>
  <outline>
    <contour>
      <point x="-22" y="-194" type="line"/>
      <point x="39" y="-194" type="line" smooth="yes"/>
      <point x="136" y="-194"/>
      <point x="176" y="-165"/>
      <point x="232" y="-74" type="curve" smooth="yes"/>
      <point x="577" y="500" type="line"/>
      <point x="457" y="500" type="line"/>
      <point x="215" y="70" type="line"/>
      <point x="250" y="70" type="line"/>
      <point x="188" y="500" type="line"/>
      <point x="70" y="500" type="line"/>
      <point x="163" y="-22" type="line"/>
      <point x="171" y="21" type="line"/>
      <point x="141" y="-36" type="line" smooth="yes"/>
      <point x="117" y="-82"/>
      <point x="94" y="-97"/>
      <point x="55" y="-97" type="curve" smooth="yes"/>
      <point x="-2" y="-97" type="line"/>
    </contour>
    <contour>
      <point x="321" y="544" type="move" name="top.LC"/>
    </contour>
  </outline>
</glyph>
<glyph name="z" format="2">
	<unicode hex="007A"/>
	<advance width="486"/>
	<outline>
		<contour>
			<point x="-2" y="0" type="line"/>
			<point x="396" y="0" type="line"/>
			<point x="416" y="95" type="line"/>
			<point x="158" y="95" type="line"/>
			<point x="471" y="405" type="line"/>
			<point x="491" y="500" type="line"/>
			<point x="100" y="500" type="line"/>
			<point x="80" y="405" type="line"/>
			<point x="330" y="405" type="line"/>
			<point x="18" y="96" type="line"/>
		</contour>
	</outline>
	<anchor name="top.LC" x="304" y="544"/>
</glyph>
<glyph name="braceleft" format="1">
  <advance width="391"/>
  <unicode hex="007B"/>
  <outline>
    <contour>
      <point x="76" y="6" type="line" smooth="yes"/>
      <point x="73" y="-10"/>
      <point x="71" y="-25"/>
      <point x="71" y="-39" type="curve" smooth="yes"/>
      <point x="71" y="-99"/>
      <point x="105" y="-129"/>
      <point x="176" y="-129" type="curve" smooth="yes"/>
      <point x="264" y="-129" type="line"/>
      <point x="284" y="-36" type="line"/>
      <point x="233" y="-36" type="line" smooth="yes"/>
      <point x="204" y="-36"/>
      <point x="190" y="-26"/>
      <point x="190" y="-3" type="curve" smooth="yes"/>
      <point x="190" y="3"/>
      <point x="191" y="13"/>
      <point x="194" y="23" type="curve" smooth="yes"/>
      <point x="226" y="173" type="line" smooth="yes"/>
      <point x="230" y="195"/>
      <point x="233" y="213"/>
      <point x="233" y="226" type="curve" smooth="yes"/>
      <point x="233" y="286"/>
      <point x="198" y="315"/>
      <point x="126" y="315" type="curve"/>
      <point x="121" y="290" type="line"/>
      <point x="209" y="290"/>
      <point x="260" y="334"/>
      <point x="279" y="426" type="curve" smooth="yes"/>
      <point x="312" y="582" type="line" smooth="yes"/>
      <point x="321" y="622"/>
      <point x="339" y="638"/>
      <point x="377" y="638" type="curve" smooth="yes"/>
      <point x="427" y="638" type="line"/>
      <point x="447" y="731" type="line"/>
      <point x="359" y="731" type="line" smooth="yes"/>
      <point x="272" y="731"/>
      <point x="220" y="687"/>
      <point x="201" y="596" type="curve" smooth="yes"/>
      <point x="161" y="406" type="line" smooth="yes"/>
      <point x="153" y="365"/>
      <point x="134" y="349"/>
      <point x="97" y="349" type="curve" smooth="yes"/>
      <point x="68" y="349" type="line"/>
      <point x="48" y="256" type="line"/>
      <point x="77" y="256" type="line" smooth="yes"/>
      <point x="106" y="256"/>
      <point x="120" y="246"/>
      <point x="120" y="222" type="curve" smooth="yes"/>
      <point x="120" y="217"/>
      <point x="119" y="208"/>
      <point x="117" y="199" type="curve" smooth="yes"/>
    </contour>
  </outline>
</glyph>
<glyph name="bar" format="1">
  <advance width="263"/>
  <unicode hex="007C"/>
  <outline>
    <contour>
      <point x="-4" y="-129" type="line"/>
      <point x="107" y="-129" type="line"/>
      <point x="290" y="736" type="line"/>
      <point x="178" y="736" type="line"/>
    </contour>
  </outline>
</glyph>
<glyph name="braceright" format="1">
  <advance width="391"/>
  <unicode hex="007D"/>
  <outline>
    <contour>
      <point x="-34" y="-129" type="line"/>
      <point x="54" y="-129" type="line" smooth="yes"/>
      <point x="141" y="-129"/>
      <point x="193" y="-85"/>
      <point x="212" y="6" type="curve" smooth="yes"/>
      <point x="253" y="200" type="line" smooth="yes"/>
      <point x="261" y="240"/>
      <point x="280" y="256"/>
      <point x="317" y="256" type="curve" smooth="yes"/>
      <point x="346" y="256" type="line"/>
      <point x="366" y="349" type="line"/>
      <point x="337" y="349" type="line" smooth="yes"/>
      <point x="307" y="349"/>
      <point x="294" y="360"/>
      <point x="294" y="384" type="curve" smooth="yes"/>
      <point x="294" y="388"/>
      <point x="294" y="393"/>
      <point x="297" y="407" type="curve" smooth="yes"/>
      <point x="337" y="596" type="line" smooth="yes"/>
      <point x="341" y="612"/>
      <point x="343" y="627"/>
      <point x="343" y="641" type="curve" smooth="yes"/>
      <point x="343" y="701"/>
      <point x="308" y="731"/>
      <point x="237" y="731" type="curve" smooth="yes"/>
      <point x="149" y="731" type="line"/>
      <point x="129" y="638" type="line"/>
      <point x="180" y="638" type="line" smooth="yes"/>
      <point x="210" y="638"/>
      <point x="223" y="628"/>
      <point x="223" y="605" type="curve" smooth="yes"/>
      <point x="223" y="599"/>
      <point x="222" y="589"/>
      <point x="220" y="579" type="curve" smooth="yes"/>
      <point x="188" y="432" type="line" smooth="yes"/>
      <point x="184" y="411"/>
      <point x="181" y="393"/>
      <point x="181" y="380" type="curve" smooth="yes"/>
      <point x="181" y="319"/>
      <point x="216" y="290"/>
      <point x="288" y="290" type="curve"/>
      <point x="293" y="315" type="line"/>
      <point x="205" y="315"/>
      <point x="154" y="271"/>
      <point x="135" y="180" type="curve" smooth="yes"/>
      <point x="101" y="20" type="line" smooth="yes"/>
      <point x="93" y="-20"/>
      <point x="74" y="-36"/>
      <point x="37" y="-36" type="curve" smooth="yes"/>
      <point x="-14" y="-36" type="line"/>
    </contour>
  </outline>
</glyph>
<glyph name="asciitilde" format="2">
	<unicode hex="007E"/>
	<advance width="622"/>
	<outline>
		<contour>
			<point x="237" y="460" type="curve" smooth="yes"/>
			<point x="167" y="460"/>
			<point x="115" y="416"/>
			<point x="65" y="315" type="curve"/>
			<point x="140" y="263" type="line"/>
			<point x="170" y="325"/>
			<point x="197" y="352"/>
			<point x="227" y="352" type="curve" smooth="yes"/>
			<point x="248" y="352"/>
			<point x="264" y="336"/>
			<point x="291" y="309" type="curve" smooth="yes"/>
			<point x="329" y="269"/>
			<point x="356" y="251"/>
			<point x="401" y="251" type="curve" smooth="yes"/>
			<point x="470" y="251"/>
			<point x="523" y="295"/>
			<point x="573" y="396" type="curve"/>
			<point x="497" y="448" type="line"/>
			<point x="468" y="386"/>
			<point x="441" y="359"/>
			<point x="411" y="359" type="curve" smooth="yes"/>
			<point x="390" y="359"/>
			<point x="375" y="373"/>
			<point x="348" y="401" type="curve" smooth="yes"/>
			<point x="308" y="442"/>
			<point x="282" y="460"/>
		</contour>
	</outline>
</glyph>
<glyph name="exclamdown" format="1">
  <advance width="251"/>
  <unicode hex="00A1"/>
  <outline>
    <contour>
      <point x="106" y="269" type="line"/>
      <point x="90" y="217"/>
      <point x="27" y="-3"/>
      <point x="-5" y="-112" type="curve" smooth="yes"/>
      <point x="-20" y="-160"/>
      <point x="-23" y="-176"/>
      <point x="-23" y="-187" type="curve" smooth="yes"/>
      <point x="-23" y="-223"/>
      <point x="-2" y="-243"/>
      <point x="35" y="-243" type="curve" smooth="yes"/>
      <point x="56" y="-243"/>
      <point x="74" y="-237"/>
      <point x="86" y="-224" type="curve" smooth="yes"/>
      <point x="102" y="-209"/>
      <point x="110" y="-187"/>
      <point x="115" y="-144" type="curve" smooth="yes"/>
      <point x="123" y="-74"/>
      <point x="167" y="225"/>
      <point x="172" y="269" type="curve"/>
    </contour>
    <contour>
      <point x="94" y="412" type="curve" smooth="yes"/>
      <point x="94" y="374"/>
      <point x="121" y="347"/>
      <point x="158" y="347" type="curve" smooth="yes"/>
      <point x="209" y="347"/>
      <point x="247" y="384"/>
      <point x="247" y="437" type="curve" smooth="yes"/>
      <point x="247" y="474"/>
      <point x="219" y="500"/>
      <point x="182" y="500" type="curve" smooth="yes"/>
      <point x="131" y="500"/>
      <point x="94" y="464"/>
    </contour>
  </outline>
</glyph>
<glyph name="cent" format="1">
  <advance width="626"/>
  <unicode hex="00A2"/>
  <outline>
    <contour>
      <point x="232" y="-116" type="line"/>
      <point x="297" y="-116" type="line"/>
      <point x="452" y="616" type="line"/>
      <point x="387" y="616" type="line"/>
    </contour>
    <contour>
      <point x="463" y="158" type="line"/>
      <point x="428" y="109"/>
      <point x="376" y="82"/>
      <point x="323" y="82" type="curve" smooth="yes"/>
      <point x="247" y="82"/>
      <point x="200" y="132"/>
      <point x="200" y="211" type="curve" smooth="yes"/>
      <point x="200" y="328"/>
      <point x="275" y="417"/>
      <point x="374" y="417" type="curve" smooth="yes"/>
      <point x="430" y="417"/>
      <point x="470" y="392"/>
      <point x="496" y="341" type="curve"/>
      <point x="582" y="404" type="line"/>
      <point x="542" y="475"/>
      <point x="466" y="516"/>
      <point x="377" y="516" type="curve" smooth="yes"/>
      <point x="210" y="516"/>
      <point x="79" y="379"/>
      <point x="79" y="204" type="curve" smooth="yes"/>
      <point x="79" y="73"/>
      <point x="173" y="-16"/>
      <point x="309" y="-16" type="curve" smooth="yes"/>
      <point x="391" y="-16"/>
      <point x="466" y="17"/>
      <point x="524" y="78" type="curve"/>
    </contour>
  </outline>
</glyph>
<glyph name="sterling" format="1">
  <advance width="630"/>
  <unicode hex="00A3"/>
  <outline>
    <contour>
      <point x="10" y="0" type="line"/>
      <point x="527" y="0" type="line"/>
      <point x="548" y="98" type="line"/>
      <point x="29" y="98" type="line"/>
    </contour>
    <contour>
      <point x="82" y="306" type="line"/>
      <point x="483" y="306" type="line"/>
      <point x="503" y="399" type="line"/>
      <point x="102" y="399" type="line"/>
    </contour>
    <contour>
      <point x="107" y="49" type="line"/>
      <point x="223" y="49" type="line"/>
      <point x="317" y="489" type="line" smooth="yes"/>
      <point x="337" y="582"/>
      <point x="382" y="630"/>
      <point x="458" y="630" type="curve" smooth="yes"/>
      <point x="513" y="630"/>
      <point x="548" y="604"/>
      <point x="572" y="545" type="curve"/>
      <point x="662" y="611" type="line"/>
      <point x="629" y="689"/>
      <point x="560" y="731"/>
      <point x="469" y="731" type="curve" smooth="yes"/>
      <point x="328" y="731"/>
      <point x="233" y="641"/>
      <point x="200" y="487" type="curve" smooth="yes"/>
    </contour>
  </outline>
</glyph>
<glyph name="currency" format="1">
  <advance width="600"/>
  <unicode hex="00A4"/>
  <outline>
    <contour>
      <point x="299" y="245" type="curve" smooth="yes"/>
      <point x="240" y="245"/>
      <point x="201" y="285"/>
      <point x="201" y="344" type="curve" smooth="yes"/>
      <point x="201" y="429"/>
      <point x="273" y="506"/>
      <point x="355" y="506" type="curve" smooth="yes"/>
      <point x="413" y="506"/>
      <point x="453" y="466"/>
      <point x="453" y="407" type="curve" smooth="yes"/>
      <point x="453" y="322"/>
      <point x="381" y="245"/>
    </contour>
    <contour>
      <point x="80" y="118" type="line"/>
      <point x="172" y="193" type="line"/>
      <point x="200" y="172"/>
      <point x="238" y="160"/>
      <point x="281" y="160" type="curve" smooth="yes"/>
      <point x="326" y="160"/>
      <point x="372" y="173"/>
      <point x="411" y="197" type="curve"/>
      <point x="470" y="123" type="line"/>
      <point x="531" y="174" type="line"/>
      <point x="474" y="246" type="line"/>
      <point x="522" y="298"/>
      <point x="549" y="360"/>
      <point x="549" y="421" type="curve" smooth="yes"/>
      <point x="549" y="450"/>
      <point x="543" y="474"/>
      <point x="532" y="499" type="curve"/>
      <point x="621" y="573" type="line"/>
      <point x="574" y="633" type="line"/>
      <point x="482" y="558" type="line"/>
      <point x="454" y="579"/>
      <point x="415" y="591"/>
      <point x="372" y="591" type="curve" smooth="yes"/>
      <point x="328" y="591"/>
      <point x="282" y="578"/>
      <point x="243" y="554" type="curve"/>
      <point x="183" y="628" type="line"/>
      <point x="122" y="577" type="line"/>
      <point x="180" y="505" type="line"/>
      <point x="131" y="453"/>
      <point x="105" y="391"/>
      <point x="105" y="330" type="curve" smooth="yes"/>
      <point x="105" y="301"/>
      <point x="110" y="277"/>
      <point x="122" y="252" type="curve"/>
      <point x="32" y="179" type="line"/>
    </contour>
  </outline>
</glyph>
<glyph name="yen" format="1">
  <advance width="631"/>
  <unicode hex="00A5"/>
  <outline>
    <contour>
      <point x="71" y="124" type="line"/>
      <point x="507" y="124" type="line"/>
      <point x="525" y="209" type="line"/>
      <point x="89" y="209" type="line"/>
    </contour>
    <contour>
      <point x="104" y="280" type="line"/>
      <point x="540" y="280" type="line"/>
      <point x="558" y="365" type="line"/>
      <point x="123" y="365" type="line"/>
    </contour>
    <contour>
      <point x="204" y="0" type="line"/>
      <point x="322" y="0" type="line"/>
      <point x="387" y="307" type="line"/>
      <point x="706" y="715" type="line"/>
      <point x="575" y="715" type="line"/>
      <point x="333" y="391" type="line"/>
      <point x="357" y="391" type="line"/>
      <point x="251" y="715" type="line"/>
      <point x="123" y="715" type="line"/>
      <point x="269" y="309" type="line"/>
    </contour>
  </outline>
</glyph>
<glyph name="brokenbar" format="2">
	<unicode hex="00A6"/>
	<advance width="263"/>
	<outline>
		<contour>
			<point x="106" y="390" type="line"/>
			<point x="216" y="390" type="line"/>
			<point x="290" y="736" type="line"/>
			<point x="178" y="736" type="line"/>
		</contour>
		<contour>
			<point x="-4" y="-129" type="line"/>
			<point x="107" y="-129" type="line"/>
			<point x="180" y="217" type="line"/>
			<point x="69" y="217" type="line"/>
		</contour>
	</outline>
</glyph>
<glyph name="section" format="2">
	<unicode hex="00A7"/>
	<advance width="523"/>
	<outline>
		<contour>
			<point x="-7" y="-34" type="line"/>
			<point x="30" y="-93"/>
			<point x="106" y="-129"/>
			<point x="194" y="-129" type="curve" smooth="yes"/>
			<point x="325" y="-129"/>
			<point x="424" y="-45"/>
			<point x="424" y="66" type="curve" smooth="yes"/>
			<point x="424" y="112"/>
			<point x="410" y="143"/>
			<point x="378" y="171" type="curve"/>
			<point x="458" y="209"/>
			<point x="503" y="270"/>
			<point x="503" y="334" type="curve" smooth="yes"/>
			<point x="503" y="404"/>
			<point x="449" y="450"/>
			<point x="334" y="479" type="curve" smooth="yes"/>
			<point x="269" y="496"/>
			<point x="244" y="518"/>
			<point x="244" y="558" type="curve" smooth="yes"/>
			<point x="244" y="610"/>
			<point x="288" y="645"/>
			<point x="351" y="645" type="curve" smooth="yes"/>
			<point x="404" y="645"/>
			<point x="450" y="620"/>
			<point x="480" y="576" type="curve"/>
			<point x="549" y="639" type="line"/>
			<point x="511" y="699"/>
			<point x="448" y="731"/>
			<point x="364" y="731" type="curve" smooth="yes"/>
			<point x="236" y="731"/>
			<point x="140" y="649"/>
			<point x="140" y="538" type="curve" smooth="yes"/>
			<point x="140" y="495"/>
			<point x="155" y="461"/>
			<point x="184" y="435" type="curve"/>
			<point x="102" y="391"/>
			<point x="61" y="340"/>
			<point x="61" y="275" type="curve" smooth="yes"/>
			<point x="61" y="202"/>
			<point x="113" y="157"/>
			<point x="231" y="127" type="curve" smooth="yes"/>
			<point x="296" y="111"/>
			<point x="321" y="89"/>
			<point x="321" y="49" type="curve" smooth="yes"/>
			<point x="321" y="-5"/>
			<point x="274" y="-41"/>
			<point x="202" y="-41" type="curve" smooth="yes"/>
			<point x="142" y="-41"/>
			<point x="91" y="-15"/>
			<point x="61" y="29" type="curve"/>
		</contour>
		<contour>
			<point x="270" y="219" type="line" smooth="yes"/>
			<point x="193" y="240"/>
			<point x="165" y="261"/>
			<point x="165" y="297" type="curve" smooth="yes"/>
			<point x="165" y="337"/>
			<point x="203" y="379"/>
			<point x="260" y="397" type="curve"/>
			<point x="292" y="388" type="line" smooth="yes"/>
			<point x="368" y="367"/>
			<point x="398" y="344"/>
			<point x="398" y="308" type="curve" smooth="yes"/>
			<point x="398" y="267"/>
			<point x="360" y="228"/>
			<point x="303" y="209" type="curve" smooth="yes"/>
		</contour>
	</outline>
</glyph>
<glyph name="copyright" format="1">
  <advance width="832"/>
  <unicode hex="00A9"/>
  <outline>
    <contour>
      <point x="541" y="280" type="line"/>
      <point x="518" y="244"/>
      <point x="484" y="223"/>
      <point x="444" y="223" type="curve" smooth="yes"/>
      <point x="380" y="223"/>
      <point x="333" y="280"/>
      <point x="333" y="358" type="curve" smooth="yes"/>
      <point x="333" y="438"/>
      <point x="380" y="494"/>
      <point x="444" y="494" type="curve" smooth="yes"/>
      <point x="484" y="494"/>
      <point x="518" y="472"/>
      <point x="541" y="438" type="curve"/>
      <point x="597" y="495" type="line"/>
      <point x="564" y="541"/>
      <point x="510" y="572"/>
      <point x="440" y="572" type="curve" smooth="yes"/>
      <point x="324" y="572"/>
      <point x="237" y="483"/>
      <point x="237" y="358" type="curve" smooth="yes"/>
      <point x="237" y="234"/>
      <point x="322" y="145"/>
      <point x="438" y="145" type="curve" smooth="yes"/>
      <point x="508" y="145"/>
      <point x="564" y="175"/>
      <point x="597" y="221" type="curve"/>
    </contour>
    <contour>
      <point x="436" y="-26" type="curve" smooth="yes"/>
      <point x="644" y="-26"/>
      <point x="809" y="144"/>
      <point x="809" y="358" type="curve" smooth="yes"/>
      <point x="809" y="572"/>
      <point x="644" y="742"/>
      <point x="436" y="742" type="curve" smooth="yes"/>
      <point x="228" y="742"/>
      <point x="63" y="572"/>
      <point x="63" y="358" type="curve" smooth="yes"/>
      <point x="63" y="144"/>
      <point x="228" y="-26"/>
    </contour>
    <contour>
      <point x="436" y="51" type="curve" smooth="yes"/>
      <point x="272" y="51"/>
      <point x="141" y="186"/>
      <point x="141" y="358" type="curve" smooth="yes"/>
      <point x="141" y="530"/>
      <point x="272" y="665"/>
      <point x="436" y="665" type="curve" smooth="yes"/>
      <point x="600" y="665"/>
      <point x="731" y="530"/>
      <point x="731" y="358" type="curve" smooth="yes"/>
      <point x="731" y="186"/>
      <point x="600" y="51"/>
    </contour>
  </outline>
</glyph>
<glyph name="ordfeminine" format="2">
	<unicode hex="00AA"/>
	<advance width="429"/>
	<outline>
		<contour>
			<point x="308" y="309" type="line"/>
			<point x="401" y="309" type="line"/>
			<point x="448" y="528" type="line" smooth="yes"/>
			<point x="452" y="547"/>
			<point x="454" y="564"/>
			<point x="454" y="581" type="curve" smooth="yes"/>
			<point x="454" y="667"/>
			<point x="396" y="715"/>
			<point x="297" y="715" type="curve" smooth="yes"/>
			<point x="227" y="715"/>
			<point x="159" y="688"/>
			<point x="119" y="648" type="curve"/>
			<point x="168" y="586" type="line"/>
			<point x="199" y="619"/>
			<point x="242" y="638"/>
			<point x="284" y="638" type="curve" smooth="yes"/>
			<point x="348" y="638"/>
			<point x="364" y="598"/>
			<point x="353" y="545" type="curve" smooth="yes"/>
			<point x="322" y="397" type="line"/>
			<point x="325" y="384" type="line"/>
		</contour>
		<contour>
			<point x="268" y="554" type="line" smooth="yes"/>
			<point x="140" y="554"/>
			<point x="64" y="500"/>
			<point x="64" y="415" type="curve" smooth="yes"/>
			<point x="64" y="343"/>
			<point x="120" y="297"/>
			<point x="193" y="297" type="curve" smooth="yes"/>
			<point x="277" y="297"/>
			<point x="342" y="365"/>
			<point x="369" y="489" type="curve"/>
			<point x="356" y="504" type="line"/>
			<point x="330" y="421"/>
			<point x="279" y="373"/>
			<point x="224" y="373" type="curve" smooth="yes"/>
			<point x="190" y="373"/>
			<point x="171" y="393"/>
			<point x="171" y="421" type="curve" smooth="yes"/>
			<point x="171" y="462"/>
			<point x="206" y="489"/>
			<point x="269" y="489" type="curve" smooth="yes"/>
			<point x="347" y="489" type="line"/>
			<point x="366" y="554" type="line"/>
		</contour>
	</outline>
</glyph>
<glyph name="logicalnot" format="1">
  <advance width="631"/>
  <unicode hex="00AC"/>
  <outline>
    <contour>
      <point x="127" y="310" type="line"/>
      <point x="438" y="310" type="line"/>
      <point x="405" y="160" type="line"/>
      <point x="499" y="160" type="line"/>
      <point x="551" y="405" type="line"/>
      <point x="146" y="405" type="line"/>
    </contour>
  </outline>
</glyph>
<glyph name="registered" format="1">
  <advance width="515"/>
  <unicode hex="00AE"/>
  <outline>
    <contour>
      <point x="222" y="384" type="line"/>
      <point x="269" y="384" type="line"/>
      <point x="269" y="562" type="line"/>
      <point x="312" y="562" type="line" smooth="yes"/>
      <point x="332" y="562"/>
      <point x="346" y="550"/>
      <point x="346" y="531" type="curve" smooth="yes"/>
      <point x="346" y="514"/>
      <point x="332" y="501"/>
      <point x="312" y="501" type="curve" smooth="yes"/>
      <point x="265" y="501" type="line"/>
      <point x="265" y="460" type="line"/>
      <point x="312" y="460" type="line" smooth="yes"/>
      <point x="361" y="460"/>
      <point x="393" y="489"/>
      <point x="393" y="531" type="curve" smooth="yes"/>
      <point x="393" y="574"/>
      <point x="361" y="604"/>
      <point x="312" y="604" type="curve" smooth="yes"/>
      <point x="222" y="604" type="line"/>
    </contour>
    <contour>
      <point x="353" y="384" type="line"/>
      <point x="410" y="384" type="line"/>
      <point x="334" y="472" type="line"/>
      <point x="280" y="472" type="line"/>
    </contour>
    <contour>
      <point x="305" y="317" type="curve" smooth="yes"/>
      <point x="215" y="317"/>
      <point x="146" y="387"/>
      <point x="146" y="488" type="curve" smooth="yes"/>
      <point x="146" y="589"/>
      <point x="215" y="659"/>
      <point x="305" y="659" type="curve" smooth="yes"/>
      <point x="396" y="659"/>
      <point x="464" y="589"/>
      <point x="464" y="488" type="curve" smooth="yes"/>
      <point x="464" y="387"/>
      <point x="396" y="317"/>
    </contour>
    <contour>
      <point x="305" y="255" type="curve" smooth="yes"/>
      <point x="429" y="255"/>
      <point x="529" y="359"/>
      <point x="529" y="488" type="curve" smooth="yes"/>
      <point x="529" y="617"/>
      <point x="429" y="721"/>
      <point x="305" y="721" type="curve" smooth="yes"/>
      <point x="182" y="721"/>
      <point x="82" y="617"/>
      <point x="82" y="488" type="curve" smooth="yes"/>
      <point x="82" y="359"/>
      <point x="182" y="255"/>
    </contour>
  </outline>
</glyph>
<glyph name="degree" format="1">
  <advance width="461"/>
  <unicode hex="00B0"/>
  <outline>
    <contour>
      <point x="270" y="376" type="curve" smooth="yes"/>
      <point x="385" y="376"/>
      <point x="475" y="464"/>
      <point x="475" y="576" type="curve" smooth="yes"/>
      <point x="475" y="666"/>
      <point x="410" y="731"/>
      <point x="321" y="731" type="curve" smooth="yes"/>
      <point x="207" y="731"/>
      <point x="116" y="643"/>
      <point x="116" y="531" type="curve" smooth="yes"/>
      <point x="116" y="441"/>
      <point x="180" y="376"/>
    </contour>
    <contour>
      <point x="280" y="459" type="curve" smooth="yes"/>
      <point x="236" y="459"/>
      <point x="207" y="492"/>
      <point x="207" y="539" type="curve" smooth="yes"/>
      <point x="207" y="600"/>
      <point x="253" y="648"/>
      <point x="311" y="648" type="curve" smooth="yes"/>
      <point x="355" y="648"/>
      <point x="384" y="615"/>
      <point x="384" y="568" type="curve" smooth="yes"/>
      <point x="384" y="507"/>
      <point x="338" y="459"/>
    </contour>
  </outline>
</glyph>
<glyph name="micro" format="2">
	<unicode hex="00B5"/>
	<advance width="632"/>
	<outline>
		<contour>
			<point x="1" y="-194" type="line"/>
			<point x="117" y="-194" type="line"/>
			<point x="178" y="95" type="line"/>
			<point x="116" y="67" type="line"/>
			<point x="126" y="14"/>
			<point x="168" y="-16"/>
			<point x="228" y="-16" type="curve" smooth="yes"/>
			<point x="316" y="-16"/>
			<point x="399" y="61"/>
			<point x="430" y="193" type="curve"/>
			<point x="401" y="155" type="line"/>
			<point x="368" y="0" type="line"/>
			<point x="483" y="0" type="line"/>
			<point x="589" y="500" type="line"/>
			<point x="473" y="500" type="line"/>
			<point x="435" y="323" type="line" smooth="yes"/>
			<point x="400" y="162"/>
			<point x="344" y="82"/>
			<point x="262" y="82" type="curve" smooth="yes"/>
			<point x="221" y="82"/>
			<point x="197" y="110"/>
			<point x="197" y="156" type="curve" smooth="yes"/>
			<point x="197" y="170"/>
			<point x="200" y="194"/>
			<point x="206" y="222" type="curve" smooth="yes"/>
			<point x="264" y="500" type="line"/>
			<point x="148" y="500" type="line"/>
		</contour>
	</outline>
</glyph>
<glyph name="paragraph" format="1">
  <advance width="593"/>
  <unicode hex="00B6"/>
  <outline>
    <contour>
      <point x="139" y="-130" type="line"/>
      <point x="246" y="-130" type="line"/>
      <point x="404" y="615" type="line"/>
      <point x="498" y="615" type="line"/>
      <point x="340" y="-130" type="line"/>
      <point x="447" y="-130" type="line"/>
      <point x="626" y="715" type="line"/>
      <point x="367" y="715" type="line" smooth="yes"/>
      <point x="199" y="715"/>
      <point x="73" y="592"/>
      <point x="73" y="441" type="curve" smooth="yes"/>
      <point x="73" y="350"/>
      <point x="130" y="286"/>
      <point x="225" y="275" type="curve"/>
    </contour>
  </outline>
</glyph>
<glyph name="ordmasculine" format="2">
	<unicode hex="00BA"/>
	<advance width="468"/>
	<outline>
		<contour>
			<point x="262" y="297" type="curve" smooth="yes"/>
			<point x="397" y="297"/>
			<point x="493" y="414"/>
			<point x="493" y="540" type="curve" smooth="yes"/>
			<point x="493" y="656"/>
			<point x="412" y="715"/>
			<point x="314" y="715" type="curve" smooth="yes"/>
			<point x="179" y="715"/>
			<point x="83" y="598"/>
			<point x="83" y="472" type="curve" smooth="yes"/>
			<point x="83" y="356"/>
			<point x="164" y="297"/>
		</contour>
		<contour>
			<point x="267" y="382" type="curve" smooth="yes"/>
			<point x="214" y="382"/>
			<point x="191" y="429"/>
			<point x="191" y="477" type="curve" smooth="yes"/>
			<point x="191" y="548"/>
			<point x="236" y="630"/>
			<point x="310" y="630" type="curve" smooth="yes"/>
			<point x="363" y="630"/>
			<point x="385" y="583"/>
			<point x="385" y="535" type="curve" smooth="yes"/>
			<point x="385" y="464"/>
			<point x="340" y="382"/>
		</contour>
	</outline>
</glyph>
<glyph name="questiondown" format="1">
  <advance width="574"/>
  <unicode hex="00BF"/>
  <outline>
    <contour>
      <point x="399" y="-35" type="line"/>
      <point x="345" y="-104"/>
      <point x="283" y="-142"/>
      <point x="222" y="-142" type="curve" smooth="yes"/>
      <point x="163" y="-142"/>
      <point x="128" y="-108"/>
      <point x="128" y="-58" type="curve" smooth="yes"/>
      <point x="128" y="-10"/>
      <point x="155" y="25"/>
      <point x="218" y="60" type="curve" smooth="yes"/>
      <point x="321" y="117"/>
      <point x="352" y="163"/>
      <point x="364" y="269" type="curve"/>
      <point x="278" y="269" type="line"/>
      <point x="265" y="206"/>
      <point x="241" y="174"/>
      <point x="174" y="138" type="curve" smooth="yes"/>
      <point x="61" y="77"/>
      <point x="10" y="13"/>
      <point x="10" y="-74" type="curve" smooth="yes"/>
      <point x="10" y="-166"/>
      <point x="90" y="-243"/>
      <point x="208" y="-243" type="curve" smooth="yes"/>
      <point x="308" y="-243"/>
      <point x="392" y="-200"/>
      <point x="467" y="-111" type="curve"/>
    </contour>
    <contour>
      <point x="270" y="412" type="curve" smooth="yes"/>
      <point x="270" y="374"/>
      <point x="297" y="347"/>
      <point x="334" y="347" type="curve" smooth="yes"/>
      <point x="386" y="347"/>
      <point x="423" y="384"/>
      <point x="423" y="437" type="curve" smooth="yes"/>
      <point x="423" y="474"/>
      <point x="396" y="500"/>
      <point x="359" y="500" type="curve" smooth="yes"/>
      <point x="307" y="500"/>
      <point x="270" y="464"/>
    </contour>
  </outline>
</glyph>
<glyph name="AE" format="2">
	<unicode hex="00C6"/>
	<advance width="1012"/>
	<outline>
		<contour>
			<point x="-26" y="0" type="line"/>
			<point x="109" y="0" type="line"/>
			<point x="671" y="715" type="line"/>
			<point x="548" y="715" type="line"/>
		</contour>
		<contour>
			<point x="206" y="168" type="line"/>
			<point x="543" y="168" type="line"/>
			<point x="564" y="270" type="line"/>
			<point x="227" y="270" type="line"/>
		</contour>
		<contour>
			<point x="455" y="0" type="line"/>
			<point x="927" y="0" type="line"/>
			<point x="949" y="102" type="line"/>
			<point x="595" y="102" type="line"/>
			<point x="704" y="613" type="line"/>
			<point x="1043" y="613" type="line"/>
			<point x="1064" y="715" type="line"/>
			<point x="606" y="715" type="line"/>
		</contour>
		<contour>
			<point x="629" y="312" type="line"/>
			<point x="961" y="312" type="line"/>
			<point x="983" y="414" type="line"/>
			<point x="651" y="414" type="line"/>
		</contour>
	</outline>
</glyph>
<glyph name="Eth" format="2">
	<unicode hex="00D0"/>
	<advance width="748"/>
	<outline>
		<contour>
			<point x="48" y="312" type="line"/>
			<point x="379" y="312" type="line"/>
			<point x="400" y="414" type="line"/>
			<point x="70" y="414" type="line"/>
		</contour>
		<contour>
			<point x="41" y="0" type="line"/>
			<point x="284" y="0" type="line" smooth="yes"/>
			<point x="538" y="0"/>
			<point x="723" y="172"/>
			<point x="723" y="427" type="curve" smooth="yes"/>
			<point x="723" y="605"/>
			<point x="605" y="715"/>
			<point x="423" y="715" type="curve" smooth="yes"/>
			<point x="192" y="715" type="line"/>
		</contour>
		<contour>
			<point x="181" y="103" type="line"/>
			<point x="290" y="612" type="line"/>
			<point x="407" y="612" type="line" smooth="yes"/>
			<point x="530" y="612"/>
			<point x="598" y="533"/>
			<point x="598" y="416" type="curve" smooth="yes"/>
			<point x="598" y="233"/>
			<point x="472" y="103"/>
			<point x="296" y="103" type="curve" smooth="yes"/>
		</contour>
	</outline>
</glyph>
<glyph name="multiply" format="2">
	<unicode hex="00D7"/>
	<advance width="633"/>
	<outline>
		<contour>
			<point x="418" y="163" type="line"/>
			<point x="496" y="228" type="line"/>
			<point x="263" y="551" type="line"/>
			<point x="185" y="486" type="line"/>
		</contour>
		<contour>
			<point x="186" y="159" type="line"/>
			<point x="552" y="483" type="line"/>
			<point x="494" y="554" type="line"/>
			<point x="129" y="231" type="line"/>
		</contour>
	</outline>
</glyph>
<glyph name="Oslash" format="1">
  <advance width="818"/>
  <unicode hex="00D8"/>
  <outline>
    <contour>
      <point x="61" y="-29" type="line"/>
      <point x="862" y="669" type="line"/>
      <point x="803" y="744" type="line"/>
      <point x="2" y="46" type="line"/>
    </contour>
    <contour>
      <point x="381" y="-16" type="curve" smooth="yes"/>
      <point x="620" y="-16"/>
      <point x="792" y="197"/>
      <point x="792" y="425" type="curve" smooth="yes"/>
      <point x="792" y="609"/>
      <point x="671" y="731"/>
      <point x="483" y="731" type="curve" smooth="yes"/>
      <point x="246" y="731"/>
      <point x="74" y="518"/>
      <point x="74" y="292" type="curve" smooth="yes"/>
      <point x="74" y="106"/>
      <point x="195" y="-16"/>
    </contour>
    <contour>
      <point x="389" y="91" type="curve" smooth="yes"/>
      <point x="268" y="91"/>
      <point x="197" y="171"/>
      <point x="197" y="299" type="curve" smooth="yes"/>
      <point x="197" y="466"/>
      <point x="318" y="624"/>
      <point x="476" y="624" type="curve" smooth="yes"/>
      <point x="596" y="624"/>
      <point x="668" y="544"/>
      <point x="668" y="416" type="curve" smooth="yes"/>
      <point x="668" y="249"/>
      <point x="547" y="91"/>
    </contour>
  </outline>
</glyph>
<glyph name="Thorn" format="1">
  <advance width="641"/>
  <unicode hex="00DE"/>
  <outline>
    <contour>
      <point x="41" y="0" type="line"/>
      <point x="160" y="0" type="line"/>
      <point x="311" y="715" type="line"/>
      <point x="192" y="715" type="line"/>
    </contour>
    <contour>
      <point x="181" y="143" type="line"/>
      <point x="329" y="143" type="line" smooth="yes"/>
      <point x="505" y="143"/>
      <point x="615" y="244"/>
      <point x="615" y="386" type="curve" smooth="yes"/>
      <point x="615" y="495"/>
      <point x="543" y="570"/>
      <point x="409" y="570" type="curve" smooth="yes"/>
      <point x="270" y="570" type="line"/>
      <point x="249" y="468" type="line"/>
      <point x="391" y="468" type="line" smooth="yes"/>
      <point x="459" y="468"/>
      <point x="495" y="434"/>
      <point x="495" y="379" type="curve" smooth="yes"/>
      <point x="495" y="300"/>
      <point x="440" y="245"/>
      <point x="344" y="245" type="curve" smooth="yes"/>
      <point x="202" y="245" type="line"/>
    </contour>
  </outline>
</glyph>
<glyph name="germandbls" format="2">
	<unicode hex="00DF"/>
	<advance width="622"/>
	<outline>
		<contour>
			<point x="17" y="0" type="line"/>
			<point x="135" y="0" type="line"/>
			<point x="231" y="455" type="line" smooth="yes"/>
			<point x="258" y="578"/>
			<point x="307" y="636"/>
			<point x="388" y="636" type="curve" smooth="yes"/>
			<point x="442" y="636"/>
			<point x="471" y="608"/>
			<point x="471" y="555" type="curve" smooth="yes"/>
			<point x="471" y="482"/>
			<point x="411" y="421"/>
			<point x="339" y="421" type="curve" smooth="yes"/>
			<point x="318" y="421" type="line"/>
			<point x="297" y="324" type="line"/>
			<point x="339" y="324" type="line" smooth="yes"/>
			<point x="407" y="324"/>
			<point x="453" y="281"/>
			<point x="453" y="217" type="curve" smooth="yes"/>
			<point x="453" y="138"/>
			<point x="401" y="78"/>
			<point x="334" y="78" type="curve" smooth="yes"/>
			<point x="300" y="78"/>
			<point x="273" y="91"/>
			<point x="249" y="115" type="curve"/>
			<point x="189" y="37" type="line"/>
			<point x="226" y="1"/>
			<point x="271" y="-16"/>
			<point x="333" y="-16" type="curve" smooth="yes"/>
			<point x="470" y="-16"/>
			<point x="572" y="87"/>
			<point x="572" y="226" type="curve" smooth="yes"/>
			<point x="572" y="331"/>
			<point x="492" y="403"/>
			<point x="370" y="403" type="curve" smooth="yes"/>
			<point x="333" y="403" type="line"/>
			<point x="321" y="352" type="line"/>
			<point x="324" y="352" type="line" smooth="yes"/>
			<point x="475" y="352"/>
			<point x="591" y="448"/>
			<point x="591" y="573" type="curve" smooth="yes"/>
			<point x="591" y="670"/>
			<point x="518" y="731"/>
			<point x="402" y="731" type="curve" smooth="yes"/>
			<point x="253" y="731"/>
			<point x="152" y="634"/>
			<point x="116" y="466" type="curve" smooth="yes"/>
		</contour>
	</outline>
</glyph>
<glyph name="ae" format="1">
  <advance width="902"/>
  <unicode hex="00E6"/>
  <outline>
    <contour>
      <point x="143" y="356" type="line"/>
      <point x="182" y="400"/>
      <point x="238" y="425"/>
      <point x="296" y="425" type="curve" smooth="yes"/>
      <point x="373" y="425"/>
      <point x="404" y="379"/>
      <point x="386" y="292" type="curve" smooth="yes"/>
      <point x="381" y="265" type="line"/>
      <point x="471" y="260" type="line"/>
      <point x="476" y="282" type="line" smooth="yes"/>
      <point x="503" y="429"/>
      <point x="440" y="516"/>
      <point x="304" y="516" type="curve" smooth="yes"/>
      <point x="220" y="516"/>
      <point x="137" y="484"/>
      <point x="84" y="430" type="curve"/>
    </contour>
    <contour>
      <point x="273" y="299" type="line" smooth="yes"/>
      <point x="114" y="299"/>
      <point x="14" y="234"/>
      <point x="14" y="132" type="curve" smooth="yes"/>
      <point x="14" y="43"/>
      <point x="83" y="-16"/>
      <point x="186" y="-16" type="curve" smooth="yes"/>
      <point x="320" y="-16"/>
      <point x="419" y="77"/>
      <point x="449" y="229" type="curve"/>
      <point x="381" y="247" type="line"/>
      <point x="356" y="140"/>
      <point x="290" y="72"/>
      <point x="212" y="72" type="curve" smooth="yes"/>
      <point x="164" y="72"/>
      <point x="133" y="98"/>
      <point x="133" y="138" type="curve" smooth="yes"/>
      <point x="133" y="189"/>
      <point x="185" y="221"/>
      <point x="271" y="221" type="curve" smooth="yes"/>
      <point x="409" y="221" type="line"/>
      <point x="426" y="299" type="line"/>
    </contour>
    <contour>
      <point x="772" y="154" type="line"/>
      <point x="732" y="105"/>
      <point x="680" y="78"/>
      <point x="624" y="78" type="curve" smooth="yes"/>
      <point x="544" y="78"/>
      <point x="495" y="128"/>
      <point x="495" y="207" type="curve" smooth="yes"/>
      <point x="495" y="333"/>
      <point x="568" y="423"/>
      <point x="669" y="423" type="curve" smooth="yes"/>
      <point x="718" y="423"/>
      <point x="753" y="396"/>
      <point x="753" y="357" type="curve" smooth="yes"/>
      <point x="753" y="318"/>
      <point x="718" y="296"/>
      <point x="655" y="296" type="curve" smooth="yes"/>
      <point x="455" y="296" type="line"/>
      <point x="455" y="217" type="line"/>
      <point x="664" y="217" type="line" smooth="yes"/>
      <point x="792" y="217"/>
      <point x="867" y="270"/>
      <point x="867" y="360" type="curve" smooth="yes"/>
      <point x="867" y="452"/>
      <point x="786" y="516"/>
      <point x="673" y="516" type="curve" smooth="yes"/>
      <point x="518" y="516"/>
      <point x="396" y="380"/>
      <point x="396" y="208" type="curve" smooth="yes"/>
      <point x="396" y="70"/>
      <point x="482" y="-16"/>
      <point x="619" y="-16" type="curve" smooth="yes"/>
      <point x="703" y="-16"/>
      <point x="773" y="15"/>
      <point x="830" y="77" type="curve"/>
    </contour>
  </outline>
</glyph>
<glyph name="eth" format="1">
  <advance width="609"/>
  <unicode hex="00F0"/>
  <outline>
    <contour>
      <point x="466" y="236" type="line"/>
      <point x="474" y="272"/>
      <point x="477" y="303"/>
      <point x="477" y="329" type="curve" smooth="yes"/>
      <point x="477" y="430"/>
      <point x="412" y="488"/>
      <point x="309" y="488" type="curve" smooth="yes"/>
      <point x="161" y="488"/>
      <point x="39" y="355"/>
      <point x="39" y="188" type="curve" smooth="yes"/>
      <point x="39" y="65"/>
      <point x="121" y="-16"/>
      <point x="246" y="-16" type="curve" smooth="yes"/>
      <point x="437" y="-16"/>
      <point x="573" y="156"/>
      <point x="573" y="394" type="curve" smooth="yes"/>
      <point x="573" y="555"/>
      <point x="501" y="687"/>
      <point x="366" y="770" type="curve"/>
      <point x="265" y="732" type="line"/>
      <point x="402" y="634"/>
      <point x="465" y="521"/>
      <point x="465" y="373" type="curve" smooth="yes"/>
      <point x="465" y="329"/>
      <point x="460" y="283"/>
      <point x="449" y="236" type="curve"/>
    </contour>
    <contour>
      <point x="267" y="82" type="curve" smooth="yes"/>
      <point x="199" y="82"/>
      <point x="159" y="126"/>
      <point x="159" y="198" type="curve" smooth="yes"/>
      <point x="159" y="310"/>
      <point x="229" y="394"/>
      <point x="322" y="394" type="curve" smooth="yes"/>
      <point x="392" y="394"/>
      <point x="437" y="349"/>
      <point x="437" y="279" type="curve" smooth="yes"/>
      <point x="437" y="173"/>
      <point x="358" y="82"/>
    </contour>
    <contour>
      <point x="276" y="530" type="line"/>
      <point x="601" y="665" type="line"/>
      <point x="573" y="740" type="line"/>
      <point x="245" y="605" type="line"/>
    </contour>
  </outline>
</glyph>
<glyph name="divide" format="2">
	<unicode hex="00F7"/>
	<advance width="632"/>
	<outline>
		<contour>
			<point x="113" y="310" type="line"/>
			<point x="545" y="310" type="line"/>
			<point x="565" y="405" type="line"/>
			<point x="133" y="405" type="line"/>
		</contour>
		<contour>
			<point x="305" y="520" type="curve" smooth="yes"/>
			<point x="305" y="485"/>
			<point x="328" y="463"/>
			<point x="361" y="463" type="curve" smooth="yes"/>
			<point x="409" y="463"/>
			<point x="448" y="504"/>
			<point x="448" y="545" type="curve" smooth="yes"/>
			<point x="448" y="579"/>
			<point x="424" y="602"/>
			<point x="391" y="602" type="curve" smooth="yes"/>
			<point x="344" y="602"/>
			<point x="305" y="561"/>
		</contour>
		<contour>
			<point x="230" y="170" type="curve"/>
			<point x="230" y="136"/>
			<point x="254" y="113"/>
			<point x="287" y="113" type="curve" smooth="yes"/>
			<point x="334" y="113"/>
			<point x="373" y="154"/>
			<point x="373" y="195" type="curve" smooth="yes"/>
			<point x="373" y="229"/>
			<point x="350" y="252"/>
			<point x="317" y="252" type="curve" smooth="yes"/>
			<point x="269" y="252"/>
			<point x="230" y="211"/>
		</contour>
	</outline>
</glyph>
<glyph name="oslash" format="2">
	<unicode hex="00F8"/>
	<advance width="604"/>
	<outline>
		<contour>
			<point x="31" y="-31" type="line"/>
			<point x="618" y="472" type="line"/>
			<point x="572" y="530" type="line"/>
			<point x="-14" y="28" type="line"/>
		</contour>
		<contour>
			<point x="45" y="208" type="curve" smooth="yes"/>
			<point x="45" y="71"/>
			<point x="134" y="-16"/>
			<point x="277" y="-16" type="curve" smooth="yes"/>
			<point x="433" y="-16"/>
			<point x="562" y="123"/>
			<point x="562" y="292" type="curve" smooth="yes"/>
			<point x="562" y="429"/>
			<point x="472" y="516"/>
			<point x="329" y="516" type="curve" smooth="yes"/>
			<point x="173" y="516"/>
			<point x="45" y="378"/>
		</contour>
		<contour>
			<point x="277" y="82" type="curve" smooth="yes"/>
			<point x="206" y="82"/>
			<point x="164" y="132"/>
			<point x="164" y="208" type="curve" smooth="yes"/>
			<point x="164" y="324"/>
			<point x="237" y="418"/>
			<point x="329" y="418" type="curve" smooth="yes"/>
			<point x="401" y="418"/>
			<point x="443" y="368"/>
			<point x="443" y="292" type="curve" smooth="yes"/>
			<point x="443" y="176"/>
			<point x="369" y="82"/>
		</contour>
	</outline>
</glyph>
<glyph name="thorn" format="1">
  <advance width="628"/>
  <unicode hex="00FE"/>
  <outline>
    <contour>
      <point x="-18" y="-194" type="line"/>
      <point x="98" y="-194" type="line"/>
      <point x="176" y="175" type="line" smooth="yes"/>
      <point x="210" y="335"/>
      <point x="275" y="418"/>
      <point x="359" y="418" type="curve" smooth="yes"/>
      <point x="428" y="418"/>
      <point x="468" y="369"/>
      <point x="468" y="290" type="curve" smooth="yes"/>
      <point x="468" y="173"/>
      <point x="392" y="82"/>
      <point x="300" y="82" type="curve" smooth="yes"/>
      <point x="231" y="82"/>
      <point x="171" y="133"/>
      <point x="166" y="195" type="curve"/>
      <point x="129" y="150" type="line"/>
      <point x="136" y="51"/>
      <point x="211" y="-16"/>
      <point x="316" y="-16" type="curve" smooth="yes"/>
      <point x="465" y="-16"/>
      <point x="588" y="124"/>
      <point x="588" y="302" type="curve" smooth="yes"/>
      <point x="588" y="429"/>
      <point x="519" y="516"/>
      <point x="404" y="516" type="curve" smooth="yes"/>
      <point x="313" y="516"/>
      <point x="237" y="458"/>
      <point x="196" y="351" type="curve"/>
      <point x="213" y="353" type="line"/>
      <point x="291" y="720" type="line"/>
      <point x="175" y="720" type="line"/>
    </contour>
  </outline>
</glyph>
<glyph name="dcroat" format="2">
	<unicode hex="0111"/>
	<advance width="632"/>
	<outline>
		<contour>
			<point x="358" y="558" type="line"/>
			<point x="690" y="558" type="line"/>
			<point x="708" y="644" type="line"/>
			<point x="376" y="644" type="line"/>
		</contour>
		<contour>
			<point x="384" y="0" type="line"/>
			<point x="498" y="0" type="line"/>
			<point x="650" y="720" type="line"/>
			<point x="536" y="720" type="line"/>
			<point x="454" y="330" type="line"/>
			<point x="483" y="339" type="line"/>
			<point x="482" y="441"/>
			<point x="420" y="503"/>
			<point x="313" y="503" type="curve" smooth="yes"/>
			<point x="163" y="503"/>
			<point x="39" y="365"/>
			<point x="39" y="198" type="curve" smooth="yes"/>
			<point x="39" y="67"/>
			<point x="111" y="-16"/>
			<point x="224" y="-16" type="curve" smooth="yes"/>
			<point x="338" y="-16"/>
			<point x="420" y="66"/>
			<point x="459" y="220" type="curve"/>
			<point x="435" y="248" type="line"/>
			<point x="403" y="145"/>
			<point x="338" y="79"/>
			<point x="266" y="79" type="curve" smooth="yes"/>
			<point x="200" y="79"/>
			<point x="160" y="124"/>
			<point x="160" y="202" type="curve" smooth="yes"/>
			<point x="160" y="316"/>
			<point x="235" y="407"/>
			<point x="326" y="407" type="curve" smooth="yes"/>
			<point x="394" y="407"/>
			<point x="435" y="360"/>
			<point x="435" y="280" type="curve" smooth="yes"/>
			<point x="435" y="255"/>
			<point x="433" y="234"/>
			<point x="427" y="209" type="curve" smooth="yes"/>
		</contour>
	</outline>
</glyph>
<glyph name="Hbar" format="2">
	<unicode hex="0126"/>
	<advance width="741"/>
	<outline>
		<contour>
			<point x="91" y="520" type="line"/>
			<point x="765" y="520" type="line"/>
			<point x="785" y="617" type="line"/>
			<point x="111" y="617" type="line"/>
		</contour>
		<contour>
			<point x="479" y="0" type="line"/>
			<point x="598" y="0" type="line"/>
			<point x="749" y="715" type="line"/>
			<point x="630" y="715" type="line"/>
		</contour>
		<contour>
			<point x="41" y="0" type="line"/>
			<point x="160" y="0" type="line"/>
			<point x="311" y="715" type="line"/>
			<point x="192" y="715" type="line"/>
		</contour>
		<contour>
			<point x="217" y="317" type="line"/>
			<point x="555" y="317" type="line"/>
			<point x="577" y="420" type="line"/>
			<point x="239" y="420" type="line"/>
		</contour>
	</outline>
</glyph>
<glyph name="hbar" format="1">
  <advance width="594"/>
  <unicode hex="0127"/>
  <outline>
    <contour>
      <point x="76" y="558" type="line"/>
      <point x="408" y="558" type="line"/>
      <point x="426" y="644" type="line"/>
      <point x="95" y="644" type="line"/>
    </contour>
    <contour>
      <point x="33" y="0" type="line"/>
      <point x="148" y="0" type="line"/>
      <point x="183" y="166" type="line" smooth="yes"/>
      <point x="216" y="322"/>
      <point x="275" y="404"/>
      <point x="356" y="404" type="curve" smooth="yes"/>
      <point x="401" y="404"/>
      <point x="427" y="377"/>
      <point x="427" y="330" type="curve" smooth="yes"/>
      <point x="427" y="314"/>
      <point x="422" y="286"/>
      <point x="418" y="265" type="curve" smooth="yes"/>
      <point x="362" y="0" type="line"/>
      <point x="479" y="0" type="line"/>
      <point x="533" y="261" type="line" smooth="yes"/>
      <point x="539" y="290"/>
      <point x="545" y="322"/>
      <point x="545" y="349" type="curve" smooth="yes"/>
      <point x="545" y="446"/>
      <point x="489" y="503"/>
      <point x="402" y="503" type="curve" smooth="yes"/>
      <point x="307" y="503"/>
      <point x="219" y="421"/>
      <point x="188" y="293" type="curve"/>
      <point x="218" y="332" type="line"/>
      <point x="301" y="720" type="line"/>
      <point x="186" y="720" type="line"/>
    </contour>
  </outline>
</glyph>
<glyph name="dotlessi" format="2">
	<unicode hex="0131"/>
	<advance width="255"/>
	<outline>
		<contour>
			<point x="20" y="0" type="line"/>
			<point x="136" y="0" type="line"/>
			<point x="242" y="500" type="line"/>
			<point x="126" y="500" type="line"/>
		</contour>
	</outline>
	<anchor name="top.LC" x="193" y="544"/>
</glyph>
<glyph name="IJ" format="2">
	<unicode hex="0132"/>
	<advance width="689"/>
	<outline>
		<contour>
			<point x="100" y="340" type="line"/>
			<point x="218" y="340" type="line"/>
			<point x="296" y="715" type="line"/>
			<point x="178" y="715" type="line"/>
		</contour>
		<contour>
			<point x="81" y="239" type="line"/>
			<point x="78" y="222"/>
			<point x="77" y="205"/>
			<point x="77" y="190" type="curve" smooth="yes"/>
			<point x="77" y="61"/>
			<point x="175" y="-16"/>
			<point x="297" y="-16" type="curve" smooth="yes"/>
			<point x="475" y="-16"/>
			<point x="570" y="78"/>
			<point x="610" y="270" type="curve" smooth="yes"/>
			<point x="706" y="715" type="line"/>
			<point x="587" y="715" type="line"/>
			<point x="494" y="278" type="line" smooth="yes"/>
			<point x="468" y="154"/>
			<point x="410" y="91"/>
			<point x="314" y="91" type="curve" smooth="yes"/>
			<point x="232" y="91"/>
			<point x="194" y="139"/>
			<point x="194" y="217" type="curve" smooth="yes"/>
			<point x="194" y="228"/>
			<point x="195" y="241"/>
			<point x="197" y="253" type="curve"/>
		</contour>
	</outline>
	<anchor name="top.UC_1" x="242" y="750"/>
	<anchor name="top.UC_2" x="648" y="750"/>
</glyph>
<glyph name="kgreenlandic" format="2">
	<unicode hex="0138"/>
	<advance width="570"/>
	<outline>
		<contour>
			<point x="22" y="0" type="line"/>
			<point x="136" y="0" type="line"/>
			<point x="242" y="500" type="line"/>
			<point x="128" y="500" type="line"/>
		</contour>
		<contour>
			<point x="359" y="0" type="line"/>
			<point x="505" y="0" type="line"/>
			<point x="299" y="269" type="line"/>
			<point x="295" y="247" type="line"/>
			<point x="587" y="500" type="line"/>
			<point x="447" y="500" type="line"/>
			<point x="174" y="260" type="line"/>
			<point x="164" y="260" type="line"/>
		</contour>
	</outline>
</glyph>
<glyph name="Lslash" format="1">
  <advance width="578"/>
  <unicode hex="0141"/>
  <outline>
    <contour>
      <point x="40" y="192" type="line"/>
      <point x="426" y="419" type="line"/>
      <point x="394" y="504" type="line"/>
      <point x="9" y="276" type="line"/>
    </contour>
    <contour>
      <point x="47" y="0" type="line"/>
      <point x="491" y="0" type="line"/>
      <point x="513" y="105" type="line"/>
      <point x="189" y="105" type="line"/>
      <point x="318" y="715" type="line"/>
      <point x="199" y="715" type="line"/>
    </contour>
  </outline>
</glyph>
<glyph name="lslash" format="2">
	<unicode hex="0142"/>
	<advance width="329"/>
	<outline>
		<contour>
			<point x="44" y="242" type="line"/>
			<point x="365" y="428" type="line"/>
			<point x="338" y="506" type="line"/>
			<point x="17" y="320" type="line"/>
		</contour>
		<contour>
			<point x="80" y="160" type="line" smooth="yes"/>
			<point x="74" y="135"/>
			<point x="72" y="116"/>
			<point x="72" y="101" type="curve" smooth="yes"/>
			<point x="72" y="31"/>
			<point x="110" y="0"/>
			<point x="189" y="0" type="curve" smooth="yes"/>
			<point x="256" y="0" type="line"/>
			<point x="276" y="97" type="line"/>
			<point x="226" y="97" type="line" smooth="yes"/>
			<point x="202" y="97"/>
			<point x="192" y="108"/>
			<point x="192" y="129" type="curve" smooth="yes"/>
			<point x="192" y="139"/>
			<point x="193" y="147"/>
			<point x="196" y="163" type="curve" smooth="yes"/>
			<point x="315" y="720" type="line"/>
			<point x="199" y="720" type="line"/>
		</contour>
	</outline>
</glyph>
<glyph name="Eng" format="1">
  <advance width="754"/>
  <unicode hex="014A"/>
  <outline>
    <contour>
      <point x="164" y="-143" type="line"/>
      <point x="195" y="-182"/>
      <point x="257" y="-204"/>
      <point x="326" y="-204" type="curve" smooth="yes"/>
      <point x="491" y="-204"/>
      <point x="585" y="-111"/>
      <point x="626" y="81" type="curve" smooth="yes"/>
      <point x="759" y="715" type="line"/>
      <point x="643" y="715" type="line"/>
      <point x="509" y="79" type="line" smooth="yes"/>
      <point x="484" y="-40"/>
      <point x="430" y="-97"/>
      <point x="342" y="-97" type="curve" smooth="yes"/>
      <point x="292" y="-97"/>
      <point x="262" y="-83"/>
      <point x="239" y="-58" type="curve"/>
    </contour>
    <contour>
      <point x="41" y="0" type="line"/>
      <point x="157" y="0" type="line"/>
      <point x="283" y="598" type="line"/>
      <point x="246" y="598" type="line"/>
      <point x="490" y="-15" type="line"/>
      <point x="557" y="114" type="line"/>
      <point x="317" y="715" type="line"/>
      <point x="192" y="715" type="line"/>
    </contour>
  </outline>
</glyph>
<glyph name="eng" format="1">
  <advance width="587"/>
  <unicode hex="014B"/>
  <outline>
    <contour>
      <point x="22" y="0" type="line"/>
      <point x="138" y="0" type="line"/>
      <point x="176" y="180" type="line" smooth="yes"/>
      <point x="211" y="340"/>
      <point x="268" y="418"/>
      <point x="349" y="418" type="curve" smooth="yes"/>
      <point x="393" y="418"/>
      <point x="419" y="390"/>
      <point x="419" y="343" type="curve" smooth="yes"/>
      <point x="419" y="328"/>
      <point x="416" y="304"/>
      <point x="409" y="273" type="curve" smooth="yes"/>
      <point x="344" y="-41" type="line" smooth="yes"/>
      <point x="335" y="-83"/>
      <point x="318" y="-98"/>
      <point x="280" y="-98" type="curve" smooth="yes"/>
      <point x="247" y="-98" type="line"/>
      <point x="227" y="-194" type="line"/>
      <point x="302" y="-194" type="line" smooth="yes"/>
      <point x="386" y="-194"/>
      <point x="437" y="-152"/>
      <point x="456" y="-60" type="curve" smooth="yes"/>
      <point x="527" y="277" type="line" smooth="yes"/>
      <point x="535" y="315"/>
      <point x="538" y="341"/>
      <point x="538" y="363" type="curve" smooth="yes"/>
      <point x="538" y="458"/>
      <point x="480" y="516"/>
      <point x="398" y="516" type="curve" smooth="yes"/>
      <point x="318" y="516"/>
      <point x="247" y="465"/>
      <point x="205" y="375" type="curve"/>
      <point x="216" y="373" type="line"/>
      <point x="243" y="500" type="line"/>
      <point x="128" y="500" type="line"/>
    </contour>
  </outline>
</glyph>
<glyph name="OE" format="1">
  <advance width="1140"/>
  <unicode hex="0152"/>
  <outline>
    <contour>
      <point x="352" y="-16" type="curve" smooth="yes"/>
      <point x="544" y="-16"/>
      <point x="705" y="148"/>
      <point x="749" y="358" type="curve" smooth="yes"/>
      <point x="756" y="396"/>
      <point x="759" y="428"/>
      <point x="759" y="455" type="curve" smooth="yes"/>
      <point x="759" y="621"/>
      <point x="660" y="731"/>
      <point x="487" y="731" type="curve" smooth="yes"/>
      <point x="250" y="731"/>
      <point x="70" y="516"/>
      <point x="70" y="276" type="curve" smooth="yes"/>
      <point x="70" y="102"/>
      <point x="181" y="-16"/>
    </contour>
    <contour>
      <point x="374" y="91" type="curve" smooth="yes"/>
      <point x="265" y="91"/>
      <point x="194" y="171"/>
      <point x="194" y="284" type="curve" smooth="yes"/>
      <point x="194" y="467"/>
      <point x="311" y="624"/>
      <point x="482" y="624" type="curve" smooth="yes"/>
      <point x="598" y="624"/>
      <point x="664" y="547"/>
      <point x="664" y="430" type="curve" smooth="yes"/>
      <point x="664" y="407"/>
      <point x="662" y="385"/>
      <point x="656" y="358" type="curve" smooth="yes"/>
      <point x="623" y="202"/>
      <point x="507" y="91"/>
    </contour>
    <contour>
      <point x="582" y="0" type="line"/>
      <point x="1054" y="0" type="line"/>
      <point x="1076" y="102" type="line"/>
      <point x="723" y="102" type="line"/>
      <point x="831" y="613" type="line"/>
      <point x="1170" y="613" type="line"/>
      <point x="1192" y="715" type="line"/>
      <point x="733" y="715" type="line"/>
    </contour>
    <contour>
      <point x="757" y="312" type="line"/>
      <point x="1088" y="312" type="line"/>
      <point x="1110" y="414" type="line"/>
      <point x="779" y="414" type="line"/>
    </contour>
  </outline>
</glyph>
<glyph name="oe" format="1">
  <advance width="952"/>
  <unicode hex="0153"/>
  <outline>
    <contour>
      <point x="505" y="217" type="line"/>
      <point x="714" y="217" type="line" smooth="yes"/>
      <point x="841" y="217"/>
      <point x="915" y="270"/>
      <point x="915" y="360" type="curve" smooth="yes"/>
      <point x="915" y="452"/>
      <point x="836" y="516"/>
      <point x="724" y="516" type="curve" smooth="yes"/>
      <point x="569" y="516"/>
      <point x="446" y="377"/>
      <point x="446" y="203" type="curve" smooth="yes"/>
      <point x="446" y="67"/>
      <point x="530" y="-16"/>
      <point x="669" y="-16" type="curve" smooth="yes"/>
      <point x="752" y="-16"/>
      <point x="823" y="15"/>
      <point x="880" y="77" type="curve"/>
      <point x="822" y="154" type="line"/>
      <point x="782" y="105"/>
      <point x="730" y="78"/>
      <point x="674" y="78" type="curve" smooth="yes"/>
      <point x="594" y="78"/>
      <point x="545" y="128"/>
      <point x="545" y="207" type="curve" smooth="yes"/>
      <point x="545" y="333"/>
      <point x="618" y="423"/>
      <point x="719" y="423" type="curve" smooth="yes"/>
      <point x="770" y="423"/>
      <point x="805" y="396"/>
      <point x="805" y="357" type="curve" smooth="yes"/>
      <point x="805" y="318"/>
      <point x="770" y="296"/>
      <point x="705" y="296" type="curve" smooth="yes"/>
      <point x="505" y="296" type="line"/>
    </contour>
    <contour>
      <point x="255" y="-16" type="curve" smooth="yes"/>
      <point x="409" y="-16"/>
      <point x="529" y="124"/>
      <point x="529" y="302" type="curve" smooth="yes"/>
      <point x="529" y="435"/>
      <point x="451" y="516"/>
      <point x="327" y="516" type="curve" smooth="yes"/>
      <point x="169" y="516"/>
      <point x="41" y="378"/>
      <point x="41" y="208" type="curve" smooth="yes"/>
      <point x="41" y="74"/>
      <point x="127" y="-16"/>
    </contour>
    <contour>
      <point x="273" y="82" type="curve" smooth="yes"/>
      <point x="205" y="82"/>
      <point x="161" y="132"/>
      <point x="161" y="208" type="curve" smooth="yes"/>
      <point x="161" y="324"/>
      <point x="234" y="418"/>
      <point x="325" y="418" type="curve" smooth="yes"/>
      <point x="394" y="418"/>
      <point x="437" y="368"/>
      <point x="437" y="292" type="curve" smooth="yes"/>
      <point x="437" y="176"/>
      <point x="364" y="82"/>
    </contour>
  </outline>
</glyph>
<glyph name="Tbar" format="2">
	<unicode hex="0166"/>
	<advance width="600"/>
	<outline>
		<contour>
			<point x="109" y="312" type="line"/>
			<point x="518" y="312" type="line"/>
			<point x="539" y="414" type="line"/>
			<point x="131" y="414" type="line"/>
		</contour>
		<contour>
			<point x="189" y="0" type="line"/>
			<point x="308" y="0" type="line"/>
			<point x="439" y="621" type="line"/>
			<point x="320" y="621" type="line"/>
		</contour>
		<contour>
			<point x="111" y="611" type="line"/>
			<point x="644" y="611" type="line"/>
			<point x="666" y="715" type="line"/>
			<point x="133" y="715" type="line"/>
		</contour>
	</outline>
</glyph>
<glyph name="tbar" format="1">
  <advance width="383"/>
  <unicode hex="0167"/>
  <outline>
    <contour>
      <point x="65" y="405" type="line"/>
      <point x="373" y="405" type="line"/>
      <point x="393" y="500" type="line"/>
      <point x="86" y="500" type="line"/>
    </contour>
    <contour>
      <point x="28" y="227" type="line"/>
      <point x="335" y="227" type="line"/>
      <point x="354" y="315" type="line"/>
      <point x="47" y="315" type="line"/>
    </contour>
    <contour>
      <point x="96" y="168" type="line" smooth="yes"/>
      <point x="91" y="143"/>
      <point x="88" y="122"/>
      <point x="88" y="105" type="curve" smooth="yes"/>
      <point x="88" y="34"/>
      <point x="128" y="0"/>
      <point x="219" y="0" type="curve" smooth="yes"/>
      <point x="298" y="0" type="line"/>
      <point x="318" y="97" type="line"/>
      <point x="252" y="97" type="line" smooth="yes"/>
      <point x="219" y="97"/>
      <point x="208" y="107"/>
      <point x="208" y="133" type="curve" smooth="yes"/>
      <point x="208" y="142"/>
      <point x="210" y="153"/>
      <point x="213" y="168" type="curve" smooth="yes"/>
      <point x="312" y="636" type="line"/>
      <point x="196" y="636" type="line"/>
    </contour>
  </outline>
</glyph>
<glyph name="dotlessj" format="2">
	<unicode hex="0237"/>
	<advance width="255"/>
	<outline>
		<contour>
			<point x="-101" y="-194" type="line"/>
			<point x="-34" y="-194" type="line" smooth="yes"/>
			<point x="56" y="-194"/>
			<point x="104" y="-153"/>
			<point x="124" y="-58" type="curve" smooth="yes"/>
			<point x="242" y="500" type="line"/>
			<point x="126" y="500" type="line"/>
			<point x="12" y="-40" type="line" smooth="yes"/>
			<point x="3" y="-80"/>
			<point x="-13" y="-98"/>
			<point x="-49" y="-98" type="curve" smooth="yes"/>
			<point x="-81" y="-98" type="line"/>
		</contour>
	</outline>
	<anchor name="top.LC" x="192" y="544"/>
</glyph>
<glyph name="gravecomb" format="2">
	<unicode hex="0300"/>
	<outline>
		<contour>
			<point x="-46" y="587" type="line"/>
			<point x="50" y="587" type="line"/>
			<point x="-20" y="761" type="line"/>
			<point x="-146" y="761" type="line"/>
		</contour>
	</outline>
	<anchor name="_top.LC" x="0" y="544"/>
</glyph>
<glyph name="acutecomb" format="1">
  <advance width="0"/>
  <unicode hex="0301"/>
  <outline>
    <contour>
      <point x="-79" y="587" type="line"/>
      <point x="20" y="587" type="line"/>
      <point x="196" y="761" type="line"/>
      <point x="62" y="761" type="line"/>
    </contour>
    <contour>
      <point x="0" y="544" type="move" name="_top.LC"/>
    </contour>
  </outline>
</glyph>
<glyph name="circumflexcomb" format="2">
	<unicode hex="0302"/>
	<outline>
		<contour>
			<point x="-165" y="587" type="line"/>
			<point x="-64" y="587" type="line"/>
			<point x="89" y="745" type="line"/>
			<point x="1" y="745" type="line"/>
			<point x="87" y="587" type="line"/>
			<point x="189" y="587" type="line"/>
			<point x="109" y="761" type="line"/>
			<point x="-10" y="761" type="line"/>
		</contour>
	</outline>
	<anchor name="_top.LC" x="0" y="544"/>
</glyph>
<glyph name="tildecomb" format="1">
  <advance width="0"/>
  <unicode hex="0303"/>
  <outline>
    <contour>
      <point x="-44" y="733" type="curve" smooth="yes"/>
      <point x="-96" y="733"/>
      <point x="-138" y="695"/>
      <point x="-165" y="628" type="curve"/>
      <point x="-98" y="591" type="line"/>
      <point x="-83" y="630"/>
      <point x="-67" y="650"/>
      <point x="-49" y="650" type="curve" smooth="yes"/>
      <point x="-38" y="650"/>
      <point x="-31" y="646"/>
      <point x="-9" y="625" type="curve" smooth="yes"/>
      <point x="21" y="597"/>
      <point x="47" y="585"/>
      <point x="77" y="585" type="curve" smooth="yes"/>
      <point x="129" y="585"/>
      <point x="172" y="623"/>
      <point x="198" y="690" type="curve"/>
      <point x="131" y="727" type="line"/>
      <point x="117" y="688"/>
      <point x="101" y="668"/>
      <point x="82" y="668" type="curve" smooth="yes"/>
      <point x="72" y="668"/>
      <point x="66" y="672"/>
      <point x="43" y="692" type="curve" smooth="yes"/>
      <point x="12" y="720"/>
      <point x="-13" y="733"/>
    </contour>
    <contour>
      <point x="0" y="544" type="move" name="_top.LC"/>
    </contour>
  </outline>
</glyph>
<glyph name="macroncomb" format="1">
  <advance width="0"/>
  <unicode hex="0304"/>
  <outline>
    <contour>
      <point x="-140" y="608" type="line"/>
      <point x="142" y="608" type="line"/>
      <point x="159" y="692" type="line"/>
      <point x="-123" y="692" type="line"/>
    </contour>
    <contour>
      <point x="0" y="544" type="move" name="_top.LC"/>
    </contour>
  </outline>
</glyph>
<glyph name="brevecomb" format="2">
	<unicode hex="0306"/>
	<outline>
		<contour>
			<point x="-115" y="743" type="line"/>
			<point x="-117" y="729"/>
			<point x="-117" y="723"/>
			<point x="-117" y="716" type="curve" smooth="yes"/>
			<point x="-117" y="636"/>
			<point x="-67" y="584"/>
			<point x="10" y="584" type="curve" smooth="yes"/>
			<point x="107" y="584"/>
			<point x="169" y="636"/>
			<point x="200" y="743" type="curve"/>
			<point x="113" y="743" type="line"/>
			<point x="95" y="690"/>
			<point x="66" y="664"/>
			<point x="25" y="664" type="curve" smooth="yes"/>
			<point x="-9" y="664"/>
			<point x="-29" y="688"/>
			<point x="-29" y="730" type="curve" smooth="yes"/>
			<point x="-29" y="734"/>
			<point x="-29" y="739"/>
			<point x="-29" y="743" type="curve"/>
		</contour>
	</outline>
	<anchor name="_top.LC" x="0" y="544"/>
</glyph>
<glyph name="dotaccentcomb" format="1">
  <advance width="0"/>
  <unicode hex="0307"/>
  <outline>
    <contour>
      <point x="13" y="601" type="curve" smooth="yes"/>
      <point x="63" y="601"/>
      <point x="98" y="638"/>
      <point x="98" y="685" type="curve" smooth="yes"/>
      <point x="98" y="717"/>
      <point x="75" y="740"/>
      <point x="42" y="740" type="curve" smooth="yes"/>
      <point x="-7" y="740"/>
      <point x="-43" y="703"/>
      <point x="-43" y="656" type="curve" smooth="yes"/>
      <point x="-43" y="623"/>
      <point x="-20" y="601"/>
    </contour>
    <contour>
      <point x="0" y="544" type="move" name="_top.LC"/>
    </contour>
  </outline>
</glyph>
<glyph name="dieresiscomb" format="1">
  <advance width="0"/>
  <unicode hex="0308"/>
  <outline>
    <contour>
      <point x="-90" y="601" type="curve" smooth="yes"/>
      <point x="-41" y="601"/>
      <point x="-5" y="638"/>
      <point x="-5" y="685" type="curve" smooth="yes"/>
      <point x="-5" y="717"/>
      <point x="-27" y="740"/>
      <point x="-61" y="740" type="curve" smooth="yes"/>
      <point x="-111" y="740"/>
      <point x="-146" y="702"/>
      <point x="-146" y="656" type="curve" smooth="yes"/>
      <point x="-146" y="624"/>
      <point x="-124" y="601"/>
    </contour>
    <contour>
      <point x="118" y="601" type="curve" smooth="yes"/>
      <point x="167" y="601"/>
      <point x="203" y="638"/>
      <point x="203" y="685" type="curve" smooth="yes"/>
      <point x="203" y="717"/>
      <point x="180" y="740"/>
      <point x="147" y="740" type="curve" smooth="yes"/>
      <point x="97" y="740"/>
      <point x="61" y="702"/>
      <point x="61" y="656" type="curve" smooth="yes"/>
      <point x="61" y="624"/>
      <point x="84" y="601"/>
    </contour>
    <contour>
      <point x="0" y="544" type="move" name="_top.LC"/>
    </contour>
  </outline>
</glyph>
<glyph name="ringcomb" format="2">
	<unicode hex="030A"/>
	<outline>
		<contour>
			<point x="52" y="795" type="curve" smooth="yes"/>
			<point x="-31" y="795"/>
			<point x="-90" y="735"/>
			<point x="-90" y="652" type="curve" smooth="yes"/>
			<point x="-90" y="601"/>
			<point x="-48" y="560"/>
			<point x="4" y="560" type="curve"/>
			<point x="86" y="560"/>
			<point x="145" y="620"/>
			<point x="145" y="703" type="curve" smooth="yes"/>
			<point x="145" y="754"/>
			<point x="104" y="795"/>
		</contour>
		<contour>
			<point x="38" y="731" type="curve" smooth="yes"/>
			<point x="62" y="731"/>
			<point x="78" y="714"/>
			<point x="78" y="689" type="curve" smooth="yes"/>
			<point x="78" y="651"/>
			<point x="51" y="624"/>
			<point x="17" y="624" type="curve"/>
			<point x="-7" y="624"/>
			<point x="-22" y="641"/>
			<point x="-22" y="666" type="curve" smooth="yes"/>
			<point x="-22" y="704"/>
			<point x="4" y="731"/>
		</contour>
	</outline>
	<anchor name="_top.LC" x="0" y="544"/>
</glyph>
<glyph name="hungarumlautcomb" format="2">
	<unicode hex="030B"/>
	<outline>
		<contour>
			<point x="-166" y="587" type="line"/>
			<point x="-62" y="587" type="line"/>
			<point x="123" y="761" type="line"/>
			<point x="-8" y="761" type="line"/>
		</contour>
		<contour>
			<point x="10" y="587" type="line"/>
			<point x="114" y="587" type="line"/>
			<point x="314" y="761" type="line"/>
			<point x="183" y="761" type="line"/>
		</contour>
	</outline>
	<anchor name="_top.LC" x="0" y="544"/>
</glyph>
<glyph name="caroncomb" format="2">
	<unicode hex="030C"/>
	<outline>
		<contour>
			<point x="-54" y="587" type="line"/>
			<point x="65" y="587" type="line"/>
			<point x="219" y="761" type="line"/>
			<point x="118" y="761" type="line"/>
			<point x="-36" y="603" type="line"/>
			<point x="53" y="603" type="line"/>
			<point x="-33" y="761" type="line"/>
			<point x="-135" y="761" type="line"/>
		</contour>
	</outline>
	<anchor name="_top.LC" x="0" y="544"/>
</glyph>
<glyph name="commaturnedabovecomb" format="2">
	<unicode hex="0312"/>
	<outline>
		<contour>
			<point x="22" y="667" type="line"/>
			<point x="26" y="696"/>
			<point x="55" y="741"/>
			<point x="92" y="779" type="curve"/>
			<point x="33" y="779" type="line"/>
			<point x="-30" y="717"/>
			<point x="-60" y="668"/>
			<point x="-60" y="626" type="curve" smooth="yes"/>
			<point x="-60" y="596"/>
			<point x="-39" y="574"/>
			<point x="-9" y="574" type="curve" smooth="yes"/>
			<point x="29" y="574"/>
			<point x="57" y="601"/>
			<point x="57" y="639" type="curve" smooth="yes"/>
			<point x="57" y="669"/>
			<point x="37" y="688"/>
			<point x="8" y="688" type="curve"/>
		</contour>
	</outline>
	<anchor name="_top.LC" x="0" y="544"/>
</glyph>
<glyph name="commaaboverightcomb" format="2">
	<unicode hex="0315"/>
	<outline>
		<contour>
			<point x="-18" y="499" type="line"/>
			<point x="44" y="560"/>
			<point x="85" y="630"/>
			<point x="85" y="677" type="curve" smooth="yes"/>
			<point x="85" y="711"/>
			<point x="66" y="731"/>
			<point x="32" y="731" type="curve" smooth="yes"/>
			<point x="-8" y="731"/>
			<point x="-41" y="698"/>
			<point x="-41" y="656" type="curve" smooth="yes"/>
			<point x="-41" y="627"/>
			<point x="-20" y="605"/>
			<point x="10" y="605" type="curve"/>
			<point x="-1" y="625" type="line"/>
			<point x="-7" y="592"/>
			<point x="-39" y="539"/>
			<point x="-79" y="499" type="curve"/>
		</contour>
	</outline>
	<anchor name="_top_right" x="0" y="540"/>
</glyph>
<glyph name="dotbelowcomb" format="1">
  <advance width="0"/>
  <unicode hex="0323"/>
  <outline>
    <contour>
      <point x="-41" y="-246" type="curve" smooth="yes"/>
      <point x="8" y="-246"/>
      <point x="44" y="-208"/>
      <point x="44" y="-161" type="curve" smooth="yes"/>
      <point x="44" y="-129"/>
      <point x="22" y="-107"/>
      <point x="-12" y="-107" type="curve" smooth="yes"/>
      <point x="-61" y="-107"/>
      <point x="-97" y="-144"/>
      <point x="-97" y="-191" type="curve" smooth="yes"/>
      <point x="-97" y="-223"/>
      <point x="-74" y="-246"/>
    </contour>
    <contour>
      <point x="0" y="-50" type="move" name="_bottom.LC"/>
    </contour>
  </outline>
</glyph>
<glyph name="commabelowcomb" format="1">
  <advance width="0"/>
  <unicode hex="0326"/>
  <outline>
    <contour>
      <point x="-48" y="-286" type="line"/>
      <point x="14" y="-224"/>
      <point x="44" y="-174"/>
      <point x="44" y="-134" type="curve" smooth="yes"/>
      <point x="44" y="-101"/>
      <point x="21" y="-81"/>
      <point x="-7" y="-81" type="curve" smooth="yes"/>
      <point x="-46" y="-81"/>
      <point x="-73" y="-108"/>
      <point x="-73" y="-148" type="curve" smooth="yes"/>
      <point x="-73" y="-177"/>
      <point x="-53" y="-195"/>
      <point x="-24" y="-195" type="curve"/>
      <point x="-38" y="-174" type="line"/>
      <point x="-42" y="-203"/>
      <point x="-70" y="-248"/>
      <point x="-108" y="-286" type="curve"/>
    </contour>
    <contour>
      <point x="0" y="-50" type="move" name="_bottom.LC"/>
    </contour>
  </outline>
</glyph>
<glyph name="cedillacomb" format="1">
  <advance width="0"/>
  <unicode hex="0327"/>
  <outline>
    <contour>
      <point x="-144" y="-221" type="line"/>
      <point x="-118" y="-248"/>
      <point x="-88" y="-260"/>
      <point x="-45" y="-260" type="curve" smooth="yes"/>
      <point x="46" y="-260"/>
      <point x="103" y="-205"/>
      <point x="103" y="-130" type="curve" smooth="yes"/>
      <point x="103" y="-81"/>
      <point x="60" y="-46"/>
      <point x="-6" y="-46" type="curve"/>
      <point x="11" y="-83" type="line"/>
      <point x="56" y="10" type="line"/>
      <point x="-10" y="10" type="line"/>
      <point x="-70" y="-113" type="line"/>
      <point x="-58" y="-110"/>
      <point x="-44" y="-108"/>
      <point x="-27" y="-108" type="curve" smooth="yes"/>
      <point x="4" y="-108"/>
      <point x="22" y="-121"/>
      <point x="22" y="-142" type="curve" smooth="yes"/>
      <point x="22" y="-171"/>
      <point x="-1" y="-190"/>
      <point x="-34" y="-190" type="curve" smooth="yes"/>
      <point x="-59" y="-190"/>
      <point x="-78" y="-182"/>
      <point x="-97" y="-164" type="curve"/>
    </contour>
    <contour>
      <point x="0" y="-50" type="move" name="_bottom.LC"/>
    </contour>
  </outline>
</glyph>
<glyph name="ogonekcomb" format="2">
	<unicode hex="0328"/>
	<outline>
		<contour>
			<point x="64" y="-166" type="line"/>
			<point x="53" y="-168"/>
			<point x="42" y="-169"/>
			<point x="35" y="-169" type="curve" smooth="yes"/>
			<point x="5" y="-169"/>
			<point x="-14" y="-155"/>
			<point x="-14" y="-129" type="curve" smooth="yes"/>
			<point x="-14" y="-76"/>
			<point x="40" y="-32"/>
			<point x="99" y="0" type="curve"/>
			<point x="37" y="22" type="line"/>
			<point x="-53" y="-29"/>
			<point x="-110" y="-88"/>
			<point x="-110" y="-164" type="curve" smooth="yes"/>
			<point x="-110" y="-219"/>
			<point x="-67" y="-251"/>
			<point x="3" y="-251" type="curve" smooth="yes"/>
			<point x="19" y="-251"/>
			<point x="32" y="-250"/>
			<point x="46" y="-247" type="curve"/>
		</contour>
	</outline>
	<anchor name="_ogonek.LC" x="0" y="-30"/>
</glyph>
<glyph name="Germandbls" format="1">
  <advance width="742"/>
  <unicode hex="1E9E"/>
  <outline>
    <contour>
      <point x="29" y="0" type="line"/>
      <point x="148" y="0" type="line"/>
      <point x="236" y="417" type="line" smooth="yes"/>
      <point x="264" y="546"/>
      <point x="340" y="618"/>
      <point x="451" y="618" type="curve" smooth="yes"/>
      <point x="685" y="618" type="line"/>
      <point x="644" y="657" type="line"/>
      <point x="350" y="372" type="line"/>
      <point x="404" y="311" type="line"/>
      <point x="430" y="330"/>
      <point x="457" y="340"/>
      <point x="488" y="340" type="curve" smooth="yes"/>
      <point x="553" y="340"/>
      <point x="592" y="303"/>
      <point x="592" y="242" type="curve" smooth="yes"/>
      <point x="592" y="146"/>
      <point x="527" y="81"/>
      <point x="428" y="81" type="curve" smooth="yes"/>
      <point x="374" y="81"/>
      <point x="335" y="101"/>
      <point x="294" y="150" type="curve"/>
      <point x="216" y="72" type="line"/>
      <point x="259" y="15"/>
      <point x="334" y="-16"/>
      <point x="428" y="-16" type="curve" smooth="yes"/>
      <point x="594" y="-16"/>
      <point x="711" y="97"/>
      <point x="711" y="248" type="curve" smooth="yes"/>
      <point x="711" y="353"/>
      <point x="639" y="424"/>
      <point x="540" y="424" type="curve" smooth="yes"/>
      <point x="522" y="424"/>
      <point x="505" y="422"/>
      <point x="484" y="415" type="curve"/>
      <point x="514" y="403" type="line"/>
      <point x="734" y="617" type="line"/>
      <point x="754" y="715" type="line"/>
      <point x="467" y="715" type="line" smooth="yes"/>
      <point x="279" y="715"/>
      <point x="159" y="612"/>
      <point x="117" y="417" type="curve" smooth="yes"/>
    </contour>
  </outline>
</glyph>
<glyph name="endash" format="1">
  <advance width="500"/>
  <unicode hex="2013"/>
  <outline>
    <contour>
      <point x="-6" y="225" type="line"/>
      <point x="494" y="225" type="line"/>
      <point x="515" y="326" type="line"/>
      <point x="14" y="326" type="line"/>
    </contour>
  </outline>
</glyph>
<glyph name="emdash" format="1">
  <advance width="1000"/>
  <unicode hex="2014"/>
  <outline>
    <contour>
      <point x="-6" y="225" type="line"/>
      <point x="994" y="225" type="line"/>
      <point x="1015" y="326" type="line"/>
      <point x="14" y="326" type="line"/>
    </contour>
  </outline>
</glyph>
<glyph name="quoteleft" format="1">
  <advance width="250"/>
  <unicode hex="2018"/>
  <outline>
    <contour>
      <point x="202" y="574" type="line"/>
      <point x="206" y="618"/>
      <point x="245" y="681"/>
      <point x="305" y="743" type="curve"/>
      <point x="236" y="743" type="line"/>
      <point x="164" y="679"/>
      <point x="109" y="587"/>
      <point x="109" y="526" type="curve" smooth="yes"/>
      <point x="109" y="487"/>
      <point x="129" y="463"/>
      <point x="170" y="463" type="curve" smooth="yes"/>
      <point x="221" y="463"/>
      <point x="260" y="504"/>
      <point x="260" y="553" type="curve" smooth="yes"/>
      <point x="260" y="589"/>
      <point x="235" y="612"/>
      <point x="198" y="612" type="curve"/>
    </contour>
  </outline>
</glyph>
<glyph name="quoteright" format="1">
  <advance width="250"/>
  <unicode hex="2019"/>
  <outline>
    <contour>
      <point x="165" y="467" type="line"/>
      <point x="232" y="527"/>
      <point x="292" y="620"/>
      <point x="292" y="682" type="curve" smooth="yes"/>
      <point x="292" y="723"/>
      <point x="267" y="747"/>
      <point x="231" y="747" type="curve" smooth="yes"/>
      <point x="180" y="747"/>
      <point x="143" y="706"/>
      <point x="143" y="657" type="curve" smooth="yes"/>
      <point x="143" y="623"/>
      <point x="169" y="598"/>
      <point x="204" y="598" type="curve"/>
      <point x="201" y="636" type="line"/>
      <point x="197" y="593"/>
      <point x="161" y="536"/>
      <point x="99" y="467" type="curve"/>
    </contour>
  </outline>
</glyph>
<glyph name="dagger" format="1">
  <advance width="446"/>
  <unicode hex="2020"/>
  <outline>
    <contour>
      <point x="68" y="405" type="line"/>
      <point x="446" y="405" type="line"/>
      <point x="466" y="500" type="line"/>
      <point x="88" y="500" type="line"/>
    </contour>
    <contour>
      <point x="87" y="-129" type="line"/>
      <point x="201" y="-129" type="line"/>
      <point x="384" y="736" type="line"/>
      <point x="270" y="736" type="line"/>
    </contour>
  </outline>
</glyph>
<glyph name="daggerdbl" format="1">
  <advance width="445"/>
  <unicode hex="2021"/>
  <outline>
    <contour>
      <point x="87" y="-129" type="line"/>
      <point x="201" y="-129" type="line"/>
      <point x="384" y="736" type="line"/>
      <point x="270" y="736" type="line"/>
    </contour>
    <contour>
      <point x="67" y="405" type="line"/>
      <point x="446" y="405" type="line"/>
      <point x="466" y="500" type="line"/>
      <point x="87" y="500" type="line"/>
    </contour>
    <contour>
      <point x="4" y="106" type="line"/>
      <point x="382" y="106" type="line"/>
      <point x="402" y="202" type="line"/>
      <point x="24" y="202" type="line"/>
    </contour>
  </outline>
</glyph>
<glyph name="bullet" format="2">
	<unicode hex="2022"/>
	<advance width="350"/>
	<outline>
		<contour>
			<point x="60" y="249" type="curve" smooth="yes"/>
			<point x="60" y="195"/>
			<point x="100" y="156"/>
			<point x="155" y="156" type="curve" smooth="yes"/>
			<point x="231" y="156"/>
			<point x="301" y="220"/>
			<point x="301" y="299" type="curve" smooth="yes"/>
			<point x="301" y="353"/>
			<point x="261" y="392"/>
			<point x="206" y="392" type="curve" smooth="yes"/>
			<point x="130" y="392"/>
			<point x="60" y="328"/>
		</contour>
	</outline>
</glyph>
<glyph name="guilsinglleft" format="1">
  <advance width="323"/>
  <unicode hex="2039"/>
  <outline>
    <contour>
      <point x="117" y="33" type="line"/>
      <point x="245" y="33" type="line"/>
      <point x="151" y="250" type="line"/>
      <point x="338" y="467" type="line"/>
      <point x="210" y="467" type="line"/>
      <point x="25" y="250" type="line"/>
    </contour>
  </outline>
</glyph>
<glyph name="guilsinglright" format="1">
  <advance width="323"/>
  <unicode hex="203A"/>
  <outline>
    <contour>
      <point x="-15" y="33" type="line"/>
      <point x="113" y="33" type="line"/>
      <point x="298" y="250" type="line"/>
      <point x="206" y="467" type="line"/>
      <point x="78" y="467" type="line"/>
      <point x="172" y="250" type="line"/>
    </contour>
  </outline>
</glyph>
<glyph name="fraction" format="2">
	<unicode hex="2044"/>
	<advance width="178"/>
	<outline>
		<contour>
			<point x="-246" y="0" type="line"/>
			<point x="-126" y="0" type="line"/>
			<point x="470" y="715" type="line"/>
			<point x="350" y="715" type="line"/>
		</contour>
	</outline>
</glyph>
<glyph name="Euro" format="1">
  <advance width="630"/>
  <unicode hex="20AC"/>
  <outline>
    <contour>
      <point x="517" y="176" type="line"/>
      <point x="465" y="116"/>
      <point x="407" y="85"/>
      <point x="346" y="85" type="curve" smooth="yes"/>
      <point x="260" y="85"/>
      <point x="211" y="147"/>
      <point x="211" y="256" type="curve" smooth="yes"/>
      <point x="211" y="461"/>
      <point x="325" y="630"/>
      <point x="464" y="630" type="curve" smooth="yes"/>
      <point x="527" y="630"/>
      <point x="570" y="601"/>
      <point x="599" y="542" type="curve"/>
      <point x="684" y="612" type="line"/>
      <point x="644" y="689"/>
      <point x="572" y="731"/>
      <point x="483" y="731" type="curve" smooth="yes"/>
      <point x="270" y="731"/>
      <point x="93" y="510"/>
      <point x="93" y="242" type="curve" smooth="yes"/>
      <point x="93" y="81"/>
      <point x="179" y="-16"/>
      <point x="324" y="-16" type="curve" smooth="yes"/>
      <point x="423" y="-16"/>
      <point x="508" y="24"/>
      <point x="579" y="98" type="curve"/>
    </contour>
    <contour>
      <point x="21" y="238" type="line"/>
      <point x="422" y="238" type="line"/>
      <point x="456" y="323" type="line"/>
      <point x="39" y="323" type="line"/>
    </contour>
    <contour>
      <point x="54" y="394" type="line"/>
      <point x="482" y="394" type="line"/>
      <point x="516" y="479" type="line"/>
      <point x="72" y="479" type="line"/>
    </contour>
  </outline>
</glyph>
<glyph name="rupeeindian" format="2">
	<unicode hex="20B9"/>
	<advance width="632"/>
	<outline>
		<contour>
			<point x="101" y="462" type="line"/>
			<point x="598" y="462" type="line"/>
			<point x="632" y="548" type="line"/>
			<point x="119" y="548" type="line"/>
		</contour>
		<contour>
			<point x="136" y="629" type="line"/>
			<point x="347" y="629" type="line" smooth="yes"/>
			<point x="415" y="629"/>
			<point x="457" y="595"/>
			<point x="457" y="540" type="curve" smooth="yes"/>
			<point x="457" y="448"/>
			<point x="387" y="382"/>
			<point x="290" y="382" type="curve" smooth="yes"/>
			<point x="85" y="382" type="line"/>
			<point x="66" y="297" type="line"/>
			<point x="352" y="0" type="line"/>
			<point x="516" y="0" type="line"/>
			<point x="209" y="315" type="line"/>
			<point x="201" y="297" type="line"/>
			<point x="278" y="297" type="line" smooth="yes"/>
			<point x="439" y="297"/>
			<point x="565" y="408"/>
			<point x="565" y="550" type="curve" smooth="yes"/>
			<point x="565" y="589"/>
			<point x="549" y="623"/>
			<point x="518" y="647" type="curve"/>
			<point x="511" y="629" type="line"/>
			<point x="663" y="629" type="line"/>
			<point x="696" y="715" type="line"/>
			<point x="154" y="715" type="line"/>
		</contour>
	</outline>
</glyph>
<glyph name="liraturkish" format="2">
	<unicode hex="20BA"/>
	<advance width="629"/>
	<outline>
		<contour>
			<point x="67" y="0" type="line"/>
			<point x="234" y="0" type="line" smooth="yes"/>
			<point x="443" y="0"/>
			<point x="562" y="102"/>
			<point x="609" y="324" type="curve" smooth="yes"/>
			<point x="611" y="334" type="line"/>
			<point x="497" y="341" type="line"/>
			<point x="492" y="318" type="line" smooth="yes"/>
			<point x="462" y="172"/>
			<point x="380" y="98"/>
			<point x="252" y="98" type="curve" smooth="yes"/>
			<point x="206" y="98" type="line"/>
			<point x="337" y="715" type="line"/>
			<point x="218" y="715" type="line"/>
		</contour>
		<contour>
			<point x="23" y="203" type="line"/>
			<point x="420" y="366" type="line"/>
			<point x="439" y="454" type="line"/>
			<point x="41" y="291" type="line"/>
		</contour>
		<contour>
			<point x="57" y="365" type="line"/>
			<point x="454" y="528" type="line"/>
			<point x="473" y="616" type="line"/>
			<point x="75" y="453" type="line"/>
		</contour>
	</outline>
</glyph>
<glyph name="ruble" format="2">
	<unicode hex="20BD"/>
	<advance width="632"/>
	<outline>
		<contour>
			<point x="82" y="0" type="line"/>
			<point x="199" y="0" type="line"/>
			<point x="330" y="622" type="line"/>
			<point x="440" y="622" type="line" smooth="yes"/>
			<point x="504" y="622"/>
			<point x="539" y="589"/>
			<point x="539" y="530" type="curve" smooth="yes"/>
			<point x="539" y="449"/>
			<point x="479" y="390"/>
			<point x="391" y="390" type="curve" smooth="yes"/>
			<point x="68" y="390" type="line"/>
			<point x="48" y="296" type="line"/>
			<point x="369" y="296" type="line" smooth="yes"/>
			<point x="553" y="296"/>
			<point x="660" y="395"/>
			<point x="660" y="544" type="curve" smooth="yes"/>
			<point x="660" y="651"/>
			<point x="583" y="715"/>
			<point x="455" y="715" type="curve" smooth="yes"/>
			<point x="232" y="715" type="line"/>
		</contour>
		<contour>
			<point x="11" y="117" type="line"/>
			<point x="423" y="117" type="line"/>
			<point x="442" y="210" type="line"/>
			<point x="29" y="210" type="line"/>
		</contour>
	</outline>
</glyph>
<glyph name="trademark" format="2">
	<unicode hex="2122"/>
	<advance width="828"/>
	<outline>
		<contour>
			<point x="171" y="309" type="line"/>
			<point x="261" y="309" type="line"/>
			<point x="261" y="645" type="line"/>
			<point x="171" y="645" type="line"/>
		</contour>
		<contour>
			<point x="58" y="639" type="line"/>
			<point x="374" y="639" type="line"/>
			<point x="374" y="715" type="line"/>
			<point x="58" y="715" type="line"/>
		</contour>
		<contour>
			<point x="416" y="309" type="line"/>
			<point x="505" y="309" type="line"/>
			<point x="505" y="685" type="line"/>
			<point x="457" y="683" type="line"/>
			<point x="601" y="359" type="line"/>
			<point x="666" y="359" type="line"/>
			<point x="810" y="683" type="line"/>
			<point x="762" y="685" type="line"/>
			<point x="762" y="309" type="line"/>
			<point x="851" y="309" type="line"/>
			<point x="851" y="715" type="line"/>
			<point x="747" y="715" type="line"/>
			<point x="619" y="421" type="line"/>
			<point x="650" y="421" type="line"/>
			<point x="522" y="715" type="line"/>
			<point x="416" y="715" type="line"/>
		</contour>
	</outline>
</glyph>
<glyph name="arrowup" format="2">
	<unicode hex="2191"/>
	<advance width="752"/>
	<outline>
		<contour>
			<point x="374" y="0" type="line"/>
			<point x="448" y="0" type="line"/>
			<point x="448" y="643" type="line"/>
			<point x="374" y="643" type="line"/>
		</contour>
		<contour>
			<point x="135" y="374" type="line"/>
			<point x="411" y="631" type="line"/>
			<point x="687" y="374" type="line"/>
			<point x="687" y="475" type="line"/>
			<point x="411" y="731" type="line"/>
			<point x="135" y="475" type="line"/>
		</contour>
	</outline>
</glyph>
<glyph name="arrowdown" format="1">
  <advance width="752"/>
  <unicode hex="2193"/>
  <outline>
    <contour>
      <point x="351" y="72" type="line"/>
      <point x="425" y="72" type="line"/>
      <point x="425" y="715" type="line"/>
      <point x="351" y="715" type="line"/>
    </contour>
    <contour>
      <point x="112" y="240" type="line"/>
      <point x="388" y="-16" type="line"/>
      <point x="664" y="240" type="line"/>
      <point x="664" y="341" type="line"/>
      <point x="388" y="84" type="line"/>
      <point x="112" y="341" type="line"/>
    </contour>
  </outline>
</glyph>
<glyph name="minus" format="2">
	<unicode hex="2212"/>
	<advance width="632"/>
	<outline>
		<contour>
			<point x="127" y="310" type="line"/>
			<point x="530" y="310" type="line"/>
			<point x="550" y="405" type="line"/>
			<point x="147" y="405" type="line"/>
		</contour>
	</outline>
</glyph>
<glyph name="triangleup" format="1">
  <advance width="752"/>
  <unicode hex="25B2"/>
  <outline>
    <contour>
      <point x="83" y="66" type="line"/>
      <point x="359" y="318" type="line"/>
      <point x="635" y="66" type="line"/>
      <point x="635" y="168" type="line"/>
      <point x="359" y="424" type="line"/>
      <point x="83" y="168" type="line"/>
    </contour>
  </outline>
</glyph>
<glyph name="triangledown" format="2">
	<unicode hex="25BC"/>
	<advance width="752"/>
	<outline>
		<contour>
			<point x="116" y="322" type="line"/>
			<point x="392" y="66" type="line"/>
			<point x="668" y="322" type="line"/>
			<point x="668" y="424" type="line"/>
			<point x="392" y="172" type="line"/>
			<point x="116" y="424" type="line"/>
		</contour>
	</outline>
</glyph>
<glyph name="acutecomb.asc" format="1">
  <advance width="0"/>
  <outline>
    <contour>
      <point x="-73" y="587" type="line"/>
      <point x="28" y="587" type="line"/>
      <point x="197" y="731" type="line"/>
      <point x="64" y="731" type="line"/>
    </contour>
    <contour>
      <point x="0" y="544" type="move" name="_top.LC"/>
    </contour>
  </outline>
</glyph>
<glyph name="acutecomb.cap" format="1">
  <advance width="0"/>
  <outline>
    <contour>
      <point x="-72" y="784" type="line"/>
      <point x="40" y="784" type="line"/>
      <point x="226" y="928" type="line"/>
      <point x="82" y="928" type="line"/>
    </contour>
    <contour>
      <point x="0" y="750" type="move" name="_top.UC"/>
    </contour>
  </outline>
</glyph>
<glyph name="acutecomb.narrow" format="1">
  <advance width="0"/>
  <outline>
    <contour>
      <point x="-76" y="587" type="line"/>
      <point x="14" y="587" type="line"/>
      <point x="166" y="761" type="line"/>
      <point x="44" y="761" type="line"/>
    </contour>
    <contour>
      <point x="0" y="544" type="move" name="_top.LC"/>
    </contour>
  </outline>
</glyph>
<glyph name="brevecomb.cap" format="2">
	<outline>
		<contour>
			<point x="-115" y="944" type="line"/>
			<point x="-116" y="937"/>
			<point x="-116" y="930"/>
			<point x="-116" y="924" type="curve" smooth="yes"/>
			<point x="-116" y="844"/>
			<point x="-62" y="795"/>
			<point x="23" y="795" type="curve" smooth="yes"/>
			<point x="130" y="795"/>
			<point x="197" y="853"/>
			<point x="221" y="944" type="curve"/>
			<point x="129" y="944" type="line"/>
			<point x="114" y="900"/>
			<point x="82" y="874"/>
			<point x="38" y="874" type="curve" smooth="yes"/>
			<point x="0" y="874"/>
			<point x="-24" y="898"/>
			<point x="-24" y="937" type="curve" smooth="yes"/>
			<point x="-24" y="944" type="line"/>
		</contour>
	</outline>
	<anchor name="_top.UC" x="0" y="750"/>
</glyph>
<glyph name="caroncomb.cap" format="2">
	<outline>
		<contour>
			<point x="-45" y="799" type="line"/>
			<point x="74" y="799" type="line"/>
			<point x="230" y="943" type="line"/>
			<point x="121" y="943" type="line"/>
			<point x="-32" y="815" type="line"/>
			<point x="68" y="815" type="line"/>
			<point x="-32" y="943" type="line"/>
			<point x="-141" y="943" type="line"/>
		</contour>
	</outline>
	<anchor name="_top.UC" x="0" y="750"/>
</glyph>
<glyph name="cedillacomb.cap" format="2">
	<outline>
		<contour>
			<point x="-146" y="-221" type="line"/>
			<point x="-121" y="-248"/>
			<point x="-88" y="-260"/>
			<point x="-42" y="-260" type="curve" smooth="yes"/>
			<point x="45" y="-260"/>
			<point x="109" y="-205"/>
			<point x="109" y="-132" type="curve" smooth="yes"/>
			<point x="109" y="-79"/>
			<point x="65" y="-45"/>
			<point x="-2" y="-45" type="curve"/>
			<point x="14" y="-84" type="line"/>
			<point x="55" y="10" type="line"/>
			<point x="-11" y="10" type="line"/>
			<point x="-67" y="-115" type="line"/>
			<point x="-51" y="-112"/>
			<point x="-35" y="-110"/>
			<point x="-25" y="-110" type="curve" smooth="yes"/>
			<point x="7" y="-110"/>
			<point x="24" y="-122"/>
			<point x="24" y="-143" type="curve" smooth="yes"/>
			<point x="24" y="-170"/>
			<point x="1" y="-188"/>
			<point x="-35" y="-188" type="curve" smooth="yes"/>
			<point x="-60" y="-188"/>
			<point x="-83" y="-178"/>
			<point x="-97" y="-163" type="curve"/>
		</contour>
	</outline>
	<anchor name="_bottom.UC" x="0" y="-50"/>
</glyph>
<glyph name="circumflexcomb.cap" format="1">
  <advance width="0"/>
  <outline>
    <contour>
      <point x="-174" y="799" type="line"/>
      <point x="-64" y="799" type="line"/>
      <point x="90" y="927" type="line"/>
      <point x="-12" y="927" type="line"/>
      <point x="89" y="799" type="line"/>
      <point x="197" y="799" type="line"/>
      <point x="101" y="943" type="line"/>
      <point x="-18" y="943" type="line"/>
    </contour>
    <contour>
      <point x="0" y="750" type="move" name="_top.UC"/>
    </contour>
  </outline>
</glyph>
<glyph name="circumflexcomb.narrow" format="1">
  <advance width="0"/>
  <outline>
    <contour>
      <point x="-149" y="587" type="line"/>
      <point x="-55" y="587" type="line"/>
      <point x="92" y="740" type="line"/>
      <point x="-5" y="740" type="line"/>
      <point x="77" y="587" type="line"/>
      <point x="172" y="587" type="line"/>
      <point x="91" y="761" type="line"/>
      <point x="5" y="761" type="line"/>
    </contour>
    <contour>
      <point x="0" y="544" type="move" name="_top.LC"/>
    </contour>
  </outline>
</glyph>
<glyph name="commaaboverightcomb.short" format="1">
  <advance width="0"/>
  <outline>
    <contour>
      <point x="15" y="553" type="line"/>
      <point x="64" y="598"/>
      <point x="104" y="650"/>
      <point x="104" y="695" type="curve" smooth="yes"/>
      <point x="104" y="728"/>
      <point x="85" y="747"/>
      <point x="52" y="747" type="curve" smooth="yes"/>
      <point x="14" y="747"/>
      <point x="-15" y="717"/>
      <point x="-15" y="680" type="curve" smooth="yes"/>
      <point x="-15" y="651"/>
      <point x="6" y="631"/>
      <point x="35" y="631" type="curve"/>
      <point x="21" y="656" type="line"/>
      <point x="14" y="627"/>
      <point x="-14" y="586"/>
      <point x="-46" y="553" type="curve"/>
    </contour>
    <contour>
      <point x="0" y="540" type="move" name="_top_right.LC.short"/>
    </contour>
  </outline>
</glyph>
<glyph name="commabelowcomb.cap" format="1">
  <advance width="0"/>
  <outline>
    <contour>
      <point x="-52" y="-286" type="line"/>
      <point x="-4" y="-236"/>
      <point x="39" y="-181"/>
      <point x="39" y="-136" type="curve" smooth="yes"/>
      <point x="39" y="-101"/>
      <point x="18" y="-81"/>
      <point x="-14" y="-81" type="curve" smooth="yes"/>
      <point x="-56" y="-81"/>
      <point x="-81" y="-111"/>
      <point x="-81" y="-147" type="curve" smooth="yes"/>
      <point x="-81" y="-177"/>
      <point x="-62" y="-195"/>
      <point x="-32" y="-195" type="curve"/>
      <point x="-46" y="-174" type="line"/>
      <point x="-50" y="-203"/>
      <point x="-79" y="-248"/>
      <point x="-116" y="-286" type="curve"/>
    </contour>
    <contour>
      <point x="0" y="-50" type="move" name="_bottom.UC"/>
    </contour>
  </outline>
</glyph>
<glyph name="dieresiscomb.cap" format="1">
  <advance width="0"/>
  <outline>
    <contour>
      <point x="-95" y="796" type="curve" smooth="yes"/>
      <point x="-45" y="796"/>
      <point x="-9" y="833"/>
      <point x="-9" y="881" type="curve" smooth="yes"/>
      <point x="-9" y="912"/>
      <point x="-32" y="935"/>
      <point x="-65" y="935" type="curve" smooth="yes"/>
      <point x="-116" y="935"/>
      <point x="-152" y="898"/>
      <point x="-152" y="851" type="curve" smooth="yes"/>
      <point x="-152" y="819"/>
      <point x="-129" y="796"/>
    </contour>
    <contour>
      <point x="119" y="796" type="curve" smooth="yes"/>
      <point x="168" y="796"/>
      <point x="205" y="833"/>
      <point x="205" y="881" type="curve" smooth="yes"/>
      <point x="205" y="912"/>
      <point x="182" y="935"/>
      <point x="149" y="935" type="curve" smooth="yes"/>
      <point x="98" y="935"/>
      <point x="62" y="898"/>
      <point x="62" y="851" type="curve" smooth="yes"/>
      <point x="62" y="819"/>
      <point x="85" y="796"/>
    </contour>
    <contour>
      <point x="0" y="750" type="move" name="_top.UC"/>
    </contour>
  </outline>
</glyph>
<glyph name="dieresiscomb.narrow" format="1">
  <advance width="0"/>
  <outline>
    <contour>
      <point x="-70" y="605" type="curve" smooth="yes"/>
      <point x="-21" y="605"/>
      <point x="11" y="642"/>
      <point x="11" y="684" type="curve" smooth="yes"/>
      <point x="11" y="714"/>
      <point x="-11" y="736"/>
      <point x="-42" y="736" type="curve" smooth="yes"/>
      <point x="-91" y="736"/>
      <point x="-123" y="698"/>
      <point x="-123" y="656" type="curve" smooth="yes"/>
      <point x="-123" y="627"/>
      <point x="-101" y="605"/>
    </contour>
    <contour>
      <point x="92" y="605" type="curve" smooth="yes"/>
      <point x="140" y="605"/>
      <point x="172" y="642"/>
      <point x="172" y="684" type="curve" smooth="yes"/>
      <point x="172" y="714"/>
      <point x="151" y="736"/>
      <point x="120" y="736" type="curve" smooth="yes"/>
      <point x="71" y="736"/>
      <point x="39" y="698"/>
      <point x="39" y="656" type="curve" smooth="yes"/>
      <point x="39" y="627"/>
      <point x="60" y="605"/>
    </contour>
    <contour>
      <point x="0" y="544" type="move" name="_top.LC"/>
    </contour>
  </outline>
</glyph>
<glyph name="dotaccentcomb.cap" format="2">
	<outline>
		<contour>
			<point x="9" y="794" type="curve" smooth="yes"/>
			<point x="61" y="794"/>
			<point x="97" y="833"/>
			<point x="97" y="881" type="curve" smooth="yes"/>
			<point x="97" y="915"/>
			<point x="74" y="937"/>
			<point x="39" y="937" type="curve" smooth="yes"/>
			<point x="-12" y="937"/>
			<point x="-48" y="898"/>
			<point x="-48" y="851" type="curve" smooth="yes"/>
			<point x="-48" y="816"/>
			<point x="-25" y="794"/>
		</contour>
	</outline>
	<anchor name="_top.UC" x="0" y="750"/>
</glyph>
<glyph name="dotbelowcomb.cap" format="1">
  <advance width="0"/>
  <outline>
    <contour>
      <point x="-100" y="-181" type="curve" smooth="yes"/>
      <point x="-100" y="-214"/>
      <point x="-78" y="-237"/>
      <point x="-42" y="-237" type="curve" smooth="yes"/>
      <point x="8" y="-237"/>
      <point x="45" y="-198"/>
      <point x="45" y="-150" type="curve" smooth="yes"/>
      <point x="45" y="-117"/>
      <point x="23" y="-94"/>
      <point x="-12" y="-94" type="curve" smooth="yes"/>
      <point x="-63" y="-94"/>
      <point x="-100" y="-133"/>
    </contour>
    <contour>
      <point x="0" y="-50" type="move" name="_bottom.UC"/>
    </contour>
  </outline>
</glyph>
<glyph name="eight.dnom" format="1">
  <advance width="388"/>
  <outline>
    <contour>
      <point x="5" y="88" type="curve" smooth="yes"/>
      <point x="5" y="29"/>
      <point x="58" y="-9"/>
      <point x="140" y="-9" type="curve" smooth="yes"/>
      <point x="242" y="-9"/>
      <point x="326" y="55"/>
      <point x="326" y="134" type="curve"/>
      <point x="326" y="193"/>
      <point x="272" y="231"/>
      <point x="191" y="231" type="curve" smooth="yes"/>
      <point x="87" y="231"/>
      <point x="5" y="168"/>
    </contour>
    <contour>
      <point x="63" y="287" type="curve" smooth="yes"/>
      <point x="63" y="235"/>
      <point x="111" y="201"/>
      <point x="184" y="201" type="curve" smooth="yes"/>
      <point x="275" y="201"/>
      <point x="350" y="258"/>
      <point x="350" y="327" type="curve" smooth="yes"/>
      <point x="350" y="381"/>
      <point x="301" y="417"/>
      <point x="228" y="417" type="curve" smooth="yes"/>
      <point x="139" y="417"/>
      <point x="63" y="358"/>
    </contour>
    <contour>
      <point x="98" y="108" type="curve" smooth="yes"/>
      <point x="98" y="146"/>
      <point x="135" y="178"/>
      <point x="179" y="178" type="curve" smooth="yes"/>
      <point x="213" y="178"/>
      <point x="235" y="161"/>
      <point x="235" y="133" type="curve" smooth="yes"/>
      <point x="235" y="94"/>
      <point x="200" y="64"/>
      <point x="155" y="64" type="curve" smooth="yes"/>
      <point x="120" y="64"/>
      <point x="98" y="81"/>
    </contour>
    <contour>
      <point x="149" y="284" type="curve" smooth="yes"/>
      <point x="149" y="318"/>
      <point x="179" y="345"/>
      <point x="215" y="345" type="curve" smooth="yes"/>
      <point x="242" y="345"/>
      <point x="259" y="331"/>
      <point x="259" y="307" type="curve" smooth="yes"/>
      <point x="259" y="274"/>
      <point x="227" y="244"/>
      <point x="193" y="244" type="curve" smooth="yes"/>
      <point x="167" y="244"/>
      <point x="149" y="260"/>
    </contour>
  </outline>
</glyph>
<glyph name="exclamdown.case" format="1">
  <advance width="251"/>
  <outline>
    <contour>
      <point x="151" y="484" type="line"/>
      <point x="135" y="432"/>
      <point x="71" y="211"/>
      <point x="40" y="103" type="curve" smooth="yes"/>
      <point x="25" y="55"/>
      <point x="21" y="39"/>
      <point x="21" y="27" type="curve" smooth="yes"/>
      <point x="21" y="-8"/>
      <point x="43" y="-28"/>
      <point x="79" y="-28" type="curve" smooth="yes"/>
      <point x="100" y="-28"/>
      <point x="118" y="-22"/>
      <point x="131" y="-9" type="curve" smooth="yes"/>
      <point x="147" y="6"/>
      <point x="155" y="28"/>
      <point x="160" y="71" type="curve" smooth="yes"/>
      <point x="168" y="140"/>
      <point x="211" y="440"/>
      <point x="216" y="484" type="curve"/>
    </contour>
    <contour>
      <point x="138" y="626" type="curve" smooth="yes"/>
      <point x="138" y="589"/>
      <point x="165" y="562"/>
      <point x="202" y="562" type="curve" smooth="yes"/>
      <point x="254" y="562"/>
      <point x="292" y="599"/>
      <point x="292" y="652" type="curve" smooth="yes"/>
      <point x="292" y="689"/>
      <point x="264" y="715"/>
      <point x="227" y="715" type="curve" smooth="yes"/>
      <point x="175" y="715"/>
      <point x="138" y="679"/>
    </contour>
  </outline>
</glyph>
<glyph name="five.dnom" format="1">
  <advance width="368"/>
  <outline>
    <contour>
      <point x="27" y="175" type="line"/>
      <point x="105" y="175" type="line"/>
      <point x="125" y="194"/>
      <point x="148" y="203"/>
      <point x="174" y="203" type="curve" smooth="yes"/>
      <point x="205" y="203"/>
      <point x="225" y="182"/>
      <point x="225" y="150" type="curve" smooth="yes"/>
      <point x="225" y="102"/>
      <point x="185" y="65"/>
      <point x="134" y="65" type="curve" smooth="yes"/>
      <point x="99" y="65"/>
      <point x="74" y="81"/>
      <point x="49" y="120" type="curve"/>
      <point x="-10" y="65" type="line"/>
      <point x="19" y="16"/>
      <point x="66" y="-9"/>
      <point x="132" y="-9" type="curve" smooth="yes"/>
      <point x="235" y="-9"/>
      <point x="315" y="68"/>
      <point x="315" y="169" type="curve" smooth="yes"/>
      <point x="315" y="233"/>
      <point x="271" y="275"/>
      <point x="204" y="275" type="curve" smooth="yes"/>
      <point x="172" y="275"/>
      <point x="140" y="261"/>
      <point x="114" y="237" type="curve"/>
      <point x="123" y="231" type="line"/>
      <point x="164" y="355" type="line"/>
      <point x="138" y="336" type="line"/>
      <point x="329" y="336" type="line"/>
      <point x="345" y="408" type="line"/>
      <point x="104" y="408" type="line"/>
    </contour>
  </outline>
</glyph>
<glyph name="four.dnom" format="2">
	<advance width="404"/>
	<outline>
		<contour>
			<point x="178" y="0" type="line"/>
			<point x="266" y="0" type="line"/>
			<point x="353" y="408" type="line"/>
			<point x="265" y="408" type="line"/>
			<point x="12" y="154" type="line"/>
			<point x="-2" y="83" type="line"/>
			<point x="337" y="83" type="line"/>
			<point x="352" y="154" type="line"/>
			<point x="78" y="154" type="line"/>
			<point x="84" y="140" type="line"/>
			<point x="257" y="321" type="line"/>
			<point x="247" y="326" type="line"/>
		</contour>
	</outline>
</glyph>
<glyph name="gravecomb.cap" format="1">
  <advance width="0"/>
  <outline>
    <contour>
      <point x="-52" y="794" type="line"/>
      <point x="59" y="794" type="line"/>
      <point x="-38" y="938" type="line"/>
      <point x="-178" y="938" type="line"/>
    </contour>
    <contour>
      <point x="0" y="750" type="move" name="_top.UC"/>
    </contour>
  </outline>
</glyph>
<glyph name="gravecomb.narrow" format="1">
  <advance width="0"/>
  <outline>
    <contour>
      <point x="-41" y="587" type="line"/>
      <point x="50" y="587" type="line"/>
      <point x="3" y="761" type="line"/>
      <point x="-118" y="761" type="line"/>
    </contour>
    <contour>
      <point x="0" y="544" type="move" name="_top.LC"/>
    </contour>
  </outline>
</glyph>
<glyph name="hungarumlautcomb.cap" format="1">
  <advance width="0"/>
  <outline>
    <contour>
      <point x="-166" y="789" type="line"/>
      <point x="-54" y="789" type="line"/>
      <point x="134" y="953" type="line"/>
      <point x="-6" y="953" type="line"/>
    </contour>
    <contour>
      <point x="14" y="789" type="line"/>
      <point x="127" y="789" type="line"/>
      <point x="329" y="953" type="line"/>
      <point x="190" y="953" type="line"/>
    </contour>
    <contour>
      <point x="0" y="750" type="move" name="_top.UC"/>
    </contour>
  </outline>
</glyph>
<glyph name="macroncomb.cap" format="2">
	<outline>
		<contour>
			<point x="-151" y="812" type="line"/>
			<point x="152" y="812" type="line"/>
			<point x="170" y="899" type="line"/>
			<point x="-133" y="899" type="line"/>
		</contour>
	</outline>
	<anchor name="_top.UC" x="0" y="750"/>
</glyph>
<glyph name="macroncomb.narrow" format="2">
	<outline>
		<contour>
			<point x="-126" y="608" type="line"/>
			<point x="128" y="608" type="line"/>
			<point x="145" y="692" type="line"/>
			<point x="-109" y="692" type="line"/>
		</contour>
	</outline>
	<anchor name="_top.LC" x="0" y="544"/>
</glyph>
<glyph name="nine.dnom" format="1">
  <advance width="386"/>
  <outline>
    <contour>
      <point x="134" y="0" type="line"/>
      <point x="293" y="118"/>
      <point x="355" y="202"/>
      <point x="355" y="298" type="curve" smooth="yes"/>
      <point x="355" y="370"/>
      <point x="305" y="417"/>
      <point x="226" y="417" type="curve" smooth="yes"/>
      <point x="115" y="417"/>
      <point x="38" y="346"/>
      <point x="38" y="242" type="curve" smooth="yes"/>
      <point x="38" y="178"/>
      <point x="82" y="136"/>
      <point x="150" y="136" type="curve" smooth="yes"/>
      <point x="187" y="136"/>
      <point x="219" y="156"/>
      <point x="245" y="192" type="curve"/>
      <point x="237" y="196" type="line"/>
      <point x="206" y="141"/>
      <point x="144" y="86"/>
      <point x="18" y="0" type="curve"/>
    </contour>
    <contour>
      <point x="126" y="259" type="curve" smooth="yes"/>
      <point x="126" y="307"/>
      <point x="163" y="344"/>
      <point x="212" y="344" type="curve" smooth="yes"/>
      <point x="247" y="344"/>
      <point x="268" y="322"/>
      <point x="268" y="290" type="curve" smooth="yes"/>
      <point x="268" y="245"/>
      <point x="229" y="206"/>
      <point x="184" y="206" type="curve" smooth="yes"/>
      <point x="149" y="206"/>
      <point x="126" y="227"/>
    </contour>
  </outline>
</glyph>
<glyph name="ogonekcomb.cap" format="2">
	<outline>
		<contour>
			<point x="76" y="-165" type="line"/>
			<point x="65" y="-167"/>
			<point x="54" y="-168"/>
			<point x="47" y="-168" type="curve" smooth="yes"/>
			<point x="19" y="-168"/>
			<point x="0" y="-153"/>
			<point x="0" y="-125" type="curve" smooth="yes"/>
			<point x="0" y="-63"/>
			<point x="65" y="-21"/>
			<point x="111" y="0" type="curve"/>
			<point x="39" y="22" type="line"/>
			<point x="-30" y="-18"/>
			<point x="-99" y="-80"/>
			<point x="-99" y="-161" type="curve" smooth="yes"/>
			<point x="-99" y="-220"/>
			<point x="-53" y="-251"/>
			<point x="15" y="-251" type="curve" smooth="yes"/>
			<point x="30" y="-251"/>
			<point x="43" y="-250"/>
			<point x="58" y="-247" type="curve"/>
		</contour>
	</outline>
	<anchor name="_ogonek.UC" x="0" y="-30"/>
</glyph>
<glyph name="ogonekcomb.round.cap" format="2">
	<outline>
		<contour>
			<point x="91" y="-164" type="line"/>
			<point x="82" y="-167"/>
			<point x="71" y="-168"/>
			<point x="62" y="-168" type="curve" smooth="yes"/>
			<point x="33" y="-168"/>
			<point x="15" y="-152"/>
			<point x="15" y="-125" type="curve" smooth="yes"/>
			<point x="15" y="-72"/>
			<point x="64" y="-18"/>
			<point x="148" y="23" type="curve"/>
			<point x="68" y="23" type="line"/>
			<point x="-35" y="-31"/>
			<point x="-84" y="-91"/>
			<point x="-84" y="-161" type="curve" smooth="yes"/>
			<point x="-84" y="-218"/>
			<point x="-41" y="-251"/>
			<point x="31" y="-251" type="curve" smooth="yes"/>
			<point x="47" y="-251"/>
			<point x="61" y="-250"/>
			<point x="74" y="-247" type="curve"/>
		</contour>
	</outline>
	<anchor name="_ogonek.UC.round" x="0" y="-30"/>
</glyph>
<glyph name="ogonekcomb.round" format="2">
	<outline>
		<contour>
			<point x="66" y="-165" type="line"/>
			<point x="56" y="-167"/>
			<point x="45" y="-169"/>
			<point x="37" y="-169" type="curve" smooth="yes"/>
			<point x="6" y="-169"/>
			<point x="-12" y="-153"/>
			<point x="-12" y="-125" type="curve" smooth="yes"/>
			<point x="-12" y="-77"/>
			<point x="38" y="-15"/>
			<point x="123" y="44" type="curve"/>
			<point x="77" y="54" type="line"/>
			<point x="-50" y="-16"/>
			<point x="-108" y="-82"/>
			<point x="-108" y="-160" type="curve" smooth="yes"/>
			<point x="-108" y="-217"/>
			<point x="-66" y="-251"/>
			<point x="5" y="-251" type="curve" smooth="yes"/>
			<point x="22" y="-251"/>
			<point x="35" y="-250"/>
			<point x="48" y="-247" type="curve"/>
		</contour>
	</outline>
	<anchor name="_ogonek.LC.round" x="0" y="-30"/>
</glyph>
<glyph name="one.dnom" format="1">
  <advance width="352"/>
  <outline>
    <contour>
      <point x="111" y="0" type="line"/>
      <point x="202" y="0" type="line"/>
      <point x="289" y="411" type="line"/>
      <point x="216" y="411" type="line"/>
      <point x="87" y="334" type="line"/>
      <point x="68" y="246" type="line"/>
      <point x="178" y="316" type="line"/>
    </contour>
  </outline>
</glyph>
<glyph name="questiondown.case" format="2">
	<advance width="574"/>
	<outline>
		<contour>
			<point x="436" y="180" type="line"/>
			<point x="382" y="110"/>
			<point x="320" y="73"/>
			<point x="259" y="73" type="curve" smooth="yes"/>
			<point x="199" y="73"/>
			<point x="164" y="107"/>
			<point x="164" y="157" type="curve" smooth="yes"/>
			<point x="164" y="205"/>
			<point x="191" y="240"/>
			<point x="255" y="275" type="curve" smooth="yes"/>
			<point x="357" y="332"/>
			<point x="388" y="378"/>
			<point x="400" y="484" type="curve"/>
			<point x="315" y="484" type="line"/>
			<point x="302" y="421"/>
			<point x="278" y="389"/>
			<point x="210" y="353" type="curve" smooth="yes"/>
			<point x="98" y="292"/>
			<point x="46" y="228"/>
			<point x="46" y="141" type="curve" smooth="yes"/>
			<point x="46" y="48"/>
			<point x="126" y="-28"/>
			<point x="245" y="-28" type="curve" smooth="yes"/>
			<point x="344" y="-28"/>
			<point x="429" y="15"/>
			<point x="504" y="103" type="curve"/>
		</contour>
		<contour>
			<point x="370" y="562" type="curve" smooth="yes"/>
			<point x="422" y="562"/>
			<point x="460" y="599"/>
			<point x="460" y="652" type="curve" smooth="yes"/>
			<point x="460" y="689"/>
			<point x="432" y="715"/>
			<point x="395" y="715" type="curve" smooth="yes"/>
			<point x="343" y="715"/>
			<point x="306" y="679"/>
			<point x="306" y="626" type="curve" smooth="yes"/>
			<point x="306" y="589"/>
			<point x="334" y="562"/>
		</contour>
	</outline>
</glyph>
